G04 DipTrace 3.3.1.3*
G04 TNC3_DOCK_C000A_TopSilk.gbr*
%MOMM*%
G04 #@! TF.FileFunction,Legend,Top*
G04 #@! TF.Part,Single*
%ADD10C,0.25*%
%ADD34C,0.15686*%
%ADD35C,0.23529*%
%FSLAX35Y35*%
G04*
G71*
G90*
G75*
G01*
G04 TopSilk*
%LPD*%
X1318677Y2224677D2*
D10*
X1032929D1*
Y1161050D1*
X1318677D1*
Y2224677D1*
X1017046Y2097680D2*
X953550Y2145330D1*
Y2050029D1*
X1017046Y2097680D1*
X2477800Y3805800D2*
X2223787D1*
Y3297800D1*
X2477800D1*
Y3805800D1*
X2223787Y3678800D2*
X2096800Y3742300D1*
Y3615300D1*
X2223787Y3678800D1*
X2477800Y2655800D2*
X2223787D1*
Y2147800D1*
X2477800D1*
Y2655800D1*
X2223787Y2528800D2*
X2096800Y2592300D1*
Y2465300D1*
X2223787Y2528800D1*
X1302806Y3224824D2*
X1048793D1*
Y2716824D1*
X1302806D1*
Y3224824D1*
X1048793Y3097824D2*
X921806Y3161324D1*
Y3034324D1*
X1048793Y3097824D1*
X2124370Y3414267D2*
D34*
Y3336550D1*
X2119540Y3321950D1*
X2114599Y3317120D1*
X2104940Y3312179D1*
X2095170D1*
X2085511Y3317120D1*
X2080682Y3321950D1*
X2075740Y3336550D1*
Y3346208D1*
X2155742Y3394725D2*
X2165513Y3399667D1*
X2180113Y3414154D1*
Y3312179D1*
X2102526Y2255390D2*
Y2177673D1*
X2097697Y2163073D1*
X2092755Y2158244D1*
X2083097Y2153302D1*
X2073326D1*
X2063667Y2158244D1*
X2058838Y2163073D1*
X2053897Y2177673D1*
Y2187331D1*
X2138840Y2231019D2*
Y2235848D1*
X2143669Y2245619D1*
X2148498Y2250448D1*
X2158269Y2255278D1*
X2177698D1*
X2187357Y2250448D1*
X2192186Y2245619D1*
X2197128Y2235848D1*
Y2226190D1*
X2192186Y2216419D1*
X2182528Y2201931D1*
X2133898Y2153302D1*
X2201957D1*
X1074212Y1073131D2*
X1118012D1*
X1132500Y1077961D1*
X1137442Y1082902D1*
X1142271Y1092561D1*
Y1107161D1*
X1137442Y1116819D1*
X1132500Y1121761D1*
X1118012Y1126590D1*
X1074212D1*
Y1024502D1*
X1173643Y1107048D2*
X1183414Y1111990D1*
X1198014Y1126478D1*
Y1024502D1*
X2203555Y3209881D2*
X2247355D1*
X2261843Y3214711D1*
X2266784Y3219652D1*
X2271614Y3229311D1*
Y3243911D1*
X2266784Y3253569D1*
X2261843Y3258511D1*
X2247355Y3263340D1*
X2203555D1*
Y3161252D1*
X2307928Y3238969D2*
Y3243798D1*
X2312757Y3253569D1*
X2317586Y3258398D1*
X2327357Y3263228D1*
X2346786D1*
X2356445Y3258398D1*
X2361274Y3253569D1*
X2366216Y3243798D1*
Y3234140D1*
X2361274Y3224369D1*
X2351616Y3209881D1*
X2302986Y3161252D1*
X2371045D1*
X2203555Y2059881D2*
X2247355D1*
X2261843Y2064711D1*
X2266784Y2069652D1*
X2271614Y2079311D1*
Y2093911D1*
X2266784Y2103569D1*
X2261843Y2108511D1*
X2247355Y2113340D1*
X2203555D1*
Y2011252D1*
X2312757Y2113228D2*
X2366103D1*
X2337016Y2074369D1*
X2351616D1*
X2361274Y2069540D1*
X2366103Y2064711D1*
X2371045Y2050111D1*
Y2040452D1*
X2366103Y2025852D1*
X2356445Y2016081D1*
X2341845Y2011252D1*
X2327245D1*
X2312757Y2016081D1*
X2307928Y2021023D1*
X2302986Y2030681D1*
X1073773Y2613029D2*
X1117573D1*
X1132061Y2617858D1*
X1137003Y2622800D1*
X1141832Y2632458D1*
Y2647058D1*
X1137003Y2656717D1*
X1132061Y2661658D1*
X1117573Y2666487D1*
X1073773D1*
Y2564400D1*
X1221834D2*
Y2666375D1*
X1173204Y2598429D1*
X1246092D1*
X1954302Y3729366D2*
D35*
X1947059Y3744022D1*
X1925159Y3751266D1*
X1903259D1*
X1881359Y3744022D1*
X1874115Y3729366D1*
X1881359Y3714878D1*
X1896015Y3707466D1*
X1932402Y3700222D1*
X1947059Y3692978D1*
X1954302Y3678322D1*
Y3671078D1*
X1947059Y3656591D1*
X1925159Y3649178D1*
X1903259D1*
X1881359Y3656591D1*
X1874115Y3671078D1*
X1911891Y3437187D2*
Y3313199D1*
X1919135Y3291467D1*
X1933791Y3284055D1*
X1948279D1*
X1889991Y3386143D2*
X1941035D1*
X1905865Y3592519D2*
Y3490432D1*
Y3548719D2*
X1913277Y3570619D1*
X1927765Y3585276D1*
X1942421Y3592519D1*
X1964321D1*
X1484654Y3702257D2*
Y3709501D1*
X1491898Y3724157D1*
X1499141Y3731401D1*
X1513798Y3738645D1*
X1542941D1*
X1557429Y3731401D1*
X1564673Y3724157D1*
X1572085Y3709501D1*
Y3695013D1*
X1564673Y3680357D1*
X1550185Y3658626D1*
X1477241Y3585682D1*
X1579329D1*
X1633632Y3600338D2*
X1626388Y3592926D1*
X1633632Y3585682D1*
X1641044Y3592926D1*
X1633632Y3600338D1*
X1775534Y3738645D2*
X1702759D1*
X1695515Y3673113D1*
X1702759Y3680357D1*
X1724659Y3687769D1*
X1746391D1*
X1768291Y3680357D1*
X1782947Y3665869D1*
X1790191Y3643969D1*
Y3629482D1*
X1782947Y3607582D1*
X1768291Y3592926D1*
X1746391Y3585682D1*
X1724659D1*
X1702759Y3592926D1*
X1695515Y3600338D1*
X1688103Y3614826D1*
X1970179Y2586366D2*
X1962935Y2601022D1*
X1941035Y2608266D1*
X1919135D1*
X1897235Y2601022D1*
X1889991Y2586366D1*
X1897235Y2571878D1*
X1911891Y2564466D1*
X1948279Y2557222D1*
X1962935Y2549978D1*
X1970179Y2535322D1*
Y2528078D1*
X1962935Y2513591D1*
X1941035Y2506178D1*
X1919135D1*
X1897235Y2513591D1*
X1889991Y2528078D1*
X1927765Y2468810D2*
Y2344822D1*
X1935009Y2323091D1*
X1949665Y2315678D1*
X1964152D1*
X1905865Y2417766D2*
X1956909D1*
X1921738Y2259016D2*
Y2156928D1*
Y2215216D2*
X1929150Y2237116D1*
X1943638Y2251772D1*
X1958294Y2259016D1*
X1980194D1*
X1507774Y2595645D2*
X1587793D1*
X1544162Y2537357D1*
X1566062D1*
X1580550Y2530113D1*
X1587793Y2522869D1*
X1595206Y2500969D1*
Y2486482D1*
X1587793Y2464582D1*
X1573306Y2449926D1*
X1551406Y2442682D1*
X1529506D1*
X1507774Y2449926D1*
X1500530Y2457338D1*
X1493118Y2471826D1*
X1649508Y2457338D2*
X1642265Y2449926D1*
X1649508Y2442682D1*
X1656921Y2449926D1*
X1649508Y2457338D1*
X1791411Y2595645D2*
X1718636D1*
X1711392Y2530113D1*
X1718636Y2537357D1*
X1740536Y2544769D1*
X1762267D1*
X1784167Y2537357D1*
X1798823Y2522869D1*
X1806067Y2500969D1*
Y2486482D1*
X1798823Y2464582D1*
X1784167Y2449926D1*
X1762267Y2442682D1*
X1740536D1*
X1718636Y2449926D1*
X1711392Y2457338D1*
X1703980Y2471826D1*
X1761196Y1781549D2*
X1753952Y1796037D1*
X1739296Y1810693D1*
X1724809Y1817937D1*
X1695665D1*
X1681009Y1810693D1*
X1666521Y1796037D1*
X1659109Y1781549D1*
X1651865Y1759649D1*
Y1723093D1*
X1659109Y1701361D1*
X1666521Y1686705D1*
X1681009Y1672217D1*
X1695665Y1664805D1*
X1724809D1*
X1739296Y1672217D1*
X1753952Y1686705D1*
X1761196Y1701361D1*
X1852055Y1817768D2*
X1830155Y1810524D1*
X1815499Y1788624D1*
X1808255Y1752237D1*
Y1730337D1*
X1815499Y1693949D1*
X1830155Y1672049D1*
X1852055Y1664805D1*
X1866543D1*
X1888443Y1672049D1*
X1902930Y1693949D1*
X1910343Y1730337D1*
Y1752237D1*
X1902930Y1788624D1*
X1888443Y1810524D1*
X1866543Y1817768D1*
X1852055D1*
X1902930Y1788624D2*
X1815499Y1693949D1*
X2001202Y1817768D2*
X1979302Y1810524D1*
X1964645Y1788624D1*
X1957402Y1752237D1*
Y1730337D1*
X1964645Y1693949D1*
X1979302Y1672049D1*
X2001202Y1664805D1*
X2015689D1*
X2037589Y1672049D1*
X2052077Y1693949D1*
X2059489Y1730337D1*
Y1752237D1*
X2052077Y1788624D1*
X2037589Y1810524D1*
X2015689Y1817768D1*
X2001202D1*
X2052077Y1788624D2*
X1964645Y1693949D1*
X2150348Y1817768D2*
X2128448Y1810524D1*
X2113792Y1788624D1*
X2106548Y1752237D1*
Y1730337D1*
X2113792Y1693949D1*
X2128448Y1672049D1*
X2150348Y1664805D1*
X2164836D1*
X2186736Y1672049D1*
X2201223Y1693949D1*
X2208636Y1730337D1*
Y1752237D1*
X2201223Y1788624D1*
X2186736Y1810524D1*
X2164836Y1817768D1*
X2150348D1*
X2201223Y1788624D2*
X2113792Y1693949D1*
X2372438Y1664805D2*
X2313982Y1817937D1*
X2255695Y1664805D1*
X2277595Y1715849D2*
X2350538D1*
M02*
