G04 DipTrace 3.3.1.3*
G04 TNC3_DOCK_C000A_Bottom.gbr*
%MOMM*%
G04 #@! TF.FileFunction,Copper,L2,Bot*
G04 #@! TF.Part,Single*
G04 #@! TA.AperFunction,Conductor*
%ADD14C,0.508*%
G04 #@! TA.AperFunction,CopperBalancing*
%ADD15C,0.635*%
G04 #@! TA.AperFunction,ComponentPad*
%ADD16C,1.524*%
%ADD17R,1.524X1.524*%
%ADD18C,1.524*%
G04 #@! TA.AperFunction,ViaPad*
%ADD19C,0.6858*%
%FSLAX35Y35*%
G04*
G71*
G90*
G75*
G01*
G04 Bottom*
%LPD*%
X1175800Y1573800D2*
D14*
X1462675D1*
X1969175Y2080300D1*
Y2445425D1*
X2052550Y2528800D1*
X2350800D1*
X1175800Y1319800D2*
X1383300D1*
X2338300Y2274800D1*
X2350800D1*
X1175806Y3097824D2*
X1510324D1*
X1937427Y3524927D1*
X2127927D1*
X1175806Y2843824D2*
X1951776D1*
D19*
D3*
X1070696Y3826883D2*
D15*
X2486707D1*
X1070696Y3763717D2*
X2214180D1*
X1070696Y3700550D2*
X2214180D1*
X1070696Y3637383D2*
X2055769D1*
X1070696Y3574217D2*
X1868009D1*
X1070696Y3511050D2*
X1804845D1*
X2454745D2*
X2486707D1*
X1070696Y3447883D2*
X1741680D1*
X1070696Y3384717D2*
X1678516D1*
X1915982D2*
X2220470D1*
X1070696Y3321550D2*
X1615261D1*
X1852818D2*
X2265040D1*
X2436607D2*
X2486707D1*
X1070696Y3258383D2*
X1552097D1*
X1789654D2*
X2486707D1*
X1312414Y3195217D2*
X1488933D1*
X1726490D2*
X2486707D1*
X1663326Y3132050D2*
X2166147D1*
X2435422D2*
X2486707D1*
X1600162Y3068883D2*
X2112735D1*
X1312414Y3005717D2*
X2090587D1*
X1267115Y2942550D2*
X2089128D1*
X2039029Y2879383D2*
X2107996D1*
X2042037Y2816217D2*
X2155209D1*
X2446360D2*
X2486707D1*
X1275591Y2753050D2*
X2486707D1*
X1070696Y2689883D2*
X2486707D1*
X1070696Y2626717D2*
X2214180D1*
X1070696Y2563550D2*
X1968542D1*
X1070696Y2500383D2*
X1905378D1*
X1070696Y2437217D2*
X1883321D1*
X1070696Y2374050D2*
X1883321D1*
X2441529D2*
X2486707D1*
X1070696Y2310883D2*
X1883321D1*
X1070696Y2247717D2*
X1883321D1*
X1312414Y2184550D2*
X1883321D1*
X2054979D2*
X2129324D1*
X2451099D2*
X2486707D1*
X1312414Y2121383D2*
X1883321D1*
X2303625D2*
X2486707D1*
X1312414Y2058217D2*
X1828360D1*
X2240461D2*
X2486707D1*
X1312414Y1995050D2*
X1765196D1*
X2177297D2*
X2486707D1*
X1260461Y1931883D2*
X1702032D1*
X2114133D2*
X2486707D1*
X1305852Y1868717D2*
X1638868D1*
X2050969D2*
X2486707D1*
X1310500Y1805550D2*
X1575704D1*
X1987805D2*
X2486707D1*
X1280513Y1742383D2*
X1512540D1*
X1924641D2*
X2486707D1*
X1070696Y1679217D2*
X1092870D1*
X1258729D2*
X1449376D1*
X1861477D2*
X2486707D1*
X1798313Y1616050D2*
X2486707D1*
X1735149Y1552883D2*
X2486707D1*
X1281698Y1489717D2*
X1434428D1*
X1671985D2*
X1885326D1*
X2216308D2*
X2486707D1*
X1070696Y1426550D2*
X1094691D1*
X1256815D2*
X1371264D1*
X1608821D2*
X1837839D1*
X2263703D2*
X2486707D1*
X1545657Y1363383D2*
X1816329D1*
X2285305D2*
X2486707D1*
X1482492Y1300217D2*
X1813321D1*
X2288313D2*
X2486707D1*
X1282792Y1237050D2*
X1827996D1*
X2273638D2*
X2486707D1*
X1070696Y1173883D2*
X1864818D1*
X2236815D2*
X2486707D1*
X1070696Y1110717D2*
X1945847D1*
X2155787D2*
X2486707D1*
X2220831Y3433660D2*
X2204500Y3419533D1*
X2187070Y3408852D1*
X2168184Y3401029D1*
X2148306Y3396256D1*
X2127927Y3394653D1*
X2107547Y3396256D1*
X2087670Y3401029D1*
X2068783Y3408852D1*
X2051353Y3419533D1*
X2035809Y3432809D1*
X2024833Y3445435D1*
X1970336Y3445452D1*
X1561938Y3037391D1*
X1551849Y3030061D1*
X1540738Y3024399D1*
X1528877Y3020546D1*
X1516559Y3018595D1*
X1346991Y3018350D1*
X1306080Y3018098D1*
Y2967550D1*
X1216666D1*
X1234949Y2959899D1*
X1252379Y2949218D1*
X1267924Y2935942D1*
X1278899Y2923315D1*
X1913085Y2923298D1*
X1924470Y2927863D1*
X1937953Y2931100D1*
X1951776Y2932188D1*
X1965599Y2931100D1*
X1979082Y2927863D1*
X1991892Y2922557D1*
X2003715Y2915312D1*
X2014259Y2906307D1*
X2023264Y2895763D1*
X2030509Y2883940D1*
X2035815Y2871130D1*
X2039052Y2857647D1*
X2040140Y2843824D1*
X2039052Y2830001D1*
X2035815Y2816518D1*
X2030509Y2803708D1*
X2023264Y2791885D1*
X2014259Y2781341D1*
X2003715Y2772336D1*
X1991892Y2765091D1*
X1979082Y2759785D1*
X1965599Y2756548D1*
X1951776Y2755460D1*
X1937953Y2756548D1*
X1924470Y2759785D1*
X1913259Y2764354D1*
X1279029Y2764350D1*
X1267924Y2751706D1*
X1252379Y2738430D1*
X1234949Y2727749D1*
X1216063Y2719926D1*
X1196185Y2715154D1*
X1175806Y2713550D1*
X1155427Y2715154D1*
X1135549Y2719926D1*
X1116663Y2727749D1*
X1099233Y2738430D1*
X1083688Y2751706D1*
X1070412Y2767251D1*
X1064319Y2776488D1*
X1064300Y2211995D1*
X1306074Y2212074D1*
Y1951526D1*
X1216660D1*
X1234943Y1943875D1*
X1252373Y1933194D1*
X1267918Y1919918D1*
X1281194Y1904373D1*
X1291875Y1886943D1*
X1299698Y1868057D1*
X1304470Y1848179D1*
X1306074Y1827800D1*
X1304470Y1807421D1*
X1299698Y1787543D1*
X1291875Y1768657D1*
X1281194Y1751227D1*
X1267918Y1735682D1*
X1252373Y1722406D1*
X1234943Y1711725D1*
X1216057Y1703902D1*
X1204683Y1700821D1*
X1225654Y1694158D1*
X1243868Y1684877D1*
X1260406Y1672861D1*
X1274861Y1658406D1*
X1278893Y1653291D1*
X1429823Y1653274D1*
X1889659Y2113177D1*
X1889946Y2451660D1*
X1891897Y2463978D1*
X1895750Y2475838D1*
X1901412Y2486950D1*
X1908742Y2497039D1*
X1996353Y2584997D1*
X2005836Y2593096D1*
X2016469Y2599612D1*
X2027991Y2604384D1*
X2040117Y2607296D1*
X2052550Y2608274D1*
X2220526Y2608526D1*
Y2659074D1*
X2481074D1*
Y2398526D1*
X2391660D1*
X2409943Y2390875D1*
X2427373Y2380194D1*
X2442918Y2366918D1*
X2456194Y2351373D1*
X2466875Y2333943D1*
X2474698Y2315057D1*
X2479470Y2295179D1*
X2481074Y2274800D1*
X2479470Y2254421D1*
X2474698Y2234543D1*
X2466875Y2215657D1*
X2456194Y2198227D1*
X2442918Y2182682D1*
X2427373Y2169406D1*
X2409943Y2158725D1*
X2391057Y2150902D1*
X2371179Y2146130D1*
X2350800Y2144526D1*
X2330421Y2146130D1*
X2323406Y2147525D1*
X1434914Y1259367D1*
X1424825Y1252037D1*
X1413713Y1246375D1*
X1401853Y1242522D1*
X1389535Y1240571D1*
X1278938Y1240326D1*
X1267918Y1227682D1*
X1252373Y1214406D1*
X1234943Y1203725D1*
X1216057Y1195902D1*
X1196179Y1191130D1*
X1175800Y1189526D1*
X1155421Y1191130D1*
X1135543Y1195902D1*
X1116657Y1203725D1*
X1099227Y1214406D1*
X1083682Y1227682D1*
X1070406Y1243227D1*
X1064313Y1252464D1*
X1064300Y1064287D1*
X2492980Y1064300D1*
X2493050Y2892563D1*
X2485313Y2875486D1*
X2477368Y2861299D1*
X2468334Y2847779D1*
X2458267Y2835010D1*
X2447230Y2823070D1*
X2435290Y2812033D1*
X2422521Y2801966D1*
X2409001Y2792932D1*
X2394814Y2784987D1*
X2380047Y2778180D1*
X2364792Y2772552D1*
X2349143Y2768138D1*
X2333195Y2764966D1*
X2317048Y2763055D1*
X2300800Y2762417D1*
X2284552Y2763055D1*
X2268405Y2764966D1*
X2252457Y2768138D1*
X2236808Y2772552D1*
X2221553Y2778180D1*
X2206786Y2784987D1*
X2192599Y2792932D1*
X2179079Y2801966D1*
X2166310Y2812033D1*
X2154370Y2823070D1*
X2143333Y2835010D1*
X2133266Y2847779D1*
X2124232Y2861299D1*
X2116287Y2875486D1*
X2109480Y2890253D1*
X2103852Y2905508D1*
X2099438Y2921157D1*
X2096266Y2937105D1*
X2094355Y2953252D1*
X2093717Y2969500D1*
X2094355Y2985748D1*
X2096266Y3001895D1*
X2099438Y3017843D1*
X2103852Y3033492D1*
X2109480Y3048747D1*
X2116287Y3063514D1*
X2124232Y3077701D1*
X2133266Y3091221D1*
X2143333Y3103990D1*
X2154370Y3115930D1*
X2166310Y3126967D1*
X2179079Y3137034D1*
X2192599Y3146068D1*
X2206786Y3154013D1*
X2221553Y3160820D1*
X2236808Y3166448D1*
X2252457Y3170862D1*
X2268405Y3174034D1*
X2284552Y3175945D1*
X2300800Y3176583D1*
X2317048Y3175945D1*
X2333195Y3174034D1*
X2349143Y3170862D1*
X2364792Y3166448D1*
X2380047Y3160820D1*
X2394814Y3154013D1*
X2409001Y3146068D1*
X2422521Y3137034D1*
X2435290Y3126967D1*
X2447230Y3115930D1*
X2458267Y3103990D1*
X2468334Y3091221D1*
X2477368Y3077701D1*
X2485313Y3063514D1*
X2493065Y3046185D1*
X2493050Y3890063D1*
X1064370Y3890050D1*
X1064300Y3228089D1*
X1306080Y3228098D1*
Y3177330D1*
X1477408Y3177298D1*
X1885812Y3585359D1*
X1895901Y3592690D1*
X1907013Y3598351D1*
X1918874Y3602205D1*
X1931191Y3604156D1*
X2024653Y3604401D1*
X2035809Y3617044D1*
X2051353Y3630321D1*
X2068783Y3641002D1*
X2087670Y3648825D1*
X2107547Y3653597D1*
X2127927Y3655201D1*
X2148306Y3653597D1*
X2168184Y3648825D1*
X2187070Y3641002D1*
X2204500Y3630321D1*
X2220505Y3616546D1*
X2220526Y3809074D1*
X2481074D1*
Y3548526D1*
X2391660D1*
X2409943Y3540875D1*
X2427373Y3530194D1*
X2442918Y3516918D1*
X2456194Y3501373D1*
X2466875Y3483943D1*
X2474698Y3465057D1*
X2479470Y3445179D1*
X2481074Y3424800D1*
X2479470Y3404421D1*
X2474698Y3384543D1*
X2466875Y3365657D1*
X2456194Y3348227D1*
X2442918Y3332682D1*
X2427373Y3319406D1*
X2409943Y3308725D1*
X2391057Y3300902D1*
X2371179Y3296130D1*
X2350800Y3294526D1*
X2330421Y3296130D1*
X2310543Y3300902D1*
X2291657Y3308725D1*
X2274227Y3319406D1*
X2258682Y3332682D1*
X2245406Y3348227D1*
X2234725Y3365657D1*
X2226902Y3384543D1*
X2222130Y3404421D1*
X2220526Y3424800D1*
X2220873Y3433624D1*
X2220505Y2274431D2*
X2204500Y2260656D1*
X2187070Y2249975D1*
X2168184Y2242152D1*
X2148306Y2237380D1*
X2127927Y2235776D1*
X2107547Y2237380D1*
X2087670Y2242152D1*
X2068783Y2249975D1*
X2051353Y2260656D1*
X2048624Y2262808D1*
X2048649Y2097521D1*
X2220571Y2269465D1*
X1146917Y1700821D2*
X1135543Y1703902D1*
X1116657Y1711725D1*
X1099227Y1722406D1*
X1083682Y1735682D1*
X1070406Y1751227D1*
X1064313Y1760464D1*
X1064723Y1641868D1*
X1076739Y1658406D1*
X1091194Y1672861D1*
X1107732Y1684877D1*
X1125946Y1694158D1*
X1146917Y1700779D1*
X1278893Y1494309D2*
X1267918Y1481682D1*
X1252373Y1468406D1*
X1234943Y1457725D1*
X1216057Y1449902D1*
X1204683Y1446821D1*
X1225654Y1440158D1*
X1243868Y1430877D1*
X1260406Y1418861D1*
X1274861Y1404406D1*
X1278893Y1399291D1*
X1350344Y1399274D1*
X1445369Y1494262D1*
X1279016Y1494326D1*
X1146917Y1446821D2*
X1135543Y1449902D1*
X1116657Y1457725D1*
X1099227Y1468406D1*
X1083682Y1481682D1*
X1070406Y1497227D1*
X1064313Y1506464D1*
X1064723Y1387868D1*
X1076739Y1404406D1*
X1091194Y1418861D1*
X1107732Y1430877D1*
X1125946Y1440158D1*
X1146917Y1446779D1*
X2282168Y1302591D2*
X2280026Y1284494D1*
X2276471Y1266621D1*
X2271524Y1249082D1*
X2265217Y1231986D1*
X2257588Y1215436D1*
X2248684Y1199537D1*
X2238559Y1184385D1*
X2227278Y1170074D1*
X2214908Y1156692D1*
X2201526Y1144322D1*
X2187215Y1133041D1*
X2172063Y1122916D1*
X2156164Y1114012D1*
X2139614Y1106383D1*
X2122518Y1100076D1*
X2104979Y1095129D1*
X2087106Y1091574D1*
X2069009Y1089432D1*
X2050800Y1088717D1*
X2032591Y1089432D1*
X2014494Y1091574D1*
X1996621Y1095129D1*
X1979082Y1100076D1*
X1961986Y1106383D1*
X1945436Y1114012D1*
X1929537Y1122916D1*
X1914385Y1133041D1*
X1900074Y1144322D1*
X1886692Y1156692D1*
X1874322Y1170074D1*
X1863041Y1184385D1*
X1852916Y1199537D1*
X1844012Y1215436D1*
X1836383Y1231986D1*
X1830076Y1249082D1*
X1825129Y1266621D1*
X1821574Y1284494D1*
X1819432Y1302591D1*
X1818717Y1320800D1*
X1819432Y1339009D1*
X1821574Y1357106D1*
X1825129Y1374979D1*
X1830076Y1392518D1*
X1836383Y1409614D1*
X1844012Y1426164D1*
X1852916Y1442063D1*
X1863041Y1457215D1*
X1874322Y1471526D1*
X1886692Y1484908D1*
X1900074Y1497278D1*
X1914385Y1508559D1*
X1929537Y1518684D1*
X1945436Y1527588D1*
X1961986Y1535217D1*
X1979082Y1541524D1*
X1996621Y1546471D1*
X2014494Y1550026D1*
X2032591Y1552168D1*
X2050800Y1552883D1*
X2069009Y1552168D1*
X2087106Y1550026D1*
X2104979Y1546471D1*
X2122518Y1541524D1*
X2139614Y1535217D1*
X2156164Y1527588D1*
X2172063Y1518684D1*
X2187215Y1508559D1*
X2201526Y1497278D1*
X2214908Y1484908D1*
X2227278Y1471526D1*
X2238559Y1457215D1*
X2248684Y1442063D1*
X2257588Y1426164D1*
X2265217Y1409614D1*
X2271524Y1392518D1*
X2276471Y1374979D1*
X2280026Y1357106D1*
X2282168Y1339009D1*
X2282883Y1320800D1*
X2282168Y1302591D1*
D16*
X2127927Y3524927D3*
Y2366050D3*
D17*
X1175800Y2081800D3*
D18*
Y1827800D3*
Y1573800D3*
Y1319800D3*
D17*
X2350800Y3678800D3*
D16*
Y3424800D3*
D17*
Y2528800D3*
D16*
Y2274800D3*
D17*
X1175806Y3097824D3*
D16*
Y2843824D3*
M02*
