G04 DipTrace 3.3.1.3*
G04 TNC3L_B005_Top.gbr*
%MOMM*%
G04 #@! TF.FileFunction,Copper,L1,Top*
G04 #@! TF.Part,Single*
G04 #@! TA.AperFunction,Conductor*
%ADD14C,0.2032*%
G04 #@! TA.AperFunction,CopperBalancing*
%ADD15C,0.508*%
G04 #@! TA.AperFunction,Conductor*
%ADD16C,0.762*%
%ADD17C,0.254*%
%ADD18C,0.381*%
G04 #@! TA.AperFunction,CopperBalancing*
%ADD19C,0.635*%
%ADD21R,1.8X1.0*%
%ADD23R,1.0X0.5*%
%ADD24R,1.6X0.9*%
%ADD25R,0.7X0.9*%
%ADD26R,0.9X0.7*%
%ADD27R,1.5X1.3*%
%ADD28R,1.3X1.5*%
%ADD29R,0.5X0.7*%
%ADD30R,1.0X0.9*%
%ADD32R,1.2X1.2*%
%ADD33R,1.05X1.4*%
%ADD34R,0.85X0.9*%
%ADD37R,0.59X0.72*%
%ADD38R,0.72X0.59*%
%ADD43R,0.5842X1.143*%
%ADD44R,0.3048X1.143*%
G04 #@! TA.AperFunction,ComponentPad*
%ADD45O,1.0X1.8*%
%ADD47O,1.0X2.1*%
%ADD48R,1.016X1.016*%
%ADD50C,1.016*%
%ADD51R,1.524X1.524*%
%ADD52C,1.524*%
%ADD53R,2.2X2.5*%
%ADD54R,2.2X2.3*%
%ADD56R,0.65X1.05*%
%ADD58R,0.6X1.1*%
G04 #@! TA.AperFunction,ComponentPad*
%ADD60C,1.27*%
%ADD63R,0.2794X0.6858*%
%ADD64R,0.7112X1.0414*%
%ADD67O,0.85X0.3*%
%ADD68O,0.3X0.85*%
%ADD69R,5.2X5.2*%
%ADD73R,0.25X0.58*%
%ADD74R,0.3X0.58*%
%ADD75R,0.63X0.25*%
G04 #@! TA.AperFunction,ViaPad*
%ADD76C,0.6*%
%FSLAX35Y35*%
G04*
G71*
G90*
G75*
G01*
G04 Top*
%LPD*%
X4207550Y2778800D2*
D14*
X4191673Y2762923D1*
Y2556553D1*
X4216173Y2532053D1*
Y2430423D1*
X2367540Y2821810D2*
X2357653D1*
X2337537Y2841927D1*
X2286300D1*
X4636173Y2260423D2*
X4768677D1*
X4826677Y2318423D1*
Y2461300D1*
X1191300Y2842300D2*
X1207177D1*
X1127800Y2762923D1*
Y2415170D1*
X1194200Y2348770D1*
X1729647D1*
X1746927Y2366050D1*
X4366173Y2430423D2*
Y2556423D1*
X4464550Y2654800D1*
Y2683550D1*
X4334550D2*
Y2778800D1*
Y2683550D2*
Y2588300D1*
X4316173Y2569923D1*
Y2430423D1*
X2810550Y2683550D2*
Y2445423D1*
X2715300Y2350173D1*
X2270800D1*
X2223173Y2397800D1*
X2112050D1*
X1921550Y2207300D1*
X1683427D1*
X1508800Y2032673D1*
Y1905677D1*
X1635800Y1778677D1*
Y1604050D1*
X1715173Y1524677D1*
Y1492923D1*
X4223427Y2858173D2*
X4315673D1*
X4331550Y2874050D1*
X5157050Y1207173D2*
X4937800D1*
Y1270677D1*
X4810803Y1397673D1*
X4525053D1*
X4413923Y1508803D1*
Y1572303D1*
X4366173Y1620053D1*
Y1740423D1*
X4271050Y1492927D2*
X4266173Y1497803D1*
Y1740423D1*
X4334550Y1556427D2*
X4316173Y1574803D1*
Y1740423D1*
X4763177Y2381927D2*
X4691673Y2310423D1*
X4636173D1*
X4128177Y1445300D2*
X4216173Y1533297D1*
Y1740423D1*
X4096427Y1524673D2*
X4166173Y1594420D1*
Y1740423D1*
X4826673Y1492927D2*
Y1524677D1*
X4794927Y1556423D1*
Y1804617D1*
X4739120Y1860423D1*
X4636173D1*
X4681820Y2485820D2*
X4669310Y2498330D1*
X4530330D1*
X4516173Y2484173D1*
Y2430423D1*
X4985427Y2461300D2*
X4905507Y2541220D1*
X4501733D1*
X4466173Y2505660D1*
Y2430423D1*
X4516173Y1740423D2*
Y1860417D1*
X4418607Y1957983D1*
X4291167Y2085423D1*
X3969427Y2686550D2*
X4029927D1*
X4077450Y2639027D1*
Y2509610D1*
X4066173Y2498333D1*
Y2430423D1*
X2810550Y1651674D2*
Y1667550D1*
X2733780Y1744320D1*
X2688560D1*
X2302800Y1572300D2*
X2318427D1*
Y1672540D1*
X2413670D1*
X3238923Y1889800D2*
Y1937173D1*
X3271950Y1970200D1*
X3389330D1*
X3409170Y1950360D1*
X4715550Y1489927D2*
X4702673D1*
X4620300Y1572300D1*
Y1635800D1*
X5051923Y2302550D2*
X5144173D1*
X5208643Y2238080D1*
X5237420D1*
X5287050Y1207173D2*
Y1127800D1*
X3450550Y1651674D2*
Y1735010D1*
X3431490Y1754070D1*
X2062927Y1921550D2*
Y1997263D1*
X2059110Y2001080D1*
X3664800Y1810427D2*
X3664790Y1730180D1*
X1626680Y2032170D2*
X1746927D1*
Y2079800D1*
X2572427Y1728050D2*
X2572430Y1637800D1*
X3683673Y1635800D2*
X3763920D1*
X5034550Y1589673D2*
X5050427D1*
X5144177Y1683423D1*
Y1826300D1*
X5274173Y1937427D2*
X5382300D1*
X5083673Y2143800D2*
X5237420D1*
X3946173Y1860423D2*
X3878250D1*
Y1730180D1*
X4291167Y2085423D2*
X4175360Y1969617D1*
X4071007Y1865263D1*
X3946173D1*
Y1860423D1*
X4066173Y2430423D2*
Y2310417D1*
X4164607Y2211983D1*
X4291167Y2085423D1*
X2444927Y1111927D2*
X2439627Y1083617D1*
X2567123D1*
X2572427Y1080173D1*
X2778800Y1810427D2*
Y1819560D1*
X2688560D1*
X2318423Y1572300D2*
Y1715177D1*
X2302550Y1731050D1*
X4175800Y2223173D2*
X4164607Y2211983D1*
X4175800Y2223173D2*
X4302800D1*
X4429800D1*
X4175800Y2000927D2*
X4175360Y2000487D1*
Y1969617D1*
X4477427Y2000927D2*
X4434483Y1957983D1*
X4418607D1*
X2144670Y1147640D2*
X2084823D1*
X2064427Y1143673D1*
X2683550Y2413677D2*
X2518017Y2579210D1*
X1880710D1*
X1826300Y2524800D1*
Y2302550D1*
X1778677Y2254927D1*
X1604050D1*
X1477050Y2127927D1*
X6969800Y2858173D2*
X6874550D1*
X6083173Y2621050D2*
Y2563550D1*
X6076673Y2557050D1*
X6083173Y2621050D2*
X6240550D1*
X6271300Y2651800D1*
D15*
Y2747050D1*
X6318927D1*
X6366550D1*
X6461800D1*
X6557050D1*
X6652300D1*
X5237420Y2238080D2*
D14*
X5270207D1*
X5334677Y2302550D1*
Y2445923D1*
X5365927Y2477173D1*
X2083810Y2199210D2*
X2024587D1*
X1984677Y2159300D1*
Y2111673D1*
X4854560Y2131450D2*
X4825587Y2160423D1*
X4636173D1*
X3946173D2*
X3651177D1*
X3604300Y2207300D1*
Y2350173D1*
X3572550Y2381923D1*
Y2413673D1*
X3946173Y2110423D2*
X3606810D1*
X3524923Y2192310D1*
Y2318427D1*
X3461423Y2381927D1*
X3445550D1*
Y2413673D1*
X3946173Y2060423D2*
X3592427D1*
X3397923Y2254927D1*
X3350300D1*
X3255050Y2350177D1*
Y2413673D1*
X2763423Y2096173D2*
D15*
X2648707D1*
X2632830Y2112050D1*
X2572427D1*
X2397800Y1572300D2*
D14*
Y1524677D1*
X2357573Y1484450D1*
X2247527D1*
X2207800Y1524177D1*
Y1572300D1*
Y1508800D1*
X2048553D1*
X1997927Y1559427D1*
Y1713270D1*
X2127927D2*
Y1683423D1*
X2207800Y1603550D1*
Y1508800D1*
X2114997Y1817410D2*
X2124117D1*
Y1713270D1*
X2127927D1*
X4461550Y2874050D2*
X4572677D1*
X4615707Y2831020D1*
Y2704017D1*
X4667923Y2651800D1*
X4826673D1*
X4858423Y2683550D1*
Y2737926D1*
X4863550D1*
X6001427Y2172550D2*
D15*
X5890300D1*
X5556923Y2572427D2*
D16*
Y2397797D1*
X5493923Y2334797D1*
Y2270800D1*
X5890300Y2172550D2*
X5845673D1*
X5795050Y2223173D1*
Y2334300D1*
X5731550Y2397800D1*
X5556923D1*
D14*
Y2572427D1*
X6779300Y2874050D2*
X6795173D1*
X6715797Y2953427D1*
X5525180D1*
X5493427Y2921673D1*
Y2667673D1*
X5556923Y2604177D1*
Y2572427D1*
X5274173Y2889927D2*
Y2710420D1*
X5270927Y2707173D1*
X6477673Y2858177D2*
X6633427D1*
X6649300Y2874050D1*
X4906050Y2461300D2*
D17*
Y2318423D1*
X4921923Y2302550D1*
Y2318423D1*
X4813923Y2210423D1*
X4636173D1*
X3445550Y2543673D2*
D14*
Y2572427D1*
X3509050Y2635927D1*
X3763050D1*
X3810673Y2683550D1*
Y2731173D1*
X3858923Y2779423D1*
Y2826417D1*
X4556800Y2778800D2*
D18*
X4464550D1*
X1746927Y1889800D2*
X1604050D1*
X1997927Y1921550D2*
Y1817410D1*
X2010857D1*
X1976950Y2001080D2*
Y1992057D1*
X1997927Y1971080D1*
Y1921550D1*
X1746927Y1889800D2*
D15*
X1937427D1*
Y1819907D1*
X2008360D1*
X2010857Y1817410D1*
X1937427Y1889800D2*
D18*
Y1961557D1*
X1976950Y2001080D1*
X1880550Y1527800D2*
D16*
X1731050Y1677300D1*
Y1727800D1*
X1740550D1*
Y1883423D1*
X1746927Y1889800D1*
X3794800Y2905800D2*
D14*
Y2826417D1*
X3778923D1*
X3874173Y2699427D2*
X3890053D1*
X3731300Y2540673D1*
X3572550D1*
Y2543673D1*
X3255050D2*
Y2620050D1*
X3318550Y2683550D1*
X3524923D1*
X3668923Y2827550D1*
Y2836417D1*
X6083173Y2493050D2*
X6191927D1*
X6220677Y2521800D1*
X6271300D1*
D15*
Y2381927D1*
Y2347177D1*
X6258423Y2334300D1*
X6271300D1*
Y2239050D1*
Y2143800D1*
X6242550D1*
X6271300Y2413677D2*
Y2381927D1*
Y2239050D2*
D3*
Y2413677D2*
X6191927D1*
X6271300Y2239050D2*
X6191927D1*
X5509300Y1207175D2*
X5906175D1*
X6207800Y1508800D1*
Y2109050D1*
X6242550Y2143800D1*
X2445427Y1892800D2*
D18*
Y1889800D1*
X2572427D1*
Y1982050D1*
X2302550Y1861050D2*
Y1858050D1*
X2270797D1*
X2223173Y1905673D1*
X2201000D1*
X2127927D1*
Y1921550D1*
X2445427Y1892800D2*
X2353177D1*
X2302550Y1842173D1*
Y1861050D1*
X2572427Y1982050D2*
Y1858050D1*
X2080300Y1572300D2*
X2062927Y1589673D1*
Y1713270D1*
X4699673Y2889927D2*
D14*
Y2762926D1*
X4715550D1*
X2064427Y1273673D2*
X2003927D1*
X1937427Y1207173D1*
X1826303D1*
X1619923Y1413553D1*
Y1492927D1*
X2140260Y2327230D2*
X2164940Y2302550D1*
X2366050D1*
X2394300Y2274300D1*
Y2199210D1*
X5620425Y1286550D2*
D15*
X5509300Y1287175D1*
X5699800Y1286550D2*
X5509300D1*
Y1287175D1*
X5779175Y1286550D2*
X5509300D1*
X5588923Y2040800D2*
Y1604298D1*
X5429925Y1445300D1*
Y1334175D1*
X5476925Y1287175D1*
X5509300D1*
X6112550Y2143800D2*
D14*
Y2096177D1*
X6080800Y2064427D1*
X5763297D1*
X5683923Y2143800D1*
Y2270800D1*
X5746923Y2572427D2*
D19*
Y2509420D1*
X5842673Y2413670D1*
Y2778800D2*
X5934927D1*
X5842673D2*
Y2842300D1*
X5983173Y2493050D2*
D14*
X5985550D1*
Y2429553D1*
X5890300Y2334303D1*
Y2302550D1*
X6033173Y2493050D2*
Y2350173D1*
X6001427Y2318427D1*
Y2302550D1*
X6096673D1*
X6128423Y2334300D1*
X5989673Y2557050D2*
X5937427D1*
X5922050Y2572427D1*
Y2635923D1*
X5906173Y2651800D1*
X5795050D1*
X5731550Y2715300D1*
X5604553D1*
X5556923Y2762930D1*
Y2842427D1*
X5983173Y2621050D2*
Y2654177D1*
X5937923Y2699427D1*
X5810923D1*
X5746923Y2763427D1*
Y2842427D1*
X6033173Y2621050D2*
Y2699423D1*
X6064927Y2731177D1*
Y2778800D1*
Y2826423D1*
X6096680Y2858177D1*
X6197673D1*
X5144173Y2889927D2*
X5048927D1*
X5011550Y2852550D1*
Y2762926D1*
X5461677Y2429550D2*
X5414050Y2381923D1*
Y2254923D1*
X5331677Y2172550D1*
X5334677D1*
X5398177Y2728177D2*
Y2667673D1*
X5461677Y2604173D1*
Y2429550D1*
X5398177Y2858177D2*
X5334673Y2794673D1*
Y2620050D1*
X5287050Y2572427D1*
X5239427D1*
X5175927Y2508927D1*
Y2477173D1*
X4953673Y2143800D2*
Y2064427D1*
X4825040D1*
X5112423D1*
X5157380Y2019470D1*
Y2032670D1*
X4825040Y2064427D2*
X4763173D1*
X4717177Y2110423D1*
X4636173D1*
X4937800Y1703300D2*
Y1762800D1*
X4790177Y1910423D1*
X4636173D1*
X4904550Y1589673D2*
X4921927D1*
Y1703300D1*
X4937800D1*
Y1953300D2*
Y1960423D1*
X4636173D1*
X5144173Y1937427D2*
Y1953300D1*
X4937800D1*
X3667800Y2223173D2*
X3680550Y2210423D1*
X3946173D1*
X3715420Y2398350D2*
Y2295983D1*
X3750980Y2260423D1*
X3946173D1*
X3110170Y2489630D2*
X2852750Y2747050D1*
X2778800D1*
X2699427Y2667677D1*
X1953300D1*
X1889423Y2731553D1*
Y2841923D1*
X1389050Y2843800D2*
Y2651250D1*
X1317010Y2579210D1*
X1191300Y2938300D2*
X1294550D1*
X1389050Y2843800D1*
X2239050Y2143800D2*
X2429550D1*
X2461300Y2175550D1*
Y2270800D1*
X2493050Y2302550D1*
X2826427D1*
X2921677Y2397800D1*
X3128050D1*
X3175673Y2445423D1*
Y2620050D1*
X3366173Y2810550D1*
X3461427D1*
Y2826423D1*
X2080677Y2111673D2*
Y2137513D1*
X2239050D1*
Y2143800D1*
X1689050Y2843800D2*
Y2720923D1*
X1557957Y2589830D1*
X1524460D1*
X1889423Y2937923D2*
X1783173D1*
X1689050Y2843800D1*
X4416173Y1740423D2*
Y1669797D1*
X4445673Y1640297D1*
Y1635803D1*
X4477427Y1604050D1*
X4466173Y1740423D2*
Y1694673D1*
X4509173Y1651673D1*
X4540923D1*
X4048800D2*
X4016173Y1684300D1*
Y1740423D1*
X3812160Y1890670D2*
X3831913Y1910423D1*
X3946173D1*
X3207427Y2826423D2*
X3096300Y2937550D1*
X2207300D1*
X2175550Y2905800D1*
X2048550D1*
X2032673Y2921677D1*
Y2858177D1*
X2067050Y2823800D1*
X2089050D1*
X2286300Y2937927D2*
X2203177D1*
X2089050Y2823800D1*
X4116173Y1740423D2*
Y1639673D1*
X4032923Y1556423D1*
Y1381800D1*
X4159923Y1254800D1*
X5237420Y2313320D2*
Y2304557D1*
X5160050Y2381927D1*
X5096547D1*
X5056150Y2422323D1*
Y2533450D1*
X5012820Y2576780D1*
X4465907D1*
X4416173Y2527047D1*
Y2430423D1*
X4271050Y2604173D2*
Y2435300D1*
X4266173Y2430423D1*
X4116173D2*
Y2759053D1*
X4064677Y2810550D1*
Y2889927D1*
X4128173Y2842300D2*
Y2810553D1*
X4151740Y2786987D1*
Y2541107D1*
X4166173Y2526673D1*
Y2430423D1*
X3005550Y1651657D2*
Y1758080D1*
X2953203Y1810427D1*
X2908800D1*
X3305550Y1651657D2*
Y1591050D1*
X3270923Y1556423D1*
Y1445300D1*
X3302133Y1414090D1*
X3604840D1*
X3683673Y1492923D1*
Y1505800D1*
X3260950Y1754050D2*
X3278050D1*
X3333923Y1809923D1*
Y1889800D1*
X3151110Y1544730D2*
X3155550Y1549170D1*
Y1651657D1*
X3019930Y1544730D2*
X3025547D1*
X3055550Y1574733D1*
Y1651657D1*
X2905800Y1921550D2*
X3143923D1*
Y1889800D1*
Y1754050D1*
X3184427D1*
X3205550Y1732927D1*
Y1651657D1*
X3143923Y1754050D2*
X3119300D1*
X3105550Y1740300D1*
Y1651657D1*
X3946173Y2010423D2*
X3578927D1*
X3429550Y2159800D1*
X3333923D1*
X3143923D2*
Y2096177D1*
X3175673Y2064427D1*
X3429673D1*
X3533677Y1960423D1*
X3946173D1*
X2899950Y1433930D2*
X2567920D1*
X2469070Y1532780D1*
Y1762800D1*
X2445427D1*
X4723920Y2015830D2*
X4718513Y2010423D1*
X4636173D1*
X3085283Y1477050D2*
D18*
X2969300D1*
X2921673Y1524677D1*
Y1560980D1*
X2890550Y1592103D1*
Y1651674D1*
X3334427Y1477050D2*
X3350300D1*
Y1574547D1*
X3379933Y1608457D1*
X3370550Y1651674D1*
X2953423Y2096173D2*
Y2080303D1*
X3032800Y2000927D1*
X3080427D1*
X2953423Y2096173D2*
D15*
Y2270800D1*
X2985173Y2302550D1*
X3175677D1*
X3238923Y2239303D1*
Y2159800D1*
X3937673Y2429550D2*
D17*
X3969427Y2461303D1*
Y2556550D1*
X4016173Y2430423D2*
Y2461303D1*
X3969427D1*
X3946160Y1810423D2*
Y1676033D1*
X3921800Y1651673D1*
X3854880D1*
Y1353167D1*
X3778923Y1277210D1*
Y1254800D1*
X3854880Y1651673D2*
X3810673Y1695880D1*
Y1810427D1*
X3794800D1*
X2672280Y1894800D2*
X2699030Y1921550D1*
X2775800D1*
X4699673Y1699300D2*
X4715550D1*
Y1762800D1*
X4566173D1*
Y1740423D1*
X2254927Y1111927D2*
X2298770D1*
Y1171643D1*
X2397800Y1270673D1*
Y1286550D1*
Y1302300D1*
X2493050Y1286550D2*
X2397800D1*
X3778923Y1254800D2*
X3667797Y1365927D1*
X2572427D1*
X2493050Y1286550D1*
X4699673Y1699300D2*
Y1778677D1*
X4667927Y1810423D1*
X4636173D1*
X4715550Y1619927D2*
X4709120D1*
Y1689853D1*
X4699673Y1699300D1*
X3968923Y2836417D2*
X3991183D1*
X4017050Y2810550D1*
Y2778800D1*
X4048800Y2747050D1*
D76*
X4826677Y2461300D3*
X1746927Y2366050D3*
X2651800Y2191427D3*
X1715173Y1492923D3*
X4223427Y2858173D3*
D3*
X1858050Y1794550D3*
X1604050Y1889800D3*
X2080300Y1572300D3*
X2201000Y1905673D3*
X1381800Y1572427D3*
X1111927Y1683423D3*
X4699673Y2889927D3*
X1619923Y1492927D3*
X5842673Y2413670D3*
Y2778800D3*
D3*
Y2413670D3*
X5461677Y2429550D3*
D3*
X3366173Y2318427D3*
X4477427Y1604050D3*
X4540923Y1651673D3*
X5366427Y1810423D3*
X4271050Y2604173D3*
X5620425Y1286550D3*
X5699800D3*
X5779175D3*
X6271300Y2413677D3*
Y2239050D3*
X6191927Y2413677D3*
Y2239050D3*
X6366550Y2747050D3*
X6461800D3*
X6557050D3*
X6652300D3*
X3445550Y2318427D3*
X4175800Y2223173D3*
X4302800D3*
X4429800D3*
X4175800Y2000927D3*
X4318673D3*
X4477427D3*
X3048673Y2223173D3*
X3350300Y2540677D3*
X6398300Y1111923D3*
X2688560Y1744320D3*
X2413670Y1672540D3*
X3409170Y1950360D3*
X3878250Y1730180D3*
X4620300Y1635800D3*
X5237420Y2238080D3*
X7096800Y1270673D3*
Y2715300D3*
X6874550Y2858173D3*
X2572427Y1080173D3*
X6985677Y2715300D3*
Y1270673D3*
X6271300Y2747050D3*
X5287050Y1127800D3*
X3159800Y1143673D3*
X3431490Y1754070D3*
X2688560Y1819560D3*
X2059110Y2001080D3*
X3664790Y1730180D3*
X1626680Y2032170D3*
X6366770Y1305570D3*
X2572430Y1637800D3*
X3683673Y2731173D3*
X3763920Y1635800D3*
X3159800Y1254800D3*
X5144177Y1826300D3*
X5382300Y1937427D3*
X5237420Y2143800D3*
X4207550Y2778800D3*
X3112173Y2715300D3*
X2367540Y2821810D3*
X4556800Y2651800D3*
X4626420Y2430420D3*
X4271050Y1492927D3*
X4334550Y1556427D3*
X4763177Y2381927D3*
X4128177Y1445300D3*
X4096427Y1524673D3*
X4826673Y1492927D3*
X3826550Y2540673D3*
X2810550Y2683550D3*
X4681820Y2485820D3*
X2303420Y2409480D3*
X4985427Y2461300D3*
X2254927Y1969173D3*
X1381800Y2254927D3*
X4854560Y2131450D3*
X2334300Y1969173D3*
X2029460Y2404760D3*
X2083810Y2199210D3*
X4556800Y2778800D3*
X1976950Y2001080D3*
X1540550Y2508927D3*
X1572300Y1969173D3*
X4906050Y2461300D3*
X2524800Y2223173D3*
X3874173Y2699427D3*
X3794800Y2905800D3*
X2394300Y2199210D3*
X2140260Y2327230D3*
X5157380Y2032670D3*
X3667800Y2223173D3*
X3715420Y2398350D3*
X3110170Y2489630D3*
X1317010Y2579210D3*
X1524460Y2589830D3*
X4048800Y1651673D3*
X3812160Y1890670D3*
X5237420Y2313320D3*
X4064677Y2889927D3*
X4128173Y2842300D3*
X5001300Y2635927D3*
X2144670Y1147640D3*
X1477050Y2127927D3*
X2683550Y2413677D3*
X3667800Y2461300D3*
X3260950Y1754050D3*
X3019930Y1544730D3*
X3151110D3*
X4723920Y2015830D3*
X2899950Y1433930D3*
X3334427Y1477050D3*
X3080427Y2000927D3*
X3085283Y1477050D3*
X4048800Y2747050D3*
X2672280Y1894800D3*
X5509300Y1731050D3*
X3937673Y2429550D3*
X2493050Y1286550D3*
X4699673Y1699300D3*
X6318927Y2064427D3*
Y1985050D3*
Y1905673D3*
Y1810427D3*
X6414177Y2064427D3*
X6509423D3*
X6620550D3*
X6414173Y1810427D3*
X6509423D3*
X6636423D3*
X6398300Y1572300D3*
X6525300D3*
X6652300D3*
X1381800Y1445300D3*
X5985550Y1127800D3*
X5842673Y2842300D3*
X1070696Y2874383D2*
D19*
X1094874D1*
X4828456D2*
X4898608D1*
X5928586D2*
X6015691D1*
X6318143D2*
X6357214D1*
X7092610D2*
X7138061D1*
X2457297Y2811217D2*
X2563725D1*
X6318143D2*
X6357214D1*
X7083951D2*
X7138061D1*
X2259511Y2748050D2*
X2320821D1*
X2414276D2*
X2588972D1*
X5124498D2*
X5177970D1*
X6598143D2*
X6922227D1*
X7017323D2*
X7138061D1*
X1198391Y2684883D2*
X1218572D1*
X5124498D2*
X5177970D1*
X6821815D2*
X7138061D1*
X1198391Y2621717D2*
X1238100D1*
X1687024D2*
X1902097D1*
X3075266D2*
X3105131D1*
X5090500D2*
X5177970D1*
X1404836Y2558550D2*
X1440079D1*
X1623860D2*
X1848868D1*
X2029276D2*
X2740001D1*
X2881125D2*
X2944076D1*
X1354250Y2495383D2*
X1451199D1*
X1629875D2*
X1823803D1*
X2054250D2*
X2740001D1*
X2881125D2*
X3007240D1*
X1338664Y2432217D2*
X1499779D1*
X1581295D2*
X1688725D1*
X1805149D2*
X1839480D1*
X2390761D2*
X2700170D1*
X3798690D2*
X3847240D1*
X1837323Y2369050D2*
X1947032D1*
X3800604D2*
X3843777D1*
X1070696Y2305883D2*
X1139845D1*
X1811985D2*
X1922970D1*
X1070696Y2242717D2*
X1292240D1*
X1471373D2*
X1621641D1*
X5157310D2*
X5185495D1*
X1070696Y2179550D2*
X1338178D1*
X1425435D2*
X1558477D1*
X5189120D2*
X5239220D1*
X6357154D2*
X6741212D1*
X1070696Y2116383D2*
X1120066D1*
X1381503D2*
X1495313D1*
X5189120D2*
X5239220D1*
X5430110D2*
X5495977D1*
X6352232D2*
X6741212D1*
X2409446Y2053217D2*
X2476954D1*
X5245266D2*
X5495977D1*
X6293625D2*
X6741212D1*
X5379615Y1990050D2*
X5495977D1*
X5681854D2*
X6121967D1*
X6293625D2*
X6741212D1*
X3424354Y1926883D2*
X3469988D1*
X5379615D2*
X5503087D1*
X5674745D2*
X6121967D1*
X6293625D2*
X6741212D1*
X3424354Y1863717D2*
X3559402D1*
X5437766D2*
X5503087D1*
X5674745D2*
X6121967D1*
X6293625D2*
X6741212D1*
X1070696Y1800550D2*
X1101976D1*
X1399641D2*
X1441811D1*
X3424354D2*
X3559402D1*
X5088222D2*
X5276589D1*
X5674745D2*
X6121967D1*
X6293625D2*
X6741212D1*
X1182714Y1737383D2*
X1417019D1*
X5088222D2*
X5318425D1*
X5674745D2*
X6121967D1*
X6293625D2*
X6741212D1*
X1201854Y1674217D2*
X1429506D1*
X1870865D2*
X1923516D1*
X5139992D2*
X5441016D1*
X5674745D2*
X6121967D1*
X6293625D2*
X6741212D1*
X1161112Y1611050D2*
X1300808D1*
X1462805D2*
X1520287D1*
X2539693D2*
X2588152D1*
X5139992D2*
X5476928D1*
X5674745D2*
X6121967D1*
X6293625D2*
X6741212D1*
X1070696Y1547883D2*
X1295066D1*
X1468547D2*
X1549910D1*
X2551177D2*
X2588152D1*
X3928026D2*
X3962358D1*
X4546360D2*
X4620157D1*
X5139992D2*
X5413764D1*
X5651229D2*
X6121967D1*
X6293625D2*
X6741212D1*
X1070696Y1484717D2*
X1529858D1*
X3928026D2*
X3962358D1*
X4535240D2*
X4620157D1*
X4916685D2*
X5354519D1*
X5841724D2*
X6065001D1*
X6289888D2*
X6741212D1*
X1070696Y1421550D2*
X1549363D1*
X1765956D2*
X1803204D1*
X1957909D2*
X2228126D1*
X2376998D2*
X2483061D1*
X3928026D2*
X3962358D1*
X4321867D2*
X4403959D1*
X4884146D2*
X5344128D1*
X5524901D2*
X5560873D1*
X5841724D2*
X6001837D1*
X6239302D2*
X6741212D1*
X1070696Y1358383D2*
X1577891D1*
X3928755D2*
X3966733D1*
X4182688D2*
X4264141D1*
X4309703D2*
X4391108D1*
X4436711D2*
X4467123D1*
X5040461D2*
X5344128D1*
X5841724D2*
X5938673D1*
X6176138D2*
X7138061D1*
X1070696Y1295217D2*
X1641055D1*
X2602492D2*
X2624519D1*
X2772571D2*
X3488490D1*
X4517011D2*
X4547149D1*
X6112974D2*
X7138061D1*
X1070696Y1232050D2*
X1479818D1*
X1601255D2*
X1679792D1*
X2807753D2*
X3453308D1*
X4522662D2*
X4547149D1*
X6049810D2*
X7138061D1*
X1070696Y1168883D2*
X1424037D1*
X2808938D2*
X3452123D1*
X4480461D2*
X4547149D1*
X4820435D2*
X4850118D1*
X5986646D2*
X7138061D1*
X1070696Y1105717D2*
X1418751D1*
X1862388D2*
X1968998D1*
X2570318D2*
X2592672D1*
X2804380D2*
X3456680D1*
X3668443D2*
X5560873D1*
X5841724D2*
X7138061D1*
X5045148Y1849220D2*
X4942153D1*
X4983238Y1808210D1*
X5027053Y1807380D1*
X5081880D1*
Y1678773D1*
X5133630Y1678753D1*
Y1500593D1*
X4910388D1*
X4910494Y1486330D1*
X4908430Y1473299D1*
X4904353Y1460751D1*
X4898363Y1448995D1*
X4890608Y1438321D1*
X4881279Y1428992D1*
X4875087Y1424231D1*
X4903083Y1396243D1*
X4917420Y1399353D1*
X4937800Y1400957D1*
X4958180Y1399353D1*
X4978059Y1394580D1*
X4996946Y1386757D1*
X5014377Y1376075D1*
X5029922Y1362799D1*
X5043199Y1347253D1*
X5053880Y1329823D1*
X5061704Y1310935D1*
X5065439Y1296269D1*
X5360072Y1296253D1*
X5354335Y1309614D1*
X5351423Y1321742D1*
X5350446Y1334199D1*
X5350690Y1451536D1*
X5352641Y1463854D1*
X5356495Y1475716D1*
X5362157Y1486828D1*
X5369488Y1496918D1*
X5489218Y1616995D1*
X5509391Y1637168D1*
X5509300Y1646970D1*
X5496147Y1648005D1*
X5483318Y1651085D1*
X5471128Y1656134D1*
X5459879Y1663028D1*
X5449846Y1671596D1*
X5441278Y1681629D1*
X5434384Y1692878D1*
X5429335Y1705068D1*
X5426255Y1717897D1*
X5425220Y1731050D1*
X5426255Y1744203D1*
X5428348Y1753532D1*
X5415848Y1742401D1*
X5404598Y1735508D1*
X5392409Y1730459D1*
X5379580Y1727378D1*
X5366427Y1726343D1*
X5353274Y1727378D1*
X5340445Y1730459D1*
X5328255Y1735508D1*
X5317006Y1742401D1*
X5306973Y1750970D1*
X5298405Y1761002D1*
X5291511Y1772252D1*
X5286462Y1784441D1*
X5283382Y1797270D1*
X5282347Y1810423D1*
X5283382Y1823576D1*
X5286462Y1836405D1*
X5291392Y1848337D1*
X5045094Y1848346D1*
Y1849166D1*
X5501362Y1128095D2*
X5405220D1*
Y1246493D1*
X5386140Y1265559D1*
X5386131Y1118093D1*
X5057971D1*
Y1142975D1*
X4963365Y1142933D1*
X4948022Y1140798D1*
X4927578D1*
X4907387Y1143996D1*
X4887944Y1150314D1*
X4869729Y1159595D1*
X4853190Y1171611D1*
X4838734Y1186067D1*
X4826718Y1202606D1*
X4817437Y1220821D1*
X4814076Y1229931D1*
X4814081Y1140396D1*
X4553521D1*
Y1333352D1*
X4520013Y1333631D1*
X4510057Y1335208D1*
X4500470Y1338323D1*
X4491488Y1342900D1*
X4483333Y1348825D1*
X4368499Y1463379D1*
X4361952Y1471044D1*
X4359140Y1475255D1*
X4353090Y1474453D1*
X4348730Y1460751D1*
X4342740Y1448995D1*
X4334985Y1438321D1*
X4325656Y1428992D1*
X4314982Y1421237D1*
X4303226Y1415247D1*
X4290678Y1411170D1*
X4277647Y1409106D1*
X4264453D1*
X4251422Y1411170D1*
X4238874Y1415247D1*
X4227118Y1421237D1*
X4216444Y1428992D1*
X4211439Y1433644D1*
X4208141Y1419318D1*
X4203092Y1407128D1*
X4196199Y1395879D1*
X4187630Y1385846D1*
X4177598Y1377278D1*
X4166348Y1370384D1*
X4154159Y1365335D1*
X4142974Y1362582D1*
X4146729Y1358843D1*
X4159923Y1359680D1*
X4176330Y1358389D1*
X4192333Y1354547D1*
X4207538Y1348249D1*
X4223364Y1338236D1*
X4239309Y1348249D1*
X4254514Y1354547D1*
X4270516Y1358389D1*
X4286923Y1359680D1*
X4303330Y1358389D1*
X4319333Y1354547D1*
X4334538Y1348249D1*
X4350364Y1338236D1*
X4364996Y1347568D1*
X4377778Y1353255D1*
X4391203Y1357189D1*
X4405032Y1359302D1*
X4419019Y1359556D1*
X4432916Y1357946D1*
X4446475Y1354501D1*
X4459454Y1349281D1*
X4471624Y1342381D1*
X4482767Y1333923D1*
X4492685Y1324057D1*
X4501201Y1312958D1*
X4508165Y1300825D1*
X4513452Y1287873D1*
X4516968Y1274332D1*
X4518651Y1260444D1*
X4518388Y1245479D1*
X4516218Y1231659D1*
X4512229Y1218250D1*
X4506490Y1205492D1*
X4499104Y1193611D1*
X4490202Y1182819D1*
X4479944Y1173307D1*
X4468511Y1165245D1*
X4456106Y1158777D1*
X4442951Y1154017D1*
X4429280Y1151050D1*
X4415335Y1149930D1*
X4401365Y1150675D1*
X4387619Y1153272D1*
X4374341Y1157676D1*
X4361767Y1163808D1*
X4350429Y1171333D1*
X4334538Y1161351D1*
X4319333Y1155053D1*
X4303330Y1151211D1*
X4286923Y1149920D1*
X4270516Y1151211D1*
X4254514Y1155053D1*
X4239309Y1161351D1*
X4223483Y1171364D1*
X4207538Y1161351D1*
X4192333Y1155053D1*
X4176330Y1151211D1*
X4159923Y1149920D1*
X4143516Y1151211D1*
X4127514Y1155053D1*
X4112309Y1161351D1*
X4096483Y1171364D1*
X4080538Y1161351D1*
X4065333Y1155053D1*
X4049330Y1151211D1*
X4032923Y1149920D1*
X4016516Y1151211D1*
X4000514Y1155053D1*
X3985309Y1161351D1*
X3969483Y1171364D1*
X3953538Y1161351D1*
X3938333Y1155053D1*
X3922330Y1151211D1*
X3905923Y1149920D1*
X3889516Y1151211D1*
X3883806Y1152347D1*
X3883804Y1149920D1*
X3674044D1*
Y1265219D1*
X3640119Y1299162D1*
X3630145Y1295317D1*
X3641693Y1283769D1*
X3651293Y1270556D1*
X3658707Y1256004D1*
X3663754Y1240471D1*
X3666309Y1224340D1*
X3666631Y1136173D1*
X3665349Y1119892D1*
X3661536Y1104012D1*
X3655286Y1088923D1*
X3646752Y1074997D1*
X3637728Y1064290D1*
X5567146Y1064300D1*
X5567220Y1127743D1*
X5501733Y1128097D1*
X5835380Y1127752D2*
Y1064315D1*
X7144334Y1064300D1*
X7144423Y1381730D1*
X6774333Y1382191D1*
X6767150Y1384217D1*
X6760638Y1387864D1*
X6755157Y1392930D1*
X6751010Y1399136D1*
X6748427Y1406138D1*
X6747550Y1413550D1*
Y2218823D1*
X6352905Y2218747D1*
X6350774Y2211737D1*
X6350535Y2137564D1*
X6348584Y2125246D1*
X6344730Y2113384D1*
X6342105Y2107696D1*
X6341631Y2054719D1*
X6287216D1*
X6287035Y1502564D1*
X6285084Y1490246D1*
X6281230Y1478384D1*
X6275568Y1467272D1*
X6268237Y1457182D1*
X6148507Y1337105D1*
X5957793Y1146738D1*
X5947703Y1139407D1*
X5936591Y1133745D1*
X5924729Y1129891D1*
X5912411Y1127940D1*
X5835355Y1127695D1*
X5608327Y1511255D2*
X5835380D1*
Y1349106D1*
X5843110Y1341156D1*
X5850865Y1330482D1*
X5856855Y1318726D1*
X5860932Y1306178D1*
X5862996Y1293147D1*
X5863250Y1286679D1*
X5882972Y1296374D1*
X6128333Y1541735D1*
X6128320Y2021131D1*
X6118559Y2012455D1*
X6109964Y2007188D1*
X6100651Y2003331D1*
X6090849Y2000977D1*
X6080800Y2000186D1*
X5758256Y2000384D1*
X5748300Y2001961D1*
X5738713Y2005076D1*
X5729731Y2009653D1*
X5721576Y2015578D1*
X5675528Y2061346D1*
X5675504Y1934219D1*
X5668486D1*
X5668158Y1598062D1*
X5666207Y1585744D1*
X5662353Y1573883D1*
X5656691Y1562770D1*
X5649360Y1552680D1*
X5608323Y1511297D1*
X5567220Y1366415D2*
Y1470139D1*
X5509457Y1412431D1*
X5509405Y1367006D1*
X5567259Y1366331D1*
X2594478Y1628970D2*
X2533301D1*
X2533310Y1559454D1*
X2594477Y1498222D1*
X2602393Y1499244D1*
X2597346Y1514777D1*
X2594791Y1530908D1*
X2594470Y1629035D1*
X5151004Y2300137D2*
Y2232872D1*
X5182754Y2232879D1*
Y2112840D1*
X5195552Y2107586D1*
X5206801Y2100692D1*
X5216834Y2092124D1*
X5225402Y2082091D1*
X5232296Y2070842D1*
X5237345Y2058652D1*
X5240425Y2045823D1*
X5241460Y2032670D1*
X5241218Y2026511D1*
X5373254Y2026506D1*
Y1894217D1*
X5386055Y1892180D1*
X5398603Y1888103D1*
X5410358Y1882113D1*
X5421032Y1874358D1*
X5430362Y1865029D1*
X5438117Y1854355D1*
X5444106Y1842599D1*
X5448184Y1830051D1*
X5450247Y1817020D1*
Y1803826D1*
X5447379Y1787941D1*
X5459879Y1799072D1*
X5471128Y1805966D1*
X5483318Y1811015D1*
X5496147Y1814095D1*
X5509429Y1815125D1*
X5509443Y1934155D1*
X5502344Y1934219D1*
Y2147379D1*
X5619649D1*
X5607171Y2164219D1*
X5597344D1*
Y2305586D1*
X5586077Y2296588D1*
X5585819Y2263568D1*
X5583556Y2249281D1*
X5580506Y2239370D1*
X5580504Y2164219D1*
X5423824D1*
X5423757Y2073470D1*
X5245597D1*
Y2229629D1*
X5230823Y2229499D1*
X5217792Y2231563D1*
X5205244Y2235640D1*
X5193488Y2241630D1*
X5182814Y2249385D1*
X5173485Y2258714D1*
X5165730Y2269388D1*
X5159740Y2281144D1*
X5155225Y2295892D1*
X3565720Y1753120D2*
Y1896182D1*
X3528636Y1896381D1*
X3518680Y1897958D1*
X3509093Y1901073D1*
X3500111Y1905650D1*
X3491956Y1911575D1*
X3418066Y1985185D1*
X3418004Y1780719D1*
X3391116D1*
X3385895Y1772164D1*
X3379333Y1764485D1*
X3380594Y1762903D1*
X3533841D1*
Y1749104D1*
X3546268Y1751873D1*
X3562550Y1753154D1*
X3565708Y1753030D1*
X4626528Y1520846D2*
X4626471Y1658021D1*
X4624380Y1661948D1*
X4624744Y1645076D1*
X4622680Y1632045D1*
X4618603Y1619497D1*
X4612613Y1607742D1*
X4604858Y1597068D1*
X4595529Y1587738D1*
X4584855Y1579983D1*
X4573099Y1573994D1*
X4560551Y1569916D1*
X4553641Y1568577D1*
X4545449Y1554629D1*
X4536880Y1544596D1*
X4526848Y1536028D1*
X4515598Y1529134D1*
X4503409Y1524085D1*
X4492346Y1521230D1*
X4551705Y1461871D1*
X4626499Y1461913D1*
X4626471Y1520838D1*
X1876007Y2143044D2*
Y2001257D1*
X1885716Y2013267D1*
X1895963Y2023515D1*
X1901095Y2037214D1*
X1901097Y2143091D1*
X1876068Y2143060D1*
X2563719Y1241006D2*
X2564007Y1227006D1*
Y1064311D1*
X2623318Y1064300D1*
X2614348Y1074997D1*
X2605814Y1088923D1*
X2599564Y1104012D1*
X2595751Y1119892D1*
X2594471Y1136206D1*
X2594791Y1224340D1*
X2597346Y1240471D1*
X2602393Y1256004D1*
X2609807Y1270556D1*
X2619407Y1283769D1*
X2630955Y1295317D1*
X2635794Y1299132D1*
X2600023Y1299146D1*
X2576402Y1275460D1*
X2573015Y1260568D1*
X2567966Y1248378D1*
X2563665Y1241010D1*
X3746663Y2737337D2*
X3669553D1*
X3632432Y2700209D1*
X3736459Y2700167D1*
X3746634Y2736233D1*
X3746631Y2736214D1*
X6591754Y2784951D2*
Y2744096D1*
X6363594D1*
Y2889109D1*
X6311747Y2889186D1*
X6311754Y2750835D1*
X6360381Y2750879D1*
Y2687970D1*
X6815470D1*
Y2683504D1*
X7144497Y2683550D1*
X7144423Y2937542D1*
X7056499Y2937550D1*
X7066334Y2925301D1*
X7075733Y2909196D1*
X7082467Y2891807D1*
X7086367Y2873573D1*
X7087380Y2858173D1*
X7085901Y2839585D1*
X7081503Y2821464D1*
X7074295Y2804267D1*
X7064458Y2788425D1*
X7052241Y2774337D1*
X7037951Y2762358D1*
X7021946Y2752789D1*
X7004630Y2745871D1*
X6986438Y2741776D1*
X6967828Y2740610D1*
X6949267Y2742400D1*
X6931222Y2747102D1*
X6914148Y2754598D1*
X6898473Y2764698D1*
X6884593Y2777150D1*
X6877799Y2784982D1*
X6591701Y2784970D1*
X4783697Y2887005D2*
X4822131D1*
Y2836966D1*
X4905057Y2837005D1*
X4904971Y2887005D1*
X4957379D1*
X4966140Y2897988D1*
X5003517Y2935365D1*
X4982840Y2937550D1*
X4768921D1*
X4774589Y2928098D1*
X4779638Y2915909D1*
X4782718Y2903080D1*
X4783639Y2887015D1*
X5118131Y2800872D2*
Y2638845D1*
X5085409D1*
X5084345Y2622774D1*
X5081265Y2609945D1*
X5078256Y2602182D1*
X5096691Y2583758D1*
X5159985Y2583753D1*
X5184320Y2608170D1*
X5184347Y2800840D1*
X5118110Y2800847D1*
X2857677Y2225253D2*
X2873992D1*
X2873943Y2259233D1*
X2864186Y2250578D1*
X2855591Y2245311D1*
X2846278Y2241454D1*
X2836476Y2239101D1*
X2826407Y2238310D1*
X2721518D1*
X2728713Y2225266D1*
X2857677Y2225253D1*
X2483405Y2012969D2*
X2483347Y2106758D1*
X2467309Y2091829D1*
X2458714Y2086562D1*
X2449401Y2082704D1*
X2439599Y2080351D1*
X2429530Y2079561D1*
X2403209Y2079560D1*
X2403131Y2017450D1*
X2409216Y2007345D1*
X2415182Y1991904D1*
X2483313Y1991879D1*
X2483347Y2013034D1*
X2312305Y2758347D2*
X2253060D1*
X2253131Y2731929D1*
X2609823Y2731917D1*
X2600361Y2741813D1*
X2588345Y2758352D1*
X2579064Y2776567D1*
X2572746Y2796010D1*
X2569548Y2816202D1*
Y2836645D1*
X2572746Y2856837D1*
X2577971Y2873318D1*
X2433943Y2873310D1*
X2442456Y2859982D1*
X2447505Y2847792D1*
X2450585Y2834963D1*
X2451620Y2821810D1*
X2450585Y2808657D1*
X2447505Y2795828D1*
X2442456Y2783638D1*
X2435562Y2772389D1*
X2426994Y2762356D1*
X2416961Y2753788D1*
X2405712Y2746894D1*
X2393522Y2741845D1*
X2380693Y2738765D1*
X2367540Y2737730D1*
X2354387Y2738765D1*
X2341558Y2741845D1*
X2329368Y2746894D1*
X2318119Y2753788D1*
X2312423Y2758348D1*
X1101220Y2827170D2*
X1101311Y2925880D1*
X1086173Y2937550D1*
X1064389D1*
X1064351Y2772973D1*
X1066704Y2782775D1*
X1070561Y2792088D1*
X1075828Y2800683D1*
X1082390Y2808362D1*
X1101259Y2827232D1*
X3458471Y1216142D2*
X3459751Y1232456D1*
X3463564Y1248337D1*
X3469814Y1263425D1*
X3478348Y1277351D1*
X3488954Y1289770D1*
X3499794Y1299132D1*
X2761351Y1299146D1*
X2772146Y1289770D1*
X2782752Y1277351D1*
X2791286Y1263425D1*
X2797536Y1248337D1*
X2801349Y1232456D1*
X2802630Y1216174D1*
X2802309Y1128008D1*
X2799754Y1111877D1*
X2794707Y1096344D1*
X2787293Y1081793D1*
X2777693Y1068580D1*
X2773728Y1064290D1*
X3487198Y1064300D1*
X3478348Y1074997D1*
X3469814Y1088923D1*
X3463564Y1104012D1*
X3459751Y1119892D1*
X3458471Y1136206D1*
Y1215744D1*
X3921659Y1358468D2*
X3938333Y1354547D1*
X3953538Y1348249D1*
X3969364Y1338236D1*
X3980060Y1345309D1*
X3973573Y1357216D1*
X3970458Y1366803D1*
X3968881Y1376760D1*
X3968683Y1556423D1*
X3969474Y1566473D1*
X3971827Y1576275D1*
X3975685Y1585588D1*
X3980964Y1594198D1*
X3980778Y1602252D1*
X3975384Y1610824D1*
X3961052Y1597647D1*
X3952118Y1592172D1*
X3942436Y1588161D1*
X3932247Y1585715D1*
X3921709Y1584893D1*
X3921660Y1358444D1*
X3028242Y2719848D2*
X3012573Y2710343D1*
X2993685Y2702520D1*
X2989340Y2701294D1*
X3111439Y2579210D1*
X3111631Y2625090D1*
X3112173Y2631220D1*
X3099020Y2632255D1*
X3086191Y2635335D1*
X3074002Y2640384D1*
X3062752Y2647278D1*
X3052720Y2655846D1*
X3044151Y2665879D1*
X3037258Y2677128D1*
X3032209Y2689318D1*
X3029128Y2702147D1*
X3028093Y2715300D1*
X3028271Y2719810D1*
X1853131Y2677009D2*
Y2674719D1*
X1733638D1*
X1612240Y2552858D1*
X1618230Y2541103D1*
X1622307Y2528555D1*
X1624371Y2515524D1*
Y2502330D1*
X1622307Y2489299D1*
X1618230Y2476751D1*
X1612240Y2464995D1*
X1604485Y2454321D1*
X1595156Y2444992D1*
X1584482Y2437237D1*
X1572726Y2431247D1*
X1560178Y2427170D1*
X1547147Y2425106D1*
X1533953D1*
X1520922Y2427170D1*
X1508374Y2431247D1*
X1496618Y2437237D1*
X1485944Y2444992D1*
X1476615Y2454321D1*
X1468860Y2464995D1*
X1462870Y2476751D1*
X1458793Y2489299D1*
X1456729Y2502330D1*
Y2515524D1*
X1458793Y2528555D1*
X1460525Y2535224D1*
X1452770Y2545898D1*
X1446780Y2557654D1*
X1442703Y2570202D1*
X1440639Y2583233D1*
Y2596427D1*
X1442703Y2609458D1*
X1446780Y2622006D1*
X1452770Y2633762D1*
X1460525Y2644436D1*
X1469854Y2653765D1*
X1480528Y2661520D1*
X1492284Y2667510D1*
X1504832Y2671587D1*
X1517863Y2673651D1*
X1531057D1*
X1544088Y2671587D1*
X1529797Y2674719D1*
X1453326D1*
X1453092Y2646210D1*
X1451515Y2636253D1*
X1448400Y2626666D1*
X1443824Y2617685D1*
X1437899Y2609529D1*
X1400767Y2572118D1*
X1398767Y2559582D1*
X1394690Y2547034D1*
X1388700Y2535278D1*
X1380945Y2524604D1*
X1371616Y2515275D1*
X1360942Y2507520D1*
X1347468Y2500896D1*
X1348130Y2488800D1*
X1346787Y2471736D1*
X1342791Y2455092D1*
X1336241Y2439279D1*
X1327298Y2424684D1*
X1317430Y2413020D1*
X1677182Y2413010D1*
X1687473Y2425504D1*
X1697506Y2434072D1*
X1708755Y2440966D1*
X1720945Y2446015D1*
X1733774Y2449095D1*
X1746927Y2450130D1*
X1760080Y2449095D1*
X1772909Y2446015D1*
X1785098Y2440966D1*
X1796348Y2434072D1*
X1806380Y2425504D1*
X1814949Y2415471D1*
X1821842Y2404222D1*
X1826891Y2392032D1*
X1829972Y2379203D1*
X1831007Y2366050D1*
X1829972Y2352897D1*
X1826891Y2340068D1*
X1821842Y2327878D1*
X1814949Y2316629D1*
X1806380Y2306596D1*
X1796348Y2298028D1*
X1785098Y2291134D1*
X1772909Y2286085D1*
X1760080Y2283005D1*
X1746927Y2281970D1*
X1733774Y2283005D1*
X1726480Y2284524D1*
X1460493Y2284530D1*
X1464845Y2268080D1*
X1465880Y2254927D1*
X1464845Y2241774D1*
X1461765Y2228945D1*
X1456716Y2216755D1*
X1449822Y2205506D1*
X1441254Y2195473D1*
X1431221Y2186905D1*
X1419972Y2180011D1*
X1407782Y2174962D1*
X1394953Y2171882D1*
X1381800Y2170847D1*
X1368647Y2171882D1*
X1355818Y2174962D1*
X1343628Y2180011D1*
X1332379Y2186905D1*
X1322346Y2195473D1*
X1313778Y2205506D1*
X1306884Y2216755D1*
X1301835Y2228945D1*
X1298755Y2241774D1*
X1297720Y2254927D1*
X1298755Y2268080D1*
X1301835Y2280909D1*
X1303165Y2284514D1*
X1189160Y2284728D1*
X1179203Y2286305D1*
X1169616Y2289420D1*
X1160635Y2293996D1*
X1152479Y2299922D1*
X1078951Y2373449D1*
X1073026Y2381604D1*
X1068450Y2390586D1*
X1065335Y2400173D1*
X1064348Y2405140D1*
X1064300Y2040797D1*
X1074232Y2059001D1*
X1083266Y2072521D1*
X1093333Y2085290D1*
X1104370Y2097230D1*
X1116310Y2108267D1*
X1129079Y2118334D1*
X1142599Y2127368D1*
X1156786Y2135313D1*
X1171553Y2142120D1*
X1186808Y2147748D1*
X1202457Y2152162D1*
X1218405Y2155334D1*
X1234552Y2157245D1*
X1250800Y2157883D1*
X1267048Y2157245D1*
X1283195Y2155334D1*
X1299143Y2152162D1*
X1314792Y2147748D1*
X1330047Y2142120D1*
X1344814Y2135313D1*
X1359001Y2127368D1*
X1372521Y2118334D1*
X1385290Y2108267D1*
X1397230Y2097230D1*
X1408267Y2085290D1*
X1418334Y2072521D1*
X1427368Y2059001D1*
X1435313Y2044814D1*
X1444560Y2023433D1*
X1445351Y2042723D1*
X1447704Y2052525D1*
X1451561Y2061838D1*
X1456828Y2070433D1*
X1463390Y2078112D1*
X1641706Y2256149D1*
X1649861Y2262074D1*
X1658843Y2266650D1*
X1668430Y2269765D1*
X1678386Y2271342D1*
X1894976Y2271540D1*
X1969384Y2345984D1*
X1961438Y2355339D1*
X1954544Y2366588D1*
X1949096Y2380193D1*
X1930492Y2380056D1*
X1913586Y2382734D1*
X1897307Y2388023D1*
X1882056Y2395794D1*
X1868208Y2405855D1*
X1856105Y2417958D1*
X1846044Y2431806D1*
X1838273Y2447057D1*
X1832984Y2463336D1*
X1830306Y2480242D1*
Y2497358D1*
X1832984Y2514264D1*
X1838273Y2530543D1*
X1846044Y2545794D1*
X1856105Y2559642D1*
X1868208Y2571745D1*
X1882056Y2581806D1*
X1897307Y2589577D1*
X1913586Y2594866D1*
X1930492Y2597544D1*
X1947608D1*
X1964514Y2594866D1*
X1980793Y2589577D1*
X1996044Y2581806D1*
X2009892Y2571745D1*
X2021995Y2559642D1*
X2032056Y2545794D1*
X2039827Y2530543D1*
X2045116Y2514264D1*
X2047794Y2497358D1*
X2048050Y2486761D1*
X2061636Y2482440D1*
X2073392Y2476450D1*
X2084066Y2468695D1*
X2093443Y2459305D1*
X2107010Y2461842D1*
X2223173Y2462040D1*
X2233242Y2461246D1*
X2239485Y2464086D1*
X2248814Y2473415D1*
X2259488Y2481170D1*
X2271244Y2487160D1*
X2283792Y2491237D1*
X2296823Y2493301D1*
X2310017D1*
X2323048Y2491237D1*
X2335596Y2487160D1*
X2347352Y2481170D1*
X2358026Y2473415D1*
X2367355Y2464086D1*
X2375110Y2453412D1*
X2381100Y2441656D1*
X2385177Y2429108D1*
X2387307Y2414402D1*
X2688704Y2414414D1*
X2746248Y2471971D1*
X2746310Y2623796D1*
X2737186Y2615705D1*
X2728591Y2610438D1*
X2719278Y2606581D1*
X2709476Y2604227D1*
X2699427Y2603437D1*
X1948260Y2603635D1*
X1938303Y2605212D1*
X1928716Y2608327D1*
X1919735Y2612903D1*
X1911579Y2618828D1*
X1853154Y2676973D1*
X1321711Y2674719D2*
X1224971D1*
Y2758665D1*
X1203104Y2747378D1*
X1192083Y2736357D1*
X1192040Y2587285D1*
X1205342Y2592541D1*
X1221986Y2596537D1*
X1235005Y2597721D1*
X1239330Y2611386D1*
X1245320Y2623142D1*
X1253075Y2633816D1*
X1262404Y2643145D1*
X1273078Y2650900D1*
X1284834Y2656890D1*
X1297382Y2660967D1*
X1309927Y2662973D1*
X1321663Y2674712D1*
X3772754Y1639340D2*
Y1406719D1*
X3721439D1*
X3767673Y1360492D1*
X3788096Y1380824D1*
X3788100Y1623961D1*
X3772778Y1639333D1*
X1975347Y1064299D2*
X1975186Y1155202D1*
X1966591Y1149935D1*
X1957278Y1146077D1*
X1947476Y1143724D1*
X1937427Y1142933D1*
X1857127D1*
X1858130Y1127800D1*
X1856682Y1109406D1*
X1852375Y1091466D1*
X1845315Y1074420D1*
X1839421Y1064296D1*
X1975271Y1064300D1*
X1989110Y1372753D2*
X2123641D1*
X2123720Y1411380D1*
X2291880D1*
Y1259257D1*
X2313743Y1281058D1*
X2313720Y1411380D1*
X2481880D1*
Y1369908D1*
X2511504Y1399445D1*
X2447798Y1463203D1*
X2426726Y1462753D1*
X2399294Y1435601D1*
X2391139Y1429676D1*
X2382157Y1425100D1*
X2372570Y1421985D1*
X2362614Y1420408D1*
X2247527Y1420210D1*
X2237477Y1421001D1*
X2227675Y1423354D1*
X2218362Y1427211D1*
X2209767Y1432478D1*
X2196624Y1444503D1*
X2043513Y1444758D1*
X2033557Y1446335D1*
X2023970Y1449450D1*
X2014988Y1454026D1*
X2006833Y1459951D1*
X1987467Y1479037D1*
X1980803Y1466365D1*
X1969959Y1451438D1*
X1956912Y1438391D1*
X1942375Y1427807D1*
X1956912Y1417209D1*
X1969959Y1404162D1*
X1980803Y1389235D1*
X1989192Y1372762D1*
X5989181Y2867879D2*
X6016078Y2868144D1*
X6036842Y2889188D1*
X5914534Y2889186D1*
X5921970Y2875146D1*
X5924567Y2867886D1*
X5989181Y2867879D1*
X3164570Y1998880D2*
X3404336Y1998879D1*
X3383007Y2000187D1*
X3170633Y2000385D1*
X3164507Y2000927D1*
X3164427Y1998891D1*
X1441679Y1064296D2*
X1435785Y1074420D1*
X1428725Y1091466D1*
X1424418Y1109406D1*
X1422970Y1127800D1*
X1424418Y1146194D1*
X1428725Y1164134D1*
X1435785Y1181180D1*
X1445426Y1196912D1*
X1457408Y1210942D1*
X1471438Y1222924D1*
X1487170Y1232565D1*
X1504216Y1239625D1*
X1522156Y1243932D1*
X1540550Y1245380D1*
X1558944Y1243932D1*
X1576884Y1239625D1*
X1593930Y1232565D1*
X1609662Y1222924D1*
X1623692Y1210942D1*
X1635674Y1196912D1*
X1640543Y1189625D1*
X1651141Y1204162D1*
X1664188Y1217209D1*
X1679115Y1228053D1*
X1695554Y1236430D1*
X1703302Y1239288D1*
X1571075Y1371833D1*
X1565149Y1379988D1*
X1560573Y1388970D1*
X1557458Y1398557D1*
X1555881Y1408513D1*
X1555683Y1438618D1*
X1548233Y1448995D1*
X1542244Y1460751D1*
X1538166Y1473299D1*
X1536103Y1486330D1*
Y1499524D1*
X1538166Y1512555D1*
X1542244Y1525103D1*
X1548233Y1536858D1*
X1555988Y1547532D1*
X1565318Y1556862D1*
X1575992Y1564617D1*
X1582525Y1568199D1*
X1576450Y1579466D1*
X1573335Y1589053D1*
X1571758Y1599010D1*
X1571560Y1614349D1*
X1558944Y1611668D1*
X1540550Y1610220D1*
X1522156Y1611668D1*
X1504216Y1615975D1*
X1487170Y1623035D1*
X1471438Y1632676D1*
X1457408Y1644658D1*
X1445426Y1658688D1*
X1435785Y1674420D1*
X1428725Y1691466D1*
X1424418Y1709406D1*
X1422970Y1727800D1*
X1424418Y1746194D1*
X1428725Y1764134D1*
X1435785Y1781180D1*
X1445426Y1796912D1*
X1457408Y1810942D1*
X1471438Y1822924D1*
X1487170Y1832565D1*
X1489823Y1833788D1*
X1459951Y1863956D1*
X1454026Y1872111D1*
X1449450Y1881093D1*
X1447698Y1885844D1*
X1435313Y1856786D1*
X1427368Y1842599D1*
X1418334Y1829079D1*
X1408267Y1816310D1*
X1397230Y1804370D1*
X1385290Y1793333D1*
X1372521Y1783266D1*
X1359001Y1774232D1*
X1344814Y1766287D1*
X1330047Y1759480D1*
X1314792Y1753852D1*
X1299143Y1749438D1*
X1283195Y1746266D1*
X1267048Y1744355D1*
X1250800Y1743717D1*
X1234552Y1744355D1*
X1218405Y1746266D1*
X1202457Y1749438D1*
X1186808Y1753852D1*
X1171553Y1759480D1*
X1156786Y1766287D1*
X1142599Y1774232D1*
X1129079Y1783266D1*
X1116310Y1793333D1*
X1104370Y1804370D1*
X1093333Y1816310D1*
X1083266Y1829079D1*
X1074232Y1842599D1*
X1064293Y1861112D1*
X1064300Y1752777D1*
X1079751Y1761103D1*
X1092299Y1765180D1*
X1105330Y1767244D1*
X1118524D1*
X1131555Y1765180D1*
X1144103Y1761103D1*
X1155858Y1755113D1*
X1166532Y1747358D1*
X1175862Y1738029D1*
X1183617Y1727355D1*
X1189606Y1715599D1*
X1193684Y1703051D1*
X1195747Y1690020D1*
Y1676826D1*
X1193684Y1663795D1*
X1189606Y1651247D1*
X1183617Y1639492D1*
X1175862Y1628818D1*
X1166532Y1619488D1*
X1155858Y1611733D1*
X1144103Y1605744D1*
X1131555Y1601666D1*
X1118524Y1599603D1*
X1105330D1*
X1092299Y1601666D1*
X1079751Y1605744D1*
X1067995Y1611733D1*
X1064285Y1614212D1*
X1064300Y1064261D1*
X1441521Y1064300D1*
X1766855Y1357505D2*
X1771920Y1372796D1*
X1780297Y1389235D1*
X1791141Y1404162D1*
X1804188Y1417209D1*
X1818725Y1427793D1*
X1804188Y1438391D1*
X1791141Y1451438D1*
X1789467Y1453562D1*
X1783195Y1443502D1*
X1774627Y1433470D1*
X1764594Y1424901D1*
X1753345Y1418008D1*
X1741155Y1412959D1*
X1728326Y1409878D1*
X1715457Y1408854D1*
X1766728Y1357598D1*
X1856805Y1710445D2*
X1852375Y1691466D1*
X1850990Y1687710D1*
X1894130Y1644582D1*
X1907999Y1642131D1*
X1925546Y1636430D1*
X1929902Y1634422D1*
X1929877Y1711215D1*
X1921217Y1711259D1*
Y1739059D1*
X1912656Y1730615D1*
X1901982Y1722860D1*
X1890226Y1716870D1*
X1877678Y1712793D1*
X1864647Y1710729D1*
X1856839Y1710518D1*
X3854302Y2335478D2*
X3850444Y2349617D1*
X3849593Y2360423D1*
X3850444Y2371230D1*
X3852974Y2381770D1*
X3857123Y2391785D1*
X3859994Y2397374D1*
X3855916Y2409922D1*
X3853853Y2422953D1*
Y2436147D1*
X3855916Y2449178D1*
X3861041Y2463998D1*
X3846178Y2458916D1*
X3833147Y2456853D1*
X3819953D1*
X3806922Y2458916D1*
X3794374Y2462994D1*
X3782618Y2468983D1*
X3771944Y2476738D1*
X3763508Y2485102D1*
X3751151Y2479577D1*
X3746277Y2478204D1*
X3747596Y2476030D1*
X3759352Y2470040D1*
X3770026Y2462285D1*
X3779355Y2452956D1*
X3787110Y2442282D1*
X3793100Y2430526D1*
X3797177Y2417978D1*
X3799241Y2404947D1*
Y2391753D1*
X3797177Y2378722D1*
X3793100Y2366174D1*
X3787110Y2354418D1*
X3779658Y2344129D1*
X3779660Y2324613D1*
X3851149Y2324663D1*
X3854302Y2335368D1*
X3661645Y2462940D2*
X3671488Y2470040D1*
X3684333Y2476431D1*
X3030803Y2462027D2*
X3027125Y2476477D1*
X3026407Y2482547D1*
X2877003Y2631948D1*
X2874790Y2613550D1*
X2874789Y2445404D1*
X2876252Y2443225D1*
X2883917Y2449772D1*
X2892512Y2455039D1*
X2901825Y2458896D1*
X2911627Y2461249D1*
X2921677Y2462040D1*
X3030778D1*
X1465621Y1565830D2*
X1463557Y1552799D1*
X1459480Y1540251D1*
X1453490Y1528495D1*
X1445735Y1517821D1*
X1436406Y1508492D1*
X1425732Y1500737D1*
X1413976Y1494747D1*
X1401428Y1490670D1*
X1388397Y1488606D1*
X1375203D1*
X1362172Y1490670D1*
X1349624Y1494747D1*
X1337868Y1500737D1*
X1327194Y1508492D1*
X1317865Y1517821D1*
X1310110Y1528495D1*
X1304120Y1540251D1*
X1300043Y1552799D1*
X1297979Y1565830D1*
Y1579024D1*
X1300043Y1592055D1*
X1304120Y1604603D1*
X1310110Y1616358D1*
X1317865Y1627032D1*
X1327194Y1636362D1*
X1337868Y1644117D1*
X1349624Y1650106D1*
X1362172Y1654184D1*
X1375203Y1656247D1*
X1388397D1*
X1401428Y1654184D1*
X1413976Y1650106D1*
X1425732Y1644117D1*
X1436406Y1636362D1*
X1445735Y1627032D1*
X1453490Y1616358D1*
X1459480Y1604603D1*
X1463557Y1592055D1*
X1465621Y1579024D1*
Y1565830D1*
X2572427Y1728050D2*
D15*
Y1629061D1*
X5051923Y2302550D2*
X5150913D1*
X3565812Y1810427D2*
X3664800D1*
X4626562Y1489927D2*
X4715550D1*
X5083673Y2143800D2*
X5182663D1*
X5274173Y2026415D2*
Y1848437D1*
Y1937427D2*
X5373163D1*
X5034550Y1589673D2*
Y1500684D1*
Y1589673D2*
X5133539D1*
X1746927Y2079800D2*
X1875916D1*
X2444927Y1111927D2*
X2563916D1*
X3450550Y1762812D2*
Y1651674D1*
X4413923Y1359589D2*
Y1150011D1*
Y1254800D2*
X4518712D1*
X3683673Y1635800D2*
X3772663D1*
X5287050Y1296162D2*
Y1118184D1*
Y1207173D2*
X5386040D1*
X1975438Y1143673D2*
X2064427D1*
X6969800Y2858173D2*
Y2740684D1*
Y2858173D2*
X7087289D1*
X3238923Y1998788D2*
Y1889800D1*
D21*
X4937800Y1953300D3*
Y1703300D3*
D23*
X5509300Y1207175D3*
Y1287175D3*
D24*
X5701300Y1082175D3*
Y1412175D3*
D25*
X2572427Y1858050D3*
Y1728050D3*
D26*
X4921923Y2302550D3*
X5051923D3*
X3794800Y1810427D3*
X3664800D3*
D25*
X4715550Y1619927D3*
Y1489927D3*
X3969427Y2556550D3*
Y2686550D3*
D26*
X4953673Y2143800D3*
X5083673D3*
X5144173Y1937427D3*
X5274173D3*
X4904550Y1589673D3*
X5034550D3*
D27*
X1746927Y1889800D3*
Y2079800D3*
D28*
X2254927Y1111927D3*
X2444927D3*
D26*
X6128423Y2334300D3*
X6258423D3*
D29*
X3778923Y2826417D3*
X3858923D3*
D30*
X3968923Y2836417D3*
X3668923D3*
D32*
X6477673Y2858177D3*
X6197673D3*
D33*
X4715550Y2762926D3*
X5011550D3*
D34*
X4863550Y2737926D3*
D28*
X2953423Y2096173D3*
X2763423D3*
D25*
X2572427Y2112050D3*
Y1982050D3*
D37*
X1984677Y2111673D3*
X2080677D3*
D38*
X2286300Y2841927D3*
Y2937927D3*
X1889423Y2841923D3*
Y2937923D3*
X1191300Y2842300D3*
Y2938300D3*
D43*
X2810550Y1651674D3*
X2890550D3*
D44*
X2955550D3*
X3005550Y1651657D3*
X3055550D3*
X3105550D3*
X3155550D3*
X3205550D3*
X3255550D3*
X3305550D3*
D43*
X3370550Y1651674D3*
X3450550D3*
D45*
X3562550Y1176174D3*
D47*
Y1594074D3*
D45*
X2698550Y1176174D3*
D47*
Y1594074D3*
D48*
X3778923Y1254800D3*
D50*
X3905923D3*
X4032923D3*
X4159923D3*
X4286923D3*
X4413923D3*
D51*
X3461427Y2826423D3*
D52*
X3207427D3*
X2953427D3*
X2699427D3*
D51*
X4683800Y1270677D3*
D52*
X4937800D3*
D53*
X2239050Y2143800D3*
D54*
X2089050Y2823800D3*
X1689050Y2843800D3*
X1389050D3*
D56*
X5683923Y2270800D3*
X5493923D3*
X5588923Y2040800D3*
D58*
X5556923Y2572427D3*
X5651923D3*
X5746923D3*
Y2842427D3*
X5651923D3*
X5556923D3*
D56*
X5175927Y2477173D3*
X5365927D3*
X5270927Y2707173D3*
D26*
X2905800Y1921550D3*
X2775800D3*
X2778800Y1810427D3*
X2908800D3*
D25*
X2445427Y1762800D3*
Y1892800D3*
X3683673Y1635800D3*
Y1505800D3*
D26*
X5287050Y1207173D3*
X5157050D3*
D25*
X3445550Y2413673D3*
Y2543673D3*
X3572550Y2413673D3*
Y2543673D3*
X3255050Y2413673D3*
Y2543673D3*
D26*
X4334550Y2778800D3*
X4464550D3*
X4334550Y2683550D3*
X4464550D3*
D25*
X2302550Y1731050D3*
Y1861050D3*
X2064427Y1143673D3*
Y1273673D3*
D26*
X6112550Y2143800D3*
X6242550D3*
X6064927Y2778800D3*
X5934927D3*
D25*
X5890300Y2302550D3*
Y2172550D3*
X6001427Y2302550D3*
Y2172550D3*
X6271300Y2651800D3*
Y2521800D3*
D26*
X5144173Y2889927D3*
X5274173D3*
X4461550Y2874050D3*
X4331550D3*
D25*
X5334677Y2302550D3*
Y2172550D3*
D26*
X6779300Y2874050D3*
X6649300D3*
D25*
X5398177Y2728177D3*
Y2858177D3*
D60*
X6969800Y2858173D3*
D58*
X3143923Y1889800D3*
X3238923D3*
X3333923D3*
Y2159800D3*
X3238923D3*
X3143923D3*
D60*
X1540550Y1127800D3*
X1740550D3*
X1880550Y1327800D3*
X1540550Y1727800D3*
X1740550D3*
X1880550Y1527800D3*
D67*
X4636173Y1810423D3*
Y1860423D3*
Y1910423D3*
Y1960423D3*
Y2010423D3*
Y2060423D3*
Y2110423D3*
Y2160423D3*
Y2210423D3*
Y2260423D3*
Y2310423D3*
Y2360423D3*
D68*
X4566173Y2430423D3*
X4516173D3*
X4466173D3*
X4416173D3*
X4366173D3*
X4316173D3*
X4266173D3*
X4216173D3*
X4166173D3*
X4116173D3*
X4066173D3*
X4016173D3*
D67*
X3946173Y2360423D3*
Y2310423D3*
Y2260423D3*
Y2210423D3*
Y2160423D3*
Y2110423D3*
Y2060423D3*
Y2010423D3*
Y1960423D3*
Y1910423D3*
Y1860423D3*
X3946160Y1810423D3*
D68*
X4016173Y1740423D3*
X4066173D3*
X4116173D3*
X4166173D3*
X4216173D3*
X4266173D3*
X4316173D3*
X4366173D3*
X4416173D3*
X4466173D3*
X4516173D3*
X4566173D3*
D69*
X4291167Y2085423D3*
D58*
X2397800Y1572300D3*
X2302800D3*
X2207800D3*
Y1302300D3*
X2397800D3*
D63*
X2127927Y1921550D3*
X2062927D3*
X1997927D3*
Y1713270D3*
X2062927D3*
X2127927D3*
D64*
X2114997Y1817410D3*
X2010857D3*
D73*
X6033173Y2493050D3*
Y2621050D3*
D74*
X5983173Y2493050D3*
X6083173D3*
Y2621050D3*
X5983173D3*
D75*
X6076673Y2557050D3*
X5989673D3*
M02*
