G04 DipTrace 3.3.1.3*
G04 TNC3L_B005_BottomPaste.gbr*
%MOMM*%
G04 #@! TF.FileFunction,Paste,Bot*
G04 #@! TF.Part,Single*
%ADD61R,0.7112X1.4986*%
%ADD62R,1.4986X0.7112*%
%ADD63R,0.2794X0.6858*%
%ADD64R,0.7112X1.0414*%
%ADD70R,0.4572X1.524*%
%ADD71R,0.3556X1.4097*%
%ADD115R,0.9476X0.8476*%
%ADD117R,0.4476X0.9476*%
%ADD145R,0.8476X0.7976*%
%ADD151R,0.3476X0.6976*%
%ADD163R,1.1476X1.3476*%
%ADD167R,0.7476X0.5476*%
%ADD169R,0.5476X0.7476*%
%FSLAX35Y35*%
G04*
G71*
G90*
G75*
G01*
G04 BotPaste*
%LPD*%
D167*
X3382050Y1254800D3*
X3252050D3*
D169*
X6253927Y1240427D3*
Y1110427D3*
D167*
X4017050Y2667677D3*
X4147050D3*
X1143673Y2889927D3*
X1273673D3*
X1842173Y2778800D3*
X1972173D3*
X1842173Y2889927D3*
X1972173D3*
X1842173Y2667673D3*
X1972173D3*
X2874050Y2302550D3*
X3004050D3*
X2810550Y1937427D3*
X2940550D3*
D169*
X2381927Y2556550D3*
Y2686550D3*
D167*
X2874050Y2493050D3*
X3004050D3*
X2874050Y2397800D3*
X3004050D3*
D169*
X2223173Y2413677D3*
Y2283677D3*
X1111927Y1572300D3*
Y1442300D3*
X1113423Y1158050D3*
Y1288050D3*
D167*
X1858050Y2318427D3*
X1988050D3*
D169*
X4032927Y1826300D3*
Y1956300D3*
D163*
X2350173Y1286550D3*
X2160173D3*
D167*
X2318427Y1461173D3*
X2188427D3*
X2318427Y1572300D3*
X2188427D3*
X2318427Y1667550D3*
X2188427D3*
D151*
X1921550Y1873923D3*
X1791537D3*
X1856543Y2083923D3*
D169*
X4413927Y2842300D3*
Y2712300D3*
D145*
X2493050Y1381800D3*
Y1541800D3*
D167*
X3255050Y1143673D3*
X3385050D3*
X2937550Y1826300D3*
X2807550D3*
X1143673Y2667673D3*
X1273673D3*
X1143673Y2778800D3*
X1273673D3*
X3429673Y2413677D3*
X3559673D3*
X3429673Y2524800D3*
X3559673D3*
X3477300Y2032673D3*
X3607300D3*
X1540550Y2889927D3*
X1670550D3*
X3477300Y2143800D3*
X3607300D3*
X2937550Y2175550D3*
X2807550D3*
X2810550Y2048550D3*
X2940550D3*
D169*
X2493050Y2683550D3*
Y2553550D3*
D167*
X2620050Y2588300D3*
X2750050D3*
D169*
X2191427Y2683550D3*
Y2553550D3*
D167*
X2874050Y2588300D3*
X3004050D3*
D169*
X2286673Y2556550D3*
Y2686550D3*
D167*
X4017050Y2080300D3*
X3887050D3*
X4017050Y2207300D3*
X3887050D3*
X1858050D3*
X1988050D3*
D115*
X2239050Y1794550D3*
X2409050D3*
D61*
X7096763Y1425743D3*
X6986780D3*
D62*
X5001643Y1670853D3*
Y1780837D3*
Y1890817D3*
Y2000800D3*
Y2110783D3*
Y2220763D3*
Y2330747D3*
D61*
X6986780Y2575857D3*
X7096763D3*
X6256787Y1425743D3*
X6366767D3*
X6146803Y2575857D3*
Y1425743D3*
X6036820Y2575857D3*
Y1425743D3*
X5926840D3*
X5816857D3*
Y2575857D3*
X5926840D3*
X5706877Y1425743D3*
X5596893D3*
Y2575857D3*
X5706877D3*
X5486910Y1425743D3*
X5376930D3*
Y2575857D3*
X5486910D3*
X5156967Y1425743D3*
X5266947D3*
Y2575857D3*
X5156967D3*
D63*
X3175677Y2302550D3*
X3240677D3*
X3305677D3*
Y2094270D3*
X3240677D3*
X3175677D3*
D64*
X3188607Y2198410D3*
X3292747D3*
D70*
X1651673Y2302550D3*
X1586673D3*
X1521673D3*
X1456673D3*
Y2711270D3*
X1521673D3*
X1586673D3*
X1651673D3*
X2604173Y1969173D3*
X2539173D3*
X2474173D3*
X2409173D3*
Y2377893D3*
X2474173D3*
X2539173D3*
X2604173D3*
D117*
X1477050Y1302427D3*
X1382050D3*
X1287050D3*
Y1572427D3*
X1477050D3*
D71*
X4191673Y2429550D3*
X4256670D3*
X4321670D3*
X4386667D3*
Y1839003D3*
X4321670D3*
X4256670D3*
X4191673D3*
M02*
