G04 DipTrace 3.3.1.3*
G04 TNC3L_B005_BottomSilk.gbr*
%MOMM*%
G04 #@! TF.FileFunction,Legend,Bot*
G04 #@! TF.Part,Single*
%ADD10C,0.25*%
%ADD35O,0.39154X0.39176*%
%ADD41C,0.1524*%
%ADD57O,0.39118X0.39103*%
%ADD176C,0.07843*%
%FSLAX35Y35*%
G04*
G71*
G90*
G75*
G01*
G04 BotSilk*
%LPD*%
X2455227Y1221600D2*
D10*
Y1351500D1*
D35*
X1989892Y1866558D3*
X1956555Y1953937D2*
D10*
X1756538D1*
Y2003910D1*
X1956555D1*
Y1953937D1*
X4438917Y2917207D2*
X4388937D1*
X3613827Y2978823D2*
X2572427D1*
Y2674023D1*
X3613827D1*
Y2978823D1*
X3461470Y2667683D2*
X3524891Y2572423D1*
X3397944D1*
X3461470Y2667683D1*
X4964271Y1388643D2*
D41*
X5088030D1*
X7189220D2*
Y2612957D1*
X7165690D1*
X4964271D2*
Y2399632D1*
X7165690Y1388643D2*
X7189220D1*
X4964271Y1601968D2*
Y1388643D1*
X6917945Y2612957D2*
X6215663D1*
X6435579Y1388643D2*
X6917945D1*
X5088030Y2612957D2*
X4964271D1*
X3361327Y2142235D2*
Y2077754D1*
X3120027Y2254585D2*
Y2319066D1*
X3361327D2*
Y2254585D1*
X3120027Y2077754D2*
Y2142235D1*
X1391473Y2344185D2*
Y2669635D1*
X1716873D2*
Y2344185D1*
X2343973Y2010809D2*
Y2336258D1*
X2669373D2*
Y2010809D1*
D57*
X1545411Y1260198D3*
X1532044Y1397525D2*
D10*
X1232050D1*
X1532044Y1477511D2*
X1232050D1*
Y1397525D2*
Y1477511D1*
X1532044Y1397525D2*
Y1477511D1*
X4140607Y1896753D2*
D41*
X4121530D1*
X4437733Y2371800D2*
X4456810D1*
Y1896753D1*
X4437733D1*
X4121530D2*
Y2371800D1*
X4140607D1*
X3101439Y1272689D2*
D176*
X3103854Y1277518D1*
X3108739Y1282403D1*
X3113568Y1284818D1*
X3123283D1*
X3128168Y1282403D1*
X3132998Y1277518D1*
X3135468Y1272689D1*
X3137883Y1265389D1*
Y1253203D1*
X3135468Y1245960D1*
X3132998Y1241074D1*
X3128168Y1236245D1*
X3123283Y1233774D1*
X3113568D1*
X3108739Y1236245D1*
X3103854Y1241074D1*
X3101439Y1245960D1*
X3083282Y1272633D2*
Y1275047D1*
X3080868Y1279933D1*
X3078453Y1282347D1*
X3073568Y1284762D1*
X3063853D1*
X3059024Y1282347D1*
X3056609Y1279933D1*
X3054138Y1275047D1*
Y1270218D1*
X3056609Y1265333D1*
X3061438Y1258089D1*
X3085753Y1233774D1*
X3051724D1*
X6156661Y1182035D2*
X6151832Y1184449D1*
X6146947Y1189335D1*
X6144532Y1194164D1*
Y1203878D1*
X6146947Y1208764D1*
X6151832Y1213593D1*
X6156661Y1216064D1*
X6163961Y1218478D1*
X6176147D1*
X6183391Y1216064D1*
X6188276Y1213593D1*
X6193105Y1208764D1*
X6195576Y1203878D1*
Y1194164D1*
X6193105Y1189334D1*
X6188276Y1184449D1*
X6183391Y1182035D1*
X6144588Y1154219D2*
X6147003Y1161463D1*
X6151832Y1163934D1*
X6156718D1*
X6161547Y1161463D1*
X6164018Y1156634D1*
X6166432Y1146919D1*
X6168847Y1139619D1*
X6173732Y1134790D1*
X6178561Y1132375D1*
X6185861D1*
X6190691Y1134790D1*
X6193161Y1137205D1*
X6195576Y1144505D1*
Y1154219D1*
X6193161Y1161463D1*
X6190691Y1163934D1*
X6185861Y1166348D1*
X6178561D1*
X6173732Y1163934D1*
X6168847Y1159048D1*
X6166432Y1151805D1*
X6164017Y1142090D1*
X6161547Y1137205D1*
X6156717Y1134790D1*
X6151832D1*
X6147003Y1137205D1*
X6144588Y1144505D1*
Y1154219D1*
X4150979Y2764942D2*
X4153393Y2769771D1*
X4158279Y2774657D1*
X4163108Y2777071D1*
X4172822D1*
X4177708Y2774657D1*
X4182537Y2769771D1*
X4185008Y2764942D1*
X4187422Y2757642D1*
Y2745457D1*
X4185008Y2738213D1*
X4182537Y2733327D1*
X4177708Y2728498D1*
X4172822Y2726027D1*
X4163108D1*
X4158279Y2728498D1*
X4153393Y2733327D1*
X4150979Y2738213D1*
X4103678Y2760057D2*
X4106148Y2752757D1*
X4110978Y2747871D1*
X4118278Y2745457D1*
X4120692D1*
X4127992Y2747871D1*
X4132821Y2752757D1*
X4135292Y2760057D1*
Y2762471D1*
X4132821Y2769771D1*
X4127992Y2774601D1*
X4120692Y2777015D1*
X4118278D1*
X4110978Y2774601D1*
X4106148Y2769771D1*
X4103678Y2760057D1*
Y2747871D1*
X4106148Y2735742D1*
X4110978Y2728442D1*
X4118278Y2726027D1*
X4123107D1*
X4130407Y2728442D1*
X4132821Y2733327D1*
X1165745Y2971319D2*
X1168160Y2976148D1*
X1173045Y2981033D1*
X1177874Y2983448D1*
X1187589D1*
X1192474Y2981033D1*
X1197303Y2976148D1*
X1199774Y2971319D1*
X1202189Y2964019D1*
Y2951833D1*
X1199774Y2944590D1*
X1197303Y2939704D1*
X1192474Y2934875D1*
X1187589Y2932404D1*
X1177874D1*
X1173045Y2934875D1*
X1168160Y2939704D1*
X1165745Y2944590D1*
X1150059Y2973677D2*
X1145173Y2976148D1*
X1137873Y2983392D1*
Y2932404D1*
X1107587Y2983392D2*
X1114887Y2980977D1*
X1119772Y2973677D1*
X1122187Y2961548D1*
Y2954248D1*
X1119772Y2942119D1*
X1114887Y2934819D1*
X1107587Y2932404D1*
X1102758D1*
X1095458Y2934819D1*
X1090629Y2942119D1*
X1088158Y2954248D1*
Y2961548D1*
X1090629Y2973677D1*
X1095458Y2980977D1*
X1102758Y2983392D1*
X1107587D1*
X1090629Y2973677D2*
X1119772Y2942119D1*
X2091446Y2796692D2*
X2093861Y2801521D1*
X2098746Y2806407D1*
X2103576Y2808821D1*
X2113290D1*
X2118176Y2806407D1*
X2123005Y2801521D1*
X2125476Y2796692D1*
X2127890Y2789392D1*
Y2777207D1*
X2125476Y2769963D1*
X2123005Y2765077D1*
X2118176Y2760248D1*
X2113290Y2757777D1*
X2103576D1*
X2098746Y2760248D1*
X2093861Y2765077D1*
X2091446Y2769963D1*
X2075760Y2799051D2*
X2070875Y2801521D1*
X2063575Y2808765D1*
Y2757777D1*
X2047888Y2799051D2*
X2043003Y2801521D1*
X2035703Y2808765D1*
Y2757777D1*
X2102375Y2907812D2*
X2104790Y2912641D1*
X2109675Y2917527D1*
X2114504Y2919941D1*
X2124219D1*
X2129104Y2917527D1*
X2133933Y2912641D1*
X2136404Y2907812D1*
X2138819Y2900512D1*
Y2888327D1*
X2136404Y2881083D1*
X2133933Y2876197D1*
X2129104Y2871368D1*
X2124219Y2868897D1*
X2114504D1*
X2109675Y2871368D1*
X2104790Y2876197D1*
X2102375Y2881083D1*
X2086689Y2910171D2*
X2081803Y2912641D1*
X2074503Y2919885D1*
Y2868897D1*
X2056346Y2907756D2*
Y2910171D1*
X2053932Y2915056D1*
X2051517Y2917471D1*
X2046632Y2919885D1*
X2036917D1*
X2032088Y2917471D1*
X2029673Y2915056D1*
X2027202Y2910171D1*
Y2905341D1*
X2029673Y2900456D1*
X2034502Y2893212D1*
X2058817Y2868897D1*
X2024788D1*
X1943618Y2606189D2*
X1946033Y2611018D1*
X1950918Y2615903D1*
X1955748Y2618318D1*
X1965462D1*
X1970348Y2615903D1*
X1975177Y2611018D1*
X1977648Y2606189D1*
X1980062Y2598889D1*
Y2586703D1*
X1977648Y2579460D1*
X1975177Y2574574D1*
X1970348Y2569745D1*
X1965462Y2567274D1*
X1955748D1*
X1950918Y2569745D1*
X1946033Y2574574D1*
X1943618Y2579460D1*
X1927932Y2608547D2*
X1923047Y2611018D1*
X1915747Y2618262D1*
Y2567274D1*
X1870917Y2618262D2*
X1895175D1*
X1897590Y2596418D1*
X1895175Y2598833D1*
X1887875Y2601303D1*
X1880631D1*
X1873331Y2598833D1*
X1868446Y2594003D1*
X1866031Y2586703D1*
Y2581874D1*
X1868446Y2574574D1*
X1873331Y2569689D1*
X1880631Y2567274D1*
X1887875D1*
X1895175Y2569689D1*
X1897590Y2572160D1*
X1900060Y2576989D1*
X2769094Y2320439D2*
X2771508Y2325268D1*
X2776394Y2330153D1*
X2781223Y2332568D1*
X2790937D1*
X2795823Y2330153D1*
X2800652Y2325268D1*
X2803123Y2320439D1*
X2805537Y2313139D1*
Y2300953D1*
X2803123Y2293710D1*
X2800652Y2288824D1*
X2795823Y2283995D1*
X2790937Y2281524D1*
X2781223D1*
X2776394Y2283995D1*
X2771508Y2288824D1*
X2769094Y2293710D1*
X2753407Y2322797D2*
X2748522Y2325268D1*
X2741222Y2332512D1*
Y2281524D1*
X2713406Y2332512D2*
X2720650Y2330097D1*
X2723121Y2325268D1*
Y2320383D1*
X2720650Y2315553D1*
X2715821Y2313083D1*
X2706106Y2310668D1*
X2698806Y2308253D1*
X2693977Y2303368D1*
X2691563Y2298539D1*
Y2291239D1*
X2693977Y2286410D1*
X2696392Y2283939D1*
X2703692Y2281524D1*
X2713406D1*
X2720650Y2283939D1*
X2723121Y2286410D1*
X2725536Y2291239D1*
Y2298539D1*
X2723121Y2303368D1*
X2718236Y2308253D1*
X2710992Y2310668D1*
X2701277Y2313083D1*
X2696392Y2315553D1*
X2693977Y2320383D1*
Y2325268D1*
X2696392Y2330097D1*
X2703692Y2332512D1*
X2713406D1*
X3085414Y1955319D2*
X3087829Y1960148D1*
X3092714Y1965033D1*
X3097544Y1967448D1*
X3107258D1*
X3112144Y1965033D1*
X3116973Y1960148D1*
X3119444Y1955319D1*
X3121858Y1948019D1*
Y1935833D1*
X3119444Y1928590D1*
X3116973Y1923704D1*
X3112144Y1918875D1*
X3107258Y1916404D1*
X3097544D1*
X3092714Y1918875D1*
X3087829Y1923704D1*
X3085414Y1928590D1*
X3069728Y1957677D2*
X3064843Y1960148D1*
X3057543Y1967392D1*
Y1916404D1*
X3010242Y1950433D2*
X3012713Y1943133D1*
X3017542Y1938248D1*
X3024842Y1935833D1*
X3027256D1*
X3034556Y1938248D1*
X3039386Y1943133D1*
X3041856Y1950433D1*
Y1952848D1*
X3039386Y1960148D1*
X3034556Y1964977D1*
X3027256Y1967392D1*
X3024842D1*
X3017542Y1964977D1*
X3012713Y1960148D1*
X3010242Y1950433D1*
Y1938248D1*
X3012713Y1926119D1*
X3017542Y1918819D1*
X3024842Y1916404D1*
X3029671D1*
X3036971Y1918819D1*
X3039386Y1923704D1*
X2364035Y2875294D2*
X2359206Y2877708D1*
X2354320Y2882594D1*
X2351906Y2887423D1*
X2351905Y2897138D1*
X2354320Y2902023D1*
X2359205Y2906852D1*
X2364035Y2909323D1*
X2371335Y2911737D1*
X2383520D1*
X2390764Y2909323D1*
X2395649Y2906852D1*
X2400478Y2902023D1*
X2402949Y2897137D1*
Y2887423D1*
X2400478Y2882594D1*
X2395649Y2877708D1*
X2390764Y2875294D1*
X2364091Y2857137D2*
X2361676D1*
X2356791Y2854722D1*
X2354376Y2852307D1*
X2351962Y2847422D1*
Y2837707D1*
X2354376Y2832878D1*
X2356791Y2830464D1*
X2361676Y2827993D1*
X2366506D1*
X2371391Y2830464D1*
X2378635Y2835293D1*
X2402949Y2859607D1*
Y2825578D1*
X2351962Y2795292D2*
X2354376Y2802592D1*
X2361676Y2807477D1*
X2373806Y2809892D1*
X2381106D1*
X2393235Y2807477D1*
X2400535Y2802592D1*
X2402949Y2795292D1*
Y2790463D1*
X2400535Y2783163D1*
X2393235Y2778334D1*
X2381105Y2775863D1*
X2373805D1*
X2361676Y2778334D1*
X2354376Y2783163D1*
X2351962Y2790463D1*
Y2795292D1*
X2361676Y2778334D2*
X2393235Y2807477D1*
X3165995Y2510942D2*
X3168410Y2515771D1*
X3173295Y2520657D1*
X3178124Y2523071D1*
X3187839D1*
X3192724Y2520657D1*
X3197553Y2515771D1*
X3200024Y2510942D1*
X3202439Y2503642D1*
Y2491457D1*
X3200024Y2484213D1*
X3197553Y2479327D1*
X3192724Y2474498D1*
X3187839Y2472027D1*
X3178124D1*
X3173295Y2474498D1*
X3168410Y2479327D1*
X3165995Y2484213D1*
X3147838Y2510886D2*
Y2513301D1*
X3145423Y2518186D1*
X3143009Y2520601D1*
X3138123Y2523015D1*
X3128409D1*
X3123579Y2520601D1*
X3121165Y2518186D1*
X3118694Y2513301D1*
Y2508471D1*
X3121165Y2503586D1*
X3125994Y2496342D1*
X3150309Y2472027D1*
X3116279D1*
X3100593Y2513301D2*
X3095708Y2515771D1*
X3088408Y2523015D1*
Y2472027D1*
X3176917Y2415689D2*
X3179332Y2420518D1*
X3184217Y2425403D1*
X3189046Y2427818D1*
X3198761D1*
X3203646Y2425403D1*
X3208475Y2420518D1*
X3210946Y2415689D1*
X3213361Y2408389D1*
Y2396203D1*
X3210946Y2388960D1*
X3208475Y2384074D1*
X3203646Y2379245D1*
X3198761Y2376774D1*
X3189046D1*
X3184217Y2379245D1*
X3179332Y2384074D1*
X3176917Y2388960D1*
X3158760Y2415633D2*
Y2418047D1*
X3156345Y2422933D1*
X3153931Y2425347D1*
X3149045Y2427762D1*
X3139331D1*
X3134501Y2425347D1*
X3132087Y2422933D1*
X3129616Y2418047D1*
Y2413218D1*
X3132087Y2408333D1*
X3136916Y2401089D1*
X3161231Y2376774D1*
X3127201D1*
X3109044Y2415633D2*
Y2418047D1*
X3106630Y2422933D1*
X3104215Y2425347D1*
X3099330Y2427762D1*
X3089615D1*
X3084786Y2425347D1*
X3082371Y2422933D1*
X3079901Y2418047D1*
Y2413218D1*
X3082371Y2408333D1*
X3087201Y2401089D1*
X3111515Y2376774D1*
X3077486D1*
X2284658Y2396047D2*
X2279829Y2398462D1*
X2274943Y2403347D1*
X2272529Y2408176D1*
Y2417891D1*
X2274943Y2422776D1*
X2279829Y2427605D1*
X2284658Y2430076D1*
X2291958Y2432491D1*
X2304143D1*
X2311387Y2430076D1*
X2316273Y2427605D1*
X2321102Y2422776D1*
X2323573Y2417891D1*
Y2408176D1*
X2321102Y2403347D1*
X2316273Y2398462D1*
X2311387Y2396047D1*
X2284714Y2377890D2*
X2282300D1*
X2277414Y2375475D1*
X2275000Y2373061D1*
X2272585Y2368175D1*
Y2358461D1*
X2275000Y2353632D1*
X2277414Y2351217D1*
X2282300Y2348746D1*
X2287129D1*
X2292014Y2351217D1*
X2299258Y2356046D1*
X2323573Y2380361D1*
Y2346331D1*
X2272585Y2325760D2*
Y2299087D1*
X2292014Y2313631D1*
Y2306331D1*
X2294429Y2301502D1*
X2296843Y2299087D1*
X2304143Y2296616D1*
X2308973D1*
X2316273Y2299087D1*
X2321158Y2303916D1*
X2323573Y2311216D1*
Y2318516D1*
X2321158Y2325760D1*
X2318687Y2328174D1*
X2313858Y2330645D1*
X1094041Y1746374D2*
X1089212Y1748789D1*
X1084327Y1753674D1*
X1081912Y1758504D1*
Y1768218D1*
X1084327Y1773104D1*
X1089212Y1777933D1*
X1094041Y1780404D1*
X1101341Y1782818D1*
X1113527D1*
X1120771Y1780403D1*
X1125656Y1777933D1*
X1130485Y1773103D1*
X1132956Y1768218D1*
Y1758503D1*
X1130485Y1753674D1*
X1125656Y1748789D1*
X1120771Y1746374D1*
X1094098Y1728217D2*
X1091683D1*
X1086798Y1725803D1*
X1084383Y1723388D1*
X1081968Y1718503D1*
Y1708788D1*
X1084383Y1703959D1*
X1086798Y1701544D1*
X1091683Y1699074D1*
X1096512D1*
X1101398Y1701544D1*
X1108641Y1706373D1*
X1132956Y1730688D1*
Y1696659D1*
Y1656658D2*
X1081968D1*
X1115941Y1680973D1*
Y1644529D1*
X1190781Y1238667D2*
X1185952Y1241082D1*
X1181067Y1245967D1*
X1178652Y1250796D1*
Y1260511D1*
X1181067Y1265396D1*
X1185952Y1270225D1*
X1190781Y1272696D1*
X1198081Y1275111D1*
X1210267D1*
X1217511Y1272696D1*
X1222396Y1270225D1*
X1227225Y1265396D1*
X1229696Y1260511D1*
Y1250796D1*
X1227225Y1245967D1*
X1222396Y1241082D1*
X1217511Y1238667D1*
X1190838Y1220510D2*
X1188423D1*
X1183538Y1218095D1*
X1181123Y1215681D1*
X1178708Y1210795D1*
Y1201081D1*
X1181123Y1196252D1*
X1183538Y1193837D1*
X1188423Y1191366D1*
X1193252D1*
X1198138Y1193837D1*
X1205381Y1198666D1*
X1229696Y1222981D1*
Y1188951D1*
X1178708Y1144122D2*
Y1168380D1*
X1200552Y1170795D1*
X1198138Y1168380D1*
X1195667Y1161080D1*
Y1153836D1*
X1198137Y1146536D1*
X1202967Y1141651D1*
X1210267Y1139236D1*
X1215096D1*
X1222396Y1141651D1*
X1227281Y1146536D1*
X1229696Y1153836D1*
Y1161080D1*
X1227281Y1168380D1*
X1224811Y1170794D1*
X1219981Y1173265D1*
X1889808Y2415692D2*
X1892223Y2420521D1*
X1897108Y2425407D1*
X1901937Y2427821D1*
X1911652D1*
X1916537Y2425407D1*
X1921367Y2420521D1*
X1923837Y2415692D1*
X1926252Y2408392D1*
Y2396207D1*
X1923837Y2388963D1*
X1921367Y2384077D1*
X1916537Y2379248D1*
X1911652Y2376777D1*
X1901937D1*
X1897108Y2379248D1*
X1892223Y2384077D1*
X1889808Y2388963D1*
X1871651Y2415636D2*
Y2418051D1*
X1869237Y2422936D1*
X1866822Y2425351D1*
X1861937Y2427765D1*
X1852222D1*
X1847393Y2425351D1*
X1844978Y2422936D1*
X1842507Y2418051D1*
Y2413221D1*
X1844978Y2408336D1*
X1849807Y2401092D1*
X1874122Y2376777D1*
X1840093D1*
X1795263Y2420521D2*
X1797677Y2425351D1*
X1804977Y2427765D1*
X1809806D1*
X1817106Y2425351D1*
X1821992Y2418051D1*
X1824406Y2405921D1*
Y2393792D1*
X1821992Y2384077D1*
X1817106Y2379192D1*
X1809806Y2376777D1*
X1807392D1*
X1800148Y2379192D1*
X1795263Y2384077D1*
X1792848Y2391377D1*
Y2393792D1*
X1795263Y2401092D1*
X1800148Y2405921D1*
X1807392Y2408336D1*
X1809806D1*
X1817106Y2405921D1*
X1821992Y2401092D1*
X1824406Y2393792D1*
X3919785Y1922794D2*
X3914956Y1925208D1*
X3910070Y1930094D1*
X3907656Y1934923D1*
X3907655Y1944638D1*
X3910070Y1949523D1*
X3914955Y1954352D1*
X3919785Y1956823D1*
X3927085Y1959237D1*
X3939270D1*
X3946514Y1956823D1*
X3951399Y1954352D1*
X3956228Y1949523D1*
X3958699Y1944637D1*
Y1934923D1*
X3956228Y1930094D1*
X3951399Y1925208D1*
X3946514Y1922794D1*
X3919841Y1904637D2*
X3917426D1*
X3912541Y1902222D1*
X3910126Y1899807D1*
X3907712Y1894922D1*
Y1885207D1*
X3910126Y1880378D1*
X3912541Y1877964D1*
X3917426Y1875493D1*
X3922256D1*
X3927141Y1877964D1*
X3934385Y1882793D1*
X3958699Y1907107D1*
Y1873078D1*
Y1847677D2*
X3907712Y1823363D1*
Y1857392D1*
X2370166Y1169815D2*
X2372580Y1174645D1*
X2377466Y1179530D1*
X2382295Y1181945D1*
X2392009D1*
X2396895Y1179530D1*
X2401724Y1174645D1*
X2404195Y1169815D1*
X2406609Y1162515D1*
Y1150330D1*
X2404195Y1143086D1*
X2401724Y1138201D1*
X2396895Y1133372D1*
X2392009Y1130901D1*
X2382295D1*
X2377466Y1133372D1*
X2372580Y1138201D1*
X2370166Y1143086D1*
X2352008Y1169759D2*
Y1172174D1*
X2349594Y1177059D1*
X2347179Y1179474D1*
X2342294Y1181888D1*
X2332579D1*
X2327750Y1179474D1*
X2325335Y1177059D1*
X2322865Y1172174D1*
Y1167345D1*
X2325335Y1162459D1*
X2330165Y1155215D1*
X2354479Y1130901D1*
X2320450D1*
X2292634Y1181888D2*
X2299878Y1179474D1*
X2302349Y1174645D1*
Y1169759D1*
X2299878Y1164930D1*
X2295049Y1162459D1*
X2285334Y1160045D1*
X2278034Y1157630D1*
X2273205Y1152745D1*
X2270791Y1147915D1*
Y1140615D1*
X2273205Y1135786D1*
X2275620Y1133315D1*
X2282920Y1130901D1*
X2292634D1*
X2299878Y1133315D1*
X2302349Y1135786D1*
X2304764Y1140615D1*
Y1147915D1*
X2302349Y1152745D1*
X2297464Y1157630D1*
X2290220Y1160045D1*
X2280505Y1162459D1*
X2275620Y1164930D1*
X2273205Y1169759D1*
Y1174645D1*
X2275620Y1179474D1*
X2282920Y1181888D1*
X2292634D1*
X2077333Y1479062D2*
X2079748Y1483891D1*
X2084633Y1488777D1*
X2089462Y1491191D1*
X2099177D1*
X2104062Y1488777D1*
X2108891Y1483891D1*
X2111362Y1479062D1*
X2113777Y1471762D1*
Y1459577D1*
X2111362Y1452333D1*
X2108891Y1447447D1*
X2104062Y1442618D1*
X2099177Y1440147D1*
X2089462D1*
X2084633Y1442618D1*
X2079748Y1447447D1*
X2077333Y1452333D1*
X2059176Y1479006D2*
Y1481421D1*
X2056761Y1486306D1*
X2054347Y1488721D1*
X2049461Y1491135D1*
X2039747D1*
X2034917Y1488721D1*
X2032503Y1486306D1*
X2030032Y1481421D1*
Y1476591D1*
X2032503Y1471706D1*
X2037332Y1464462D1*
X2061647Y1440147D1*
X2027617D1*
X1980317Y1474177D2*
X1982787Y1466877D1*
X1987617Y1461991D1*
X1994917Y1459577D1*
X1997331D1*
X2004631Y1461991D1*
X2009460Y1466877D1*
X2011931Y1474177D1*
Y1476591D1*
X2009460Y1483891D1*
X2004631Y1488721D1*
X1997331Y1491135D1*
X1994917D1*
X1987617Y1488721D1*
X1982787Y1483891D1*
X1980317Y1474177D1*
Y1461991D1*
X1982787Y1449862D1*
X1987617Y1442562D1*
X1994917Y1440147D1*
X1999746D1*
X2007046Y1442562D1*
X2009460Y1447447D1*
X2062670Y1590192D2*
X2065085Y1595021D1*
X2069970Y1599907D1*
X2074799Y1602321D1*
X2084514D1*
X2089399Y1599907D1*
X2094229Y1595021D1*
X2096699Y1590192D1*
X2099114Y1582892D1*
Y1570707D1*
X2096699Y1563463D1*
X2094229Y1558577D1*
X2089399Y1553748D1*
X2084514Y1551277D1*
X2074799D1*
X2069970Y1553748D1*
X2065085Y1558577D1*
X2062670Y1563463D1*
X2042099Y1602265D2*
X2015426D1*
X2029969Y1582836D1*
X2022669D1*
X2017840Y1580421D1*
X2015426Y1578007D1*
X2012955Y1570707D1*
Y1565877D1*
X2015426Y1558577D1*
X2020255Y1553692D1*
X2027555Y1551277D1*
X2034855D1*
X2042099Y1553692D1*
X2044513Y1556163D1*
X2046984Y1560992D1*
X1982668Y1602265D2*
X1989968Y1599851D1*
X1994854Y1592551D1*
X1997268Y1580421D1*
Y1573121D1*
X1994854Y1560992D1*
X1989968Y1553692D1*
X1982668Y1551277D1*
X1977839D1*
X1970539Y1553692D1*
X1965710Y1560992D1*
X1963239Y1573121D1*
Y1580421D1*
X1965710Y1592551D1*
X1970539Y1599851D1*
X1977839Y1602265D1*
X1982668D1*
X1965710Y1592551D2*
X1994854Y1560992D1*
X2067622Y1685439D2*
X2070036Y1690268D1*
X2074922Y1695153D1*
X2079751Y1697568D1*
X2089466D1*
X2094351Y1695153D1*
X2099180Y1690268D1*
X2101651Y1685439D1*
X2104066Y1678139D1*
Y1665953D1*
X2101651Y1658710D1*
X2099180Y1653824D1*
X2094351Y1648995D1*
X2089466Y1646524D1*
X2079751D1*
X2074922Y1648995D1*
X2070036Y1653824D1*
X2067622Y1658710D1*
X2047050Y1697512D2*
X2020377D1*
X2034921Y1678083D1*
X2027621D1*
X2022792Y1675668D1*
X2020377Y1673253D1*
X2017906Y1665953D1*
Y1661124D1*
X2020377Y1653824D1*
X2025206Y1648939D1*
X2032506Y1646524D1*
X2039806D1*
X2047050Y1648939D1*
X2049465Y1651410D1*
X2051935Y1656239D1*
X2002220Y1687797D2*
X1997334Y1690268D1*
X1990034Y1697512D1*
Y1646524D1*
X1783206Y2105568D2*
Y2054524D1*
X1766192D1*
X1758892Y2056995D1*
X1754006Y2061824D1*
X1751592Y2066710D1*
X1749177Y2073953D1*
Y2086139D1*
X1751592Y2093439D1*
X1754006Y2098268D1*
X1758892Y2103153D1*
X1766192Y2105568D1*
X1783206D1*
X1709176Y2054524D2*
Y2105512D1*
X1733491Y2071539D1*
X1697047D1*
X4304532Y2834126D2*
X4355576D1*
Y2817111D1*
X4353105Y2809811D1*
X4348276Y2804926D1*
X4343391Y2802511D1*
X4336147Y2800097D1*
X4323961D1*
X4316661Y2802511D1*
X4311832Y2804926D1*
X4306947Y2809811D1*
X4304532Y2817111D1*
Y2834126D1*
X4304588Y2755267D2*
Y2779525D1*
X4326432Y2781940D1*
X4324018Y2779525D1*
X4321547Y2772225D1*
Y2764981D1*
X4324017Y2757681D1*
X4328847Y2752796D1*
X4336147Y2750381D1*
X4340976D1*
X4348276Y2752796D1*
X4353161Y2757681D1*
X4355576Y2764981D1*
Y2772225D1*
X4353161Y2779525D1*
X4350691Y2781940D1*
X4345861Y2784410D1*
X2575029Y1563494D2*
X2626073D1*
Y1534350D1*
X2582329Y1489521D2*
X2577499Y1491935D1*
X2575085Y1499235D1*
Y1504064D1*
X2577500Y1511364D1*
X2584800Y1516250D1*
X2596929Y1518664D1*
X2609058D1*
X2618773Y1516250D1*
X2623658Y1511364D1*
X2626073Y1504064D1*
Y1501650D1*
X2623658Y1494406D1*
X2618773Y1489521D1*
X2611473Y1487106D1*
X2609058D1*
X2601758Y1489521D1*
X2596929Y1494406D1*
X2594514Y1501650D1*
Y1504064D1*
X2596929Y1511364D1*
X2601758Y1516250D1*
X2609058Y1518664D1*
X3738246Y2915362D2*
X3716346D1*
X3709102Y2917777D1*
X3706631Y2920247D1*
X3704216Y2925077D1*
Y2932377D1*
X3706631Y2937206D1*
X3709102Y2939677D1*
X3716346Y2942091D1*
X3738246D1*
Y2891047D1*
X3683645Y2942035D2*
X3656972D1*
X3671516Y2922606D1*
X3664216D1*
X3659386Y2920191D1*
X3656972Y2917777D1*
X3654501Y2910477D1*
Y2905647D1*
X3656972Y2898347D1*
X3661801Y2893462D1*
X3669101Y2891047D1*
X3676401D1*
X3683645Y2893462D1*
X3686059Y2895933D1*
X3688530Y2900762D1*
X3140880Y1133503D2*
X3119036D1*
X3111736Y1135974D1*
X3109265Y1138389D1*
X3106850Y1143218D1*
Y1148103D1*
X3109265Y1152933D1*
X3111736Y1155403D1*
X3119036Y1157818D1*
X3140880D1*
Y1106774D1*
X3123865Y1133503D2*
X3106850Y1106774D1*
X3066850D2*
Y1157762D1*
X3091164Y1123789D1*
X3054720D1*
X3118858Y1832007D2*
X3097014D1*
X3089714Y1834477D1*
X3087244Y1836892D1*
X3084829Y1841721D1*
Y1846607D1*
X3087244Y1851436D1*
X3089714Y1853907D1*
X3097014Y1856321D1*
X3118858D1*
Y1805277D1*
X3101844Y1832007D2*
X3084829Y1805277D1*
X3069143Y1846551D2*
X3064257Y1849021D1*
X3056957Y1856265D1*
Y1805277D1*
X3038800Y1844136D2*
Y1846551D1*
X3036386Y1851436D1*
X3033971Y1853851D1*
X3029086Y1856265D1*
X3019371D1*
X3014542Y1853851D1*
X3012127Y1851436D1*
X3009656Y1846551D1*
Y1841721D1*
X3012127Y1836836D1*
X3016956Y1829592D1*
X3041271Y1805277D1*
X3007242D1*
X1200978Y2578123D2*
X1179134D1*
X1171834Y2580594D1*
X1169364Y2583009D1*
X1166949Y2587838D1*
Y2592723D1*
X1169364Y2597553D1*
X1171834Y2600023D1*
X1179134Y2602438D1*
X1200978D1*
Y2551394D1*
X1183964Y2578123D2*
X1166949Y2551394D1*
X1151263Y2592667D2*
X1146377Y2595138D1*
X1139077Y2602382D1*
Y2551394D1*
X1118506Y2602382D2*
X1091833D1*
X1106376Y2582953D1*
X1099076D1*
X1094247Y2580538D1*
X1091833Y2578123D1*
X1089362Y2570823D1*
Y2565994D1*
X1091833Y2558694D1*
X1096662Y2553809D1*
X1103962Y2551394D1*
X1111262D1*
X1118506Y2553809D1*
X1120920Y2556280D1*
X1123391Y2561109D1*
X1047467Y2823192D2*
Y2801348D1*
X1044996Y2794048D1*
X1042581Y2791578D1*
X1037752Y2789163D1*
X1032867D1*
X1028038Y2791578D1*
X1025567Y2794048D1*
X1023152Y2801348D1*
Y2823192D1*
X1074196D1*
X1047467Y2806178D2*
X1074196Y2789163D1*
X1032923Y2773477D2*
X1030452Y2768591D1*
X1023208Y2761291D1*
X1074196D1*
Y2721291D2*
X1023208D1*
X1057181Y2745605D1*
Y2709161D1*
X3598105Y2340007D2*
X3576261D1*
X3568961Y2342477D1*
X3566490Y2344892D1*
X3564076Y2349721D1*
Y2354607D1*
X3566490Y2359436D1*
X3568961Y2361907D1*
X3576261Y2364321D1*
X3598105D1*
Y2313277D1*
X3581090Y2340007D2*
X3564076Y2313277D1*
X3548389Y2354551D2*
X3543504Y2357021D1*
X3536204Y2364265D1*
Y2313277D1*
X3491374Y2364265D2*
X3515632D1*
X3518047Y2342421D1*
X3515632Y2344836D1*
X3508332Y2347307D1*
X3501088D1*
X3493788Y2344836D1*
X3488903Y2340007D1*
X3486488Y2332707D1*
Y2327877D1*
X3488903Y2320577D1*
X3493788Y2315692D1*
X3501088Y2313277D1*
X3508332D1*
X3515632Y2315692D1*
X3518047Y2318163D1*
X3520518Y2322992D1*
X3739746Y2530507D2*
X3717902D1*
X3710602Y2532977D1*
X3708132Y2535392D1*
X3705717Y2540221D1*
Y2545107D1*
X3708132Y2549936D1*
X3710602Y2552407D1*
X3717902Y2554821D1*
X3739746D1*
Y2503777D1*
X3722732Y2530507D2*
X3705717Y2503777D1*
X3690031Y2545051D2*
X3685145Y2547521D1*
X3677845Y2554765D1*
Y2503777D1*
X3633015Y2547521D2*
X3635430Y2552351D1*
X3642730Y2554765D1*
X3647559D1*
X3654859Y2552351D1*
X3659744Y2545051D1*
X3662159Y2532921D1*
Y2520792D1*
X3659744Y2511077D1*
X3654859Y2506192D1*
X3647559Y2503777D1*
X3645144D1*
X3637901Y2506192D1*
X3633015Y2511077D1*
X3630601Y2518377D1*
Y2520792D1*
X3633015Y2528092D1*
X3637901Y2532921D1*
X3645144Y2535336D1*
X3647559D1*
X3654859Y2532921D1*
X3659744Y2528092D1*
X3662159Y2520792D1*
X3582232Y1959003D2*
X3560388D1*
X3553088Y1961474D1*
X3550617Y1963889D1*
X3548202Y1968718D1*
Y1973603D1*
X3550617Y1978433D1*
X3553088Y1980903D1*
X3560388Y1983318D1*
X3582232D1*
Y1932274D1*
X3565217Y1959003D2*
X3548202Y1932274D1*
X3532516Y1973547D2*
X3527631Y1976018D1*
X3520331Y1983262D1*
Y1932274D1*
X3494930D2*
X3470615Y1983262D1*
X3504644D1*
X1470827Y2895627D2*
X1448983D1*
X1441683Y2898097D1*
X1439212Y2900512D1*
X1436798Y2905341D1*
Y2910227D1*
X1439212Y2915056D1*
X1441683Y2917527D1*
X1448983Y2919941D1*
X1470827D1*
Y2868897D1*
X1453812Y2895627D2*
X1436798Y2868897D1*
X1421111Y2910171D2*
X1416226Y2912641D1*
X1408926Y2919885D1*
Y2868897D1*
X1381110Y2919885D2*
X1388354Y2917471D1*
X1390825Y2912641D1*
Y2907756D1*
X1388354Y2902927D1*
X1383525Y2900456D1*
X1373810Y2898041D1*
X1366510Y2895627D1*
X1361681Y2890741D1*
X1359267Y2885912D1*
Y2878612D1*
X1361681Y2873783D1*
X1364096Y2871312D1*
X1371396Y2868897D1*
X1381110D1*
X1388354Y2871312D1*
X1390825Y2873783D1*
X1393240Y2878612D1*
Y2885912D1*
X1390825Y2890741D1*
X1385940Y2895627D1*
X1378696Y2898041D1*
X1368981Y2900456D1*
X1364096Y2902927D1*
X1361681Y2907756D1*
Y2912641D1*
X1364096Y2917471D1*
X1371396Y2919885D1*
X1381110D1*
X3596901Y2244757D2*
X3575057D1*
X3567757Y2247227D1*
X3565286Y2249642D1*
X3562872Y2254471D1*
Y2259357D1*
X3565286Y2264186D1*
X3567757Y2266657D1*
X3575057Y2269071D1*
X3596901D1*
Y2218027D1*
X3579886Y2244757D2*
X3562872Y2218027D1*
X3547185Y2259301D2*
X3542300Y2261771D1*
X3535000Y2269015D1*
Y2218027D1*
X3487699Y2252057D2*
X3490170Y2244757D1*
X3494999Y2239871D1*
X3502299Y2237457D1*
X3504714D1*
X3512014Y2239871D1*
X3516843Y2244757D1*
X3519314Y2252057D1*
Y2254471D1*
X3516843Y2261771D1*
X3512014Y2266601D1*
X3504714Y2269015D1*
X3502299D1*
X3494999Y2266601D1*
X3490170Y2261771D1*
X3487699Y2252057D1*
Y2239871D1*
X3490170Y2227742D1*
X3494999Y2220442D1*
X3502299Y2218027D1*
X3507128D1*
X3514428Y2220442D1*
X3516843Y2225327D1*
X3102982Y2197130D2*
X3081138D1*
X3073838Y2199601D1*
X3071367Y2202015D1*
X3068952Y2206845D1*
Y2211730D1*
X3071367Y2216559D1*
X3073838Y2219030D1*
X3081138Y2221445D1*
X3102982D1*
Y2170401D1*
X3085967Y2197130D2*
X3068952Y2170401D1*
X3050795Y2209259D2*
Y2211674D1*
X3048381Y2216559D1*
X3045966Y2218974D1*
X3041081Y2221388D1*
X3031366D1*
X3026537Y2218974D1*
X3024122Y2216559D1*
X3021651Y2211674D1*
Y2206845D1*
X3024122Y2201959D1*
X3028951Y2194715D1*
X3053266Y2170401D1*
X3019237D1*
X3003551Y2211674D2*
X2998665Y2214145D1*
X2991365Y2221388D1*
Y2170401D1*
X3132780Y2038380D2*
X3110936D1*
X3103636Y2040851D1*
X3101166Y2043265D1*
X3098751Y2048095D1*
Y2052980D1*
X3101166Y2057809D1*
X3103636Y2060280D1*
X3110936Y2062695D1*
X3132780D1*
Y2011651D1*
X3115766Y2038380D2*
X3098751Y2011651D1*
X3080594Y2050509D2*
Y2052924D1*
X3078179Y2057809D1*
X3075765Y2060224D1*
X3070879Y2062638D1*
X3061165D1*
X3056335Y2060224D1*
X3053921Y2057809D1*
X3051450Y2052924D1*
Y2048095D1*
X3053921Y2043209D1*
X3058750Y2035965D1*
X3083065Y2011651D1*
X3049035D1*
X3030878Y2050509D2*
Y2052924D1*
X3028464Y2057809D1*
X3026049Y2060224D1*
X3021164Y2062638D1*
X3011449D1*
X3006620Y2060224D1*
X3004205Y2057809D1*
X3001734Y2052924D1*
Y2048095D1*
X3004205Y2043209D1*
X3009034Y2035965D1*
X3033349Y2011651D1*
X2999320D1*
X2487350Y2891653D2*
Y2869810D1*
X2484879Y2862510D1*
X2482465Y2860039D1*
X2477635Y2857624D1*
X2472750D1*
X2467921Y2860039D1*
X2465450Y2862510D1*
X2463036Y2869810D1*
X2463035Y2891654D1*
X2514079Y2891653D1*
X2487350Y2874639D2*
X2514079Y2857624D1*
X2475221Y2839467D2*
X2472806D1*
X2467921Y2837053D1*
X2465506Y2834638D1*
X2463092Y2829753D1*
Y2820038D1*
X2465506Y2815209D1*
X2467921Y2812794D1*
X2472806Y2810324D1*
X2477636D1*
X2482521Y2812794D1*
X2489765Y2817623D1*
X2514079Y2841938D1*
Y2807909D1*
X2463092Y2787337D2*
Y2760664D1*
X2482521Y2775208D1*
Y2767908D1*
X2484935Y2763079D1*
X2487350Y2760664D1*
X2494650Y2758194D1*
X2499479D1*
X2506779Y2760664D1*
X2511665Y2765494D1*
X2514079Y2772793D1*
Y2780093D1*
X2511665Y2787337D1*
X2509194Y2789752D1*
X2504365Y2792223D1*
X2751780Y2514627D2*
X2729936D1*
X2722636Y2517097D1*
X2720166Y2519512D1*
X2717751Y2524341D1*
Y2529227D1*
X2720166Y2534056D1*
X2722636Y2536527D1*
X2729936Y2538941D1*
X2751780D1*
Y2487897D1*
X2734766Y2514627D2*
X2717751Y2487897D1*
X2699594Y2526756D2*
Y2529171D1*
X2697179Y2534056D1*
X2694765Y2536471D1*
X2689879Y2538885D1*
X2680165D1*
X2675335Y2536471D1*
X2672921Y2534056D1*
X2670450Y2529171D1*
Y2524341D1*
X2672921Y2519456D1*
X2677750Y2512212D1*
X2702065Y2487897D1*
X2668035D1*
X2623205Y2538885D2*
X2647464D1*
X2649878Y2517041D1*
X2647464Y2519456D1*
X2640164Y2521927D1*
X2632920D1*
X2625620Y2519456D1*
X2620734Y2514627D1*
X2618320Y2507327D1*
Y2502497D1*
X2620734Y2495197D1*
X2625620Y2490312D1*
X2632920Y2487897D1*
X2640164D1*
X2647464Y2490312D1*
X2649878Y2492783D1*
X2652349Y2497612D1*
X2200470Y2909545D2*
Y2887701D1*
X2197999Y2880401D1*
X2195585Y2877930D1*
X2190755Y2875516D1*
X2185870D1*
X2181041Y2877930D1*
X2178570Y2880401D1*
X2176156Y2887701D1*
X2176155Y2909545D1*
X2227199D1*
X2200470Y2892530D2*
X2227199Y2875516D1*
X2188341Y2857359D2*
X2185926D1*
X2181041Y2854944D1*
X2178626Y2852529D1*
X2176212Y2847644D1*
Y2837929D1*
X2178626Y2833100D1*
X2181041Y2830686D1*
X2185926Y2828215D1*
X2190756D1*
X2195641Y2830686D1*
X2202885Y2835515D1*
X2227199Y2859829D1*
Y2825800D1*
X2183455Y2780970D2*
X2178626Y2783385D1*
X2176212Y2790685D1*
Y2795514D1*
X2178626Y2802814D1*
X2185926Y2807699D1*
X2198056Y2810114D1*
X2210185D1*
X2219899Y2807699D1*
X2224785Y2802814D1*
X2227199Y2795514D1*
Y2793099D1*
X2224785Y2785856D1*
X2219899Y2780970D1*
X2212599Y2778556D1*
X2210185D1*
X2202885Y2780970D1*
X2198055Y2785856D1*
X2195641Y2793099D1*
Y2795514D1*
X2198055Y2802814D1*
X2202885Y2807699D1*
X2210185Y2810114D1*
X3212153Y2594007D2*
X3190310D1*
X3183010Y2596477D1*
X3180539Y2598892D1*
X3178124Y2603721D1*
Y2608607D1*
X3180539Y2613436D1*
X3183010Y2615907D1*
X3190310Y2618321D1*
X3212153D1*
Y2567277D1*
X3195139Y2594007D2*
X3178124Y2567277D1*
X3159967Y2606136D2*
Y2608551D1*
X3157553Y2613436D1*
X3155138Y2615851D1*
X3150253Y2618265D1*
X3140538D1*
X3135709Y2615851D1*
X3133294Y2613436D1*
X3130823Y2608551D1*
Y2603721D1*
X3133294Y2598836D1*
X3138123Y2591592D1*
X3162438Y2567277D1*
X3128409D1*
X3103008D2*
X3078693Y2618265D1*
X3112722D1*
X2296843Y2910502D2*
Y2888658D1*
X2294373Y2881358D1*
X2291958Y2878887D1*
X2287129Y2876473D1*
X2282243D1*
X2277414Y2878888D1*
X2274943Y2881358D1*
X2272529Y2888658D1*
Y2910502D1*
X2323573D1*
X2296843Y2893487D2*
X2323573Y2876473D1*
X2284714Y2858316D2*
X2282300D1*
X2277414Y2855901D1*
X2275000Y2853487D1*
X2272585Y2848601D1*
Y2838887D1*
X2275000Y2834058D1*
X2277414Y2831643D1*
X2282300Y2829172D1*
X2287129D1*
X2292014Y2831643D1*
X2299258Y2836472D1*
X2323573Y2860787D1*
Y2826757D1*
X2272585Y2798942D2*
X2275000Y2806186D1*
X2279829Y2808657D1*
X2284714D1*
X2289543Y2806186D1*
X2292014Y2801357D1*
X2294429Y2791642D1*
X2296843Y2784342D1*
X2301729Y2779513D1*
X2306558Y2777098D1*
X2313858D1*
X2318687Y2779513D1*
X2321158Y2781928D1*
X2323573Y2789227D1*
Y2798942D1*
X2321158Y2806186D1*
X2318687Y2808657D1*
X2313858Y2811071D1*
X2306558D1*
X2301729Y2808657D1*
X2296843Y2803771D1*
X2294429Y2796527D1*
X2292014Y2786813D1*
X2289543Y2781928D1*
X2284714Y2779513D1*
X2279829D1*
X2274999Y2781928D1*
X2272585Y2789228D1*
Y2798942D1*
X3828280Y2086003D2*
X3806436D1*
X3799136Y2088474D1*
X3796666Y2090889D1*
X3794251Y2095718D1*
Y2100603D1*
X3796666Y2105433D1*
X3799136Y2107903D1*
X3806436Y2110318D1*
X3828280D1*
Y2059274D1*
X3811266Y2086003D2*
X3794251Y2059274D1*
X3773679Y2110262D2*
X3747006D1*
X3761550Y2090833D1*
X3754250D1*
X3749421Y2088418D1*
X3747006Y2086003D1*
X3744535Y2078703D1*
Y2073874D1*
X3747006Y2066574D1*
X3751835Y2061689D1*
X3759135Y2059274D1*
X3766435D1*
X3773679Y2061689D1*
X3776094Y2064160D1*
X3778565Y2068989D1*
X3714249Y2110262D2*
X3721549Y2107847D1*
X3726434Y2100547D1*
X3728849Y2088418D1*
Y2081118D1*
X3726434Y2068989D1*
X3721549Y2061689D1*
X3714249Y2059274D1*
X3709420D1*
X3702120Y2061689D1*
X3697291Y2068989D1*
X3694820Y2081118D1*
Y2088418D1*
X3697291Y2100547D1*
X3702120Y2107847D1*
X3709420Y2110262D1*
X3714249D1*
X3697291Y2100547D2*
X3726434Y2068989D1*
X3991985Y2308257D2*
X3970141D1*
X3962841Y2310727D1*
X3960370Y2313142D1*
X3957956Y2317971D1*
Y2322857D1*
X3960370Y2327686D1*
X3962841Y2330157D1*
X3970141Y2332571D1*
X3991985D1*
Y2281527D1*
X3974970Y2308257D2*
X3957956Y2281527D1*
X3937384Y2332515D2*
X3910711D1*
X3925255Y2313086D1*
X3917955D1*
X3913126Y2310671D1*
X3910711Y2308257D1*
X3908240Y2300957D1*
Y2296127D1*
X3910711Y2288827D1*
X3915540Y2283942D1*
X3922840Y2281527D1*
X3930140D1*
X3937384Y2283942D1*
X3939799Y2286413D1*
X3942269Y2291242D1*
X3892554Y2322801D2*
X3887668Y2325271D1*
X3880368Y2332515D1*
Y2281527D1*
X2053283Y2133630D2*
X2031440D1*
X2024140Y2136101D1*
X2021669Y2138515D1*
X2019254Y2143345D1*
Y2148230D1*
X2021669Y2153059D1*
X2024140Y2155530D1*
X2031440Y2157945D1*
X2053283D1*
Y2106901D1*
X2036269Y2133630D2*
X2019254Y2106901D1*
X1998683Y2157888D2*
X1972009D1*
X1986553Y2138459D1*
X1979253D1*
X1974424Y2136045D1*
X1972009Y2133630D1*
X1969539Y2126330D1*
Y2121501D1*
X1972009Y2114201D1*
X1976839Y2109315D1*
X1984139Y2106901D1*
X1991439D1*
X1998683Y2109315D1*
X2001097Y2111786D1*
X2003568Y2116615D1*
X1951382Y2145759D2*
Y2148174D1*
X1948967Y2153059D1*
X1946552Y2155474D1*
X1941667Y2157888D1*
X1931952D1*
X1927123Y2155474D1*
X1924709Y2153059D1*
X1922238Y2148174D1*
Y2143345D1*
X1924709Y2138459D1*
X1929538Y2131215D1*
X1953852Y2106901D1*
X1919823D1*
X2136783Y1799380D2*
X2114940D1*
X2107640Y1801851D1*
X2105169Y1804265D1*
X2102754Y1809095D1*
Y1813980D1*
X2105169Y1818809D1*
X2107640Y1821280D1*
X2114940Y1823695D1*
X2136783D1*
Y1772651D1*
X2119769Y1799380D2*
X2102754Y1772651D1*
X2082183Y1823638D2*
X2055509D1*
X2070053Y1804209D1*
X2062753D1*
X2057924Y1801795D1*
X2055509Y1799380D1*
X2053039Y1792080D1*
Y1787251D1*
X2055509Y1779951D1*
X2060339Y1775065D1*
X2067639Y1772651D1*
X2074939D1*
X2082183Y1775065D1*
X2084597Y1777536D1*
X2087068Y1782365D1*
X2032467Y1823638D2*
X2005794D1*
X2020338Y1804209D1*
X2013038D1*
X2008209Y1801795D1*
X2005794Y1799380D1*
X2003323Y1792080D1*
Y1787251D1*
X2005794Y1779951D1*
X2010623Y1775065D1*
X2017923Y1772651D1*
X2025223D1*
X2032467Y1775065D1*
X2034882Y1777536D1*
X2037352Y1782365D1*
X6337962Y2756931D2*
Y2720487D1*
X6335548Y2713187D1*
X6330662Y2708358D1*
X6323362Y2705887D1*
X6318533D1*
X6311233Y2708358D1*
X6306348Y2713187D1*
X6303933Y2720487D1*
Y2756931D1*
X6285776Y2744746D2*
Y2747161D1*
X6283361Y2752046D1*
X6280947Y2754461D1*
X6276061Y2756875D1*
X6266347D1*
X6261518Y2754461D1*
X6259103Y2752046D1*
X6256632Y2747161D1*
Y2742331D1*
X6259103Y2737446D1*
X6263932Y2730202D1*
X6288247Y2705887D1*
X6254218D1*
X3250799Y2030231D2*
Y1993787D1*
X3248384Y1986487D1*
X3243499Y1981658D1*
X3236199Y1979187D1*
X3231370D1*
X3224070Y1981658D1*
X3219184Y1986487D1*
X3216770Y1993787D1*
Y2030231D1*
X3196198Y2030175D2*
X3169525D1*
X3184069Y2010746D1*
X3176769D1*
X3171940Y2008331D1*
X3169525Y2005917D1*
X3167054Y1998617D1*
Y1993787D1*
X3169525Y1986487D1*
X3174354Y1981602D1*
X3181654Y1979187D1*
X3188954D1*
X3196198Y1981602D1*
X3198613Y1984073D1*
X3201084Y1988902D1*
X1832934Y2544368D2*
Y2507924D1*
X1830519Y2500624D1*
X1825634Y2495795D1*
X1818334Y2493324D1*
X1813504D1*
X1806204Y2495795D1*
X1801319Y2500624D1*
X1798904Y2507924D1*
Y2544368D1*
X1754074Y2537068D2*
X1756489Y2541897D1*
X1763789Y2544312D1*
X1768618D1*
X1775918Y2541897D1*
X1780804Y2534597D1*
X1783218Y2522468D1*
Y2510339D1*
X1780804Y2500624D1*
X1775918Y2495739D1*
X1768618Y2493324D1*
X1766204D1*
X1758960Y2495739D1*
X1754074Y2500624D1*
X1751660Y2507924D1*
Y2510339D1*
X1754074Y2517639D1*
X1758960Y2522468D1*
X1766204Y2524883D1*
X1768618D1*
X1775918Y2522468D1*
X1780804Y2517639D1*
X1783218Y2510339D1*
X2326268Y2147488D2*
Y2111044D1*
X2323853Y2103744D1*
X2318968Y2098915D1*
X2311668Y2096444D1*
X2306838D1*
X2299538Y2098915D1*
X2294653Y2103744D1*
X2292238Y2111044D1*
Y2147488D1*
X2264423Y2147432D2*
X2271667Y2145017D1*
X2274138Y2140188D1*
Y2135303D1*
X2271667Y2130473D1*
X2266838Y2128003D1*
X2257123Y2125588D1*
X2249823Y2123173D1*
X2244994Y2118288D1*
X2242579Y2113459D1*
Y2106159D1*
X2244994Y2101330D1*
X2247408Y2098859D1*
X2254708Y2096444D1*
X2264423D1*
X2271667Y2098859D1*
X2274138Y2101330D1*
X2276552Y2106159D1*
Y2113459D1*
X2274138Y2118288D1*
X2269252Y2123173D1*
X2262008Y2125588D1*
X2252294Y2128003D1*
X2247408Y2130473D1*
X2244994Y2135303D1*
Y2140188D1*
X2247408Y2145017D1*
X2254708Y2147432D1*
X2264423D1*
X1677298Y1289075D2*
Y1252631D1*
X1674884Y1245331D1*
X1669998Y1240502D1*
X1662698Y1238031D1*
X1657869D1*
X1650569Y1240502D1*
X1645684Y1245331D1*
X1643269Y1252631D1*
Y1289075D1*
X1595968Y1272060D2*
X1598439Y1264760D1*
X1603268Y1259875D1*
X1610568Y1257460D1*
X1612983D1*
X1620283Y1259875D1*
X1625112Y1264760D1*
X1627583Y1272060D1*
Y1274475D1*
X1625112Y1281775D1*
X1620283Y1286604D1*
X1612983Y1289018D1*
X1610568D1*
X1603268Y1286604D1*
X1598439Y1281775D1*
X1595968Y1272060D1*
Y1259875D1*
X1598439Y1247745D1*
X1603268Y1240445D1*
X1610568Y1238031D1*
X1615398D1*
X1622698Y1240445D1*
X1625112Y1245331D1*
X4233852Y1748930D2*
Y1712486D1*
X4231437Y1705186D1*
X4226552Y1700357D1*
X4219252Y1697886D1*
X4214422D1*
X4207122Y1700357D1*
X4202237Y1705186D1*
X4199822Y1712486D1*
Y1748930D1*
X4184136Y1739159D2*
X4179251Y1741630D1*
X4171951Y1748873D1*
Y1697886D1*
X4141664Y1748873D2*
X4148964Y1746459D1*
X4153850Y1739159D1*
X4156264Y1727030D1*
Y1719730D1*
X4153850Y1707600D1*
X4148964Y1700300D1*
X4141664Y1697886D1*
X4136835D1*
X4129535Y1700300D1*
X4124706Y1707600D1*
X4122235Y1719730D1*
Y1727030D1*
X4124706Y1739159D1*
X4129535Y1746459D1*
X4136835Y1748873D1*
X4141664D1*
X4124706Y1739159D2*
X4153850Y1707600D1*
M02*
