M48
METRIC,0000.00
T01C0.3
T02C0.61
T03C0.635
T04C0.66
T05C0.8
T06C1.016
T07C1.1
T08C2.5
%
T01
X+005620Y+001287
X+005700Y+001287
X+005779Y+001287
X+005986Y+001128
X+006398Y+001112
X+006367Y+001306
X+006398Y+001572
X+006525Y+001572
X+006652Y+001572
X+006636Y+001810
X+006509Y+001810
X+006414Y+001810
X+006319Y+001810
X+006319Y+001906
X+006319Y+001985
X+006319Y+002064
X+006414Y+002064
X+006509Y+002064
X+006621Y+002064
X+006271Y+002239
X+006192Y+002239
X+006192Y+002414
X+006271Y+002414
X+006271Y+002747
X+006367Y+002747
X+006462Y+002747
X+006557Y+002747
X+006652Y+002747
X+006875Y+002858
X+006986Y+002715
X+007097Y+002715
X+005843Y+002779
X+005843Y+002842
X+005843Y+002414
X+005462Y+002430
X+005237Y+002313
X+005237Y+002238
X+005237Y+002144
X+005157Y+002033
X+005144Y+001826
X+005366Y+001810
X+005382Y+001937
X+005509Y+001731
X+005287Y+001128
X+004827Y+001493
X+004700Y+001699
X+004620Y+001636
X+004541Y+001652
X+004477Y+001604
X+004335Y+001556
X+004271Y+001493
X+004128Y+001445
X+004096Y+001525
X+004049Y+001652
X+003878Y+001730
X+003764Y+001636
X+003665Y+001730
X+003812Y+001891
X+003668Y+002223
X+003715Y+002398
X+003668Y+002461
X+003827Y+002541
X+003938Y+002430
X+003874Y+002699
X+004049Y+002747
X+004128Y+002842
X+004065Y+002890
X+004223Y+002858
X+004208Y+002779
X+004271Y+002604
X+004557Y+002652
X+004557Y+002779
X+004700Y+002890
X+005001Y+002636
X+004985Y+002461
X+004906Y+002461
X+004827Y+002461
X+004763Y+002382
X+004682Y+002486
X+004626Y+002430
X+004430Y+002223
X+004303Y+002223
X+004176Y+002223
X+004176Y+002001
X+004319Y+002001
X+004477Y+002001
X+004724Y+002016
X+004855Y+002131
X+003795Y+002906
X+003684Y+002731
X+003350Y+002541
X+003366Y+002318
X+003446Y+002318
X+003409Y+001950
X+003431Y+001754
X+003261Y+001754
X+003151Y+001545
X+003085Y+001477
X+003020Y+001545
X+002900Y+001434
X+003160Y+001255
X+003160Y+001144
X+003334Y+001477
X+003080Y+002001
X+003049Y+002223
X+003110Y+002490
X+003112Y+002715
X+002811Y+002684
X+002684Y+002414
X+002652Y+002191
X+002525Y+002223
X+002394Y+002199
X+002303Y+002409
X+002140Y+002327
X+002029Y+002405
X+002084Y+002199
X+002059Y+002001
X+001977Y+002001
X+001858Y+001795
X+001604Y+001890
X+001572Y+001969
X+001627Y+002032
X+001477Y+002128
X+001382Y+002255
X+001541Y+002509
X+001524Y+002590
X+001317Y+002579
X+001747Y+002366
X+002255Y+001969
X+002334Y+001969
X+002201Y+001906
X+002414Y+001673
X+002572Y+001638
X+002689Y+001744
X+002689Y+001820
X+002672Y+001895
X+002493Y+001287
X+002572Y+001080
X+002145Y+001148
X+002080Y+001572
X+001715Y+001493
X+001620Y+001493
X+001382Y+001445
X+001382Y+001572
X+001112Y+001683
X+002368Y+002822
X+006986Y+001271
X+007097Y+001271
T02
X+003563Y+001137G85X+003563Y+001216
X+003563Y+001540G85X+003563Y+001649
X+002699Y+001540G85X+002699Y+001649
X+002699Y+001137G85X+002699Y+001216
T03
X+003779Y+001255
X+003906Y+001255
X+004033Y+001255
X+004160Y+001255
X+004287Y+001255
X+004414Y+001255
T04
X+002842Y+001544
X+003420Y+001544
T05
X+001541Y+001128
X+001741Y+001128
X+001881Y+001328
X+001881Y+001528
X+001741Y+001728
X+001541Y+001728
T06
X+003461Y+002826
X+003207Y+002826
X+002953Y+002826
X+002699Y+002826
X+004684Y+001271
X+004938Y+001271
T07
X+001239Y+002489
X+001939Y+002489
T08
X+001251Y+001951
T00
M30
