G04 DipTrace 3.3.1.3*
G04 TNC3L_B005_TopPaste.gbr*
%MOMM*%
G04 #@! TF.FileFunction,Paste,Top*
G04 #@! TF.Part,Single*
%ADD43R,0.5842X1.143*%
%ADD44R,0.3048X1.143*%
%ADD63R,0.2794X0.6858*%
%ADD64R,0.7112X1.0414*%
%ADD87R,0.4776X0.0976*%
%ADD89R,0.1476X0.4276*%
%ADD91R,0.0976X0.4276*%
%ADD97R,5.0476X5.0476*%
%ADD99O,0.1476X0.6976*%
%ADD101O,0.6976X0.1476*%
%ADD113C,1.1176*%
%ADD117R,0.4476X0.9476*%
%ADD119R,0.4976X0.8976*%
%ADD121R,2.0476X2.1476*%
%ADD123R,2.0476X2.3476*%
%ADD147R,0.5676X0.4376*%
%ADD149R,0.4376X0.5676*%
%ADD153R,0.6976X0.7476*%
%ADD155R,0.8976X1.2476*%
%ADD157R,1.0476X1.0476*%
%ADD159R,0.8476X0.7476*%
%ADD161R,0.3476X0.5476*%
%ADD163R,1.1476X1.3476*%
%ADD165R,1.3476X1.1476*%
%ADD167R,0.7476X0.5476*%
%ADD169R,0.5476X0.7476*%
%ADD171R,1.4476X0.7476*%
%ADD173R,0.8476X0.3476*%
%ADD175R,1.6476X0.8476*%
%FSLAX35Y35*%
G04*
G71*
G90*
G75*
G01*
G04 TopPaste*
%LPD*%
D175*
X4937800Y1953300D3*
Y1703300D3*
D173*
X5509300Y1207175D3*
Y1287175D3*
D171*
X5701300Y1082175D3*
Y1412175D3*
D169*
X2572427Y1858050D3*
Y1728050D3*
D167*
X4921923Y2302550D3*
X5051923D3*
X3794800Y1810427D3*
X3664800D3*
D169*
X4715550Y1619927D3*
Y1489927D3*
X3969427Y2556550D3*
Y2686550D3*
D167*
X4953673Y2143800D3*
X5083673D3*
X5144173Y1937427D3*
X5274173D3*
X4904550Y1589673D3*
X5034550D3*
D165*
X1746927Y1889800D3*
Y2079800D3*
D163*
X2254927Y1111927D3*
X2444927D3*
D167*
X6128423Y2334300D3*
X6258423D3*
D161*
X3778923Y2826417D3*
X3858923D3*
D159*
X3968923Y2836417D3*
X3668923D3*
D157*
X6477673Y2858177D3*
X6197673D3*
D155*
X4715550Y2762926D3*
X5011550D3*
D153*
X4863550Y2737926D3*
D163*
X2953423Y2096173D3*
X2763423D3*
D169*
X2572427Y2112050D3*
Y1982050D3*
D149*
X1984677Y2111673D3*
X2080677D3*
D147*
X2286300Y2841927D3*
Y2937927D3*
X1889423Y2841923D3*
Y2937923D3*
X1191300Y2842300D3*
Y2938300D3*
D43*
X2810550Y1651674D3*
X2890550D3*
D44*
X2955550D3*
X3005550Y1651657D3*
X3055550D3*
X3105550D3*
X3155550D3*
X3205550D3*
X3255550D3*
X3305550D3*
D43*
X3370550Y1651674D3*
X3450550D3*
D123*
X2239050Y2143800D3*
D121*
X2089050Y2823800D3*
X1689050Y2843800D3*
X1389050D3*
D119*
X5683923Y2270800D3*
X5493923D3*
X5588923Y2040800D3*
D117*
X5556923Y2572427D3*
X5651923D3*
X5746923D3*
Y2842427D3*
X5651923D3*
X5556923D3*
D119*
X5175927Y2477173D3*
X5365927D3*
X5270927Y2707173D3*
D167*
X2905800Y1921550D3*
X2775800D3*
X2778800Y1810427D3*
X2908800D3*
D169*
X2445427Y1762800D3*
Y1892800D3*
X3683673Y1635800D3*
Y1505800D3*
D167*
X5287050Y1207173D3*
X5157050D3*
D169*
X3445550Y2413673D3*
Y2543673D3*
X3572550Y2413673D3*
Y2543673D3*
X3255050Y2413673D3*
Y2543673D3*
D167*
X4334550Y2778800D3*
X4464550D3*
X4334550Y2683550D3*
X4464550D3*
D169*
X2302550Y1731050D3*
Y1861050D3*
X2064427Y1143673D3*
Y1273673D3*
D167*
X6112550Y2143800D3*
X6242550D3*
X6064927Y2778800D3*
X5934927D3*
D169*
X5890300Y2302550D3*
Y2172550D3*
X6001427Y2302550D3*
Y2172550D3*
X6271300Y2651800D3*
Y2521800D3*
D167*
X5144173Y2889927D3*
X5274173D3*
X4461550Y2874050D3*
X4331550D3*
D169*
X5334677Y2302550D3*
Y2172550D3*
D167*
X6779300Y2874050D3*
X6649300D3*
D169*
X5398177Y2728177D3*
Y2858177D3*
D113*
X6969800Y2858173D3*
D117*
X3143923Y1889800D3*
X3238923D3*
X3333923D3*
Y2159800D3*
X3238923D3*
X3143923D3*
D101*
X4636173Y1810423D3*
Y1860423D3*
Y1910423D3*
Y1960423D3*
Y2010423D3*
Y2060423D3*
Y2110423D3*
Y2160423D3*
Y2210423D3*
Y2260423D3*
Y2310423D3*
Y2360423D3*
D99*
X4566173Y2430423D3*
X4516173D3*
X4466173D3*
X4416173D3*
X4366173D3*
X4316173D3*
X4266173D3*
X4216173D3*
X4166173D3*
X4116173D3*
X4066173D3*
X4016173D3*
D101*
X3946173Y2360423D3*
Y2310423D3*
Y2260423D3*
Y2210423D3*
Y2160423D3*
Y2110423D3*
Y2060423D3*
Y2010423D3*
Y1960423D3*
Y1910423D3*
Y1860423D3*
X3946160Y1810423D3*
D99*
X4016173Y1740423D3*
X4066173D3*
X4116173D3*
X4166173D3*
X4216173D3*
X4266173D3*
X4316173D3*
X4366173D3*
X4416173D3*
X4466173D3*
X4516173D3*
X4566173D3*
D97*
X4291167Y2085423D3*
D117*
X2397800Y1572300D3*
X2302800D3*
X2207800D3*
Y1302300D3*
X2397800D3*
D63*
X2127927Y1921550D3*
X2062927D3*
X1997927D3*
Y1713270D3*
X2062927D3*
X2127927D3*
D64*
X2114997Y1817410D3*
X2010857D3*
D91*
X6033173Y2493050D3*
Y2621050D3*
D89*
X5983173Y2493050D3*
X6083173D3*
Y2621050D3*
X5983173D3*
D87*
X6076673Y2557050D3*
X5989673D3*
M02*
