G04 DipTrace 3.3.1.3*
G04 TNC3L_B005_Signal.gbr*
%MOMM*%
G04 #@! TF.FileFunction,Copper,L2,Inr*
G04 #@! TF.Part,Single*
G04 #@! TA.AperFunction,Conductor*
%ADD14C,0.2032*%
G04 #@! TA.AperFunction,CopperBalancing*
%ADD15C,0.508*%
G04 #@! TA.AperFunction,Conductor*
%ADD17C,0.254*%
%ADD18C,0.381*%
G04 #@! TA.AperFunction,CopperBalancing*
%ADD19C,0.635*%
G04 #@! TA.AperFunction,ComponentPad*
%ADD45O,1.0X1.8*%
%ADD47O,1.0X2.1*%
%ADD48R,1.016X1.016*%
%ADD50C,1.016*%
%ADD51R,1.524X1.524*%
%ADD52C,1.524*%
%ADD60C,1.27*%
G04 #@! TA.AperFunction,ViaPad*
%ADD76C,0.6*%
%FSLAX35Y35*%
G04*
G71*
G90*
G75*
G01*
G04 Inner1*
%LPD*%
X3112173Y2715300D2*
D14*
X3318550D1*
X3382050Y2651800D1*
X3731300D1*
X3747173Y2635927D1*
X3921803D1*
X3969427Y2683550D1*
X4064677D1*
X4159927Y2778800D1*
X4207550D1*
X1746927Y2366050D2*
X1858050Y2254927D1*
X2270803D1*
X2302550Y2286673D1*
X2556553D1*
X2651800Y2191427D1*
X2810550Y2683550D2*
X2842300D1*
X2874050Y2651800D1*
X3318547D1*
X3366173Y2604173D1*
X3715427D1*
X3778927Y2540673D1*
X3826550D1*
X3842423D1*
X3890050Y2588300D1*
X4064677D1*
X4191677Y2715300D1*
X4223427D1*
X4271050Y2762923D1*
Y2842297D1*
X4255173Y2858173D1*
X4223427D1*
X2303420Y2409480D2*
X2299223Y2413677D1*
X2572423D1*
X2643150Y2342950D1*
X3198777D1*
X3286800Y2254927D1*
X3509053D1*
X3597077Y2342950D1*
X4431790D1*
X4574660Y2485820D1*
X4681820D1*
X2254927Y1969173D2*
X2254923D1*
Y1985050D1*
X2334300Y2064427D1*
X2874053D1*
X2921677Y2112050D1*
X4731427D1*
X4779050Y2064427D1*
X4890180D1*
X4985427Y2159673D1*
Y2461300D1*
X4175800Y2000927D2*
X4318673D1*
X4477427D1*
X1477050Y2127927D2*
X1461173Y2112050D1*
Y1794547D1*
X1286550Y1619923D1*
Y1429423D1*
X1365923Y1350050D1*
X1508800D1*
X1588177Y1429427D1*
X2016800D1*
X2144670Y1301557D1*
Y1147640D1*
X3667800Y2461300D2*
X3605170Y2398670D1*
X3333553D1*
X3175673Y2556550D1*
X2937550D1*
X2794677Y2413677D1*
X2683550D1*
X3048673Y2223173D2*
X3064550D1*
X3128050Y2159673D1*
X4826337D1*
X4854560Y2131450D1*
X1572300Y1969173D2*
D17*
Y2000923D1*
X1540550Y2032673D1*
Y2508927D1*
X2524800Y2223173D2*
Y2207300D1*
X2620050Y2112050D1*
X2810550D1*
X3001050Y2302550D1*
X3112173D1*
X3207423Y2207300D1*
X3524923D1*
X3604300Y2286677D1*
X4779053D1*
X4906050Y2413673D1*
Y2461300D1*
X2524800Y2223173D2*
X2429553Y2127927D1*
X2302550D1*
X1969173Y1794550D1*
X1858050D1*
X1604050Y1889800D2*
D18*
X1715173Y2000923D1*
Y2127927D1*
X1667550Y2175550D1*
Y2477173D1*
X1769587Y2579210D1*
X2219207D1*
X2305367Y2493050D1*
X2794677D1*
X2905800Y2604173D1*
X3191550D1*
X3334423Y2461300D1*
X3556677D1*
X3636050Y2540673D1*
X3699550D1*
X3778923Y2461300D1*
X3858303D1*
X3937677Y2540673D1*
X4112297D1*
X4255173Y2683550D1*
X4366300D1*
X4461550Y2778800D1*
X4556800D1*
X1976950Y2001080D2*
X1715173Y2000923D1*
X3794800Y2905800D2*
D14*
Y2778800D1*
X3874173Y2699427D1*
X2201000Y1905673D2*
D18*
Y1693000D1*
X2080300Y1572300D1*
D15*
X1985050Y1667550D1*
X1858050D1*
X1810427Y1619927D1*
X1508800D1*
X1461300Y1572427D1*
X1381800D1*
X1111927Y1683423D2*
D14*
X1064300Y1731050D1*
Y2508923D1*
X1524677Y2969300D1*
X4620300D1*
X4699673Y2889927D1*
X5842673Y2413670D2*
D19*
Y2778800D1*
Y2842300D2*
Y2778800D1*
X1880550Y1327800D2*
Y1248173D1*
X2064423Y1064300D1*
X2254927D1*
X2366053Y1175427D1*
X2508927D1*
X2683550Y1350050D1*
X3572550D1*
X3667800Y1254800D1*
Y1191297D1*
X3747173Y1111923D1*
X4985423D1*
X5144173Y1270673D1*
Y1445297D1*
X5271177Y1572300D1*
X5572800D1*
X5779173Y1778673D1*
Y2350170D1*
X5842673Y2413670D1*
X5157380Y2032670D2*
D14*
X5030383Y1905673D1*
X4112300D1*
X4071903Y1946070D1*
X3771693D1*
X3731300Y1905677D1*
Y1778677D1*
X3819320Y1690657D1*
Y1563700D1*
X3905923Y1477097D1*
Y1254800D1*
X3366173Y2318427D2*
X3318550Y2366050D1*
X3255050D1*
X3131470Y2489630D1*
X3110170D1*
X1317010Y2579210D2*
X1468650Y2730850D1*
X2603853D1*
X2699427Y2826423D1*
X1524460Y2589830D2*
X1586430Y2651800D1*
X2683550D1*
X2858173Y2826423D1*
X2953427D1*
X4048800Y1651673D2*
X4032923D1*
Y1254800D1*
X3812160Y1890670D2*
X3920930D1*
X4191673Y1619927D1*
Y1381800D1*
X4318673Y1254800D1*
X4286923D1*
X5366427Y1810423D2*
X5445800Y1889797D1*
Y1985047D1*
X5398173Y2032673D1*
Y2334300D1*
X5160050Y2572423D1*
X4763177D1*
X4731427Y2604173D1*
X4604423D1*
X4572677Y2572427D1*
X4350423D1*
X4318677Y2604173D1*
X4271050D1*
X5001300Y2635927D2*
X4779047D1*
X4572673Y2842300D1*
X4350423D1*
X4271050Y2921673D1*
X4191673D1*
X4112300Y2842300D1*
X4128173D1*
X2899950Y1433930D2*
Y2010950D1*
X2953427Y2064427D1*
X4675323D1*
X4723920Y2015830D1*
X3085283Y1477050D2*
D18*
Y2000927D1*
X3080427D1*
X4683800Y1270677D2*
D17*
Y1667553D1*
X4699673Y1683427D1*
Y1699300D1*
X4763173Y1762800D1*
X5223550D1*
X5239423D1*
X5271173Y1731050D1*
X5509300D1*
X3937673Y2429550D2*
X4355980D1*
X4451230Y2524800D1*
X4588550D1*
X4620300Y2556550D1*
X4715550D1*
X4747300Y2524800D1*
X5128300D1*
X5348220Y2304880D1*
Y2062097D1*
X5223550Y1937427D1*
Y1762800D1*
X2493050Y1286550D2*
Y1715570D1*
X2672280Y1894800D1*
D76*
X4826677Y2461300D3*
X1746927Y2366050D3*
X2651800Y2191427D3*
X1715173Y1492923D3*
X4223427Y2858173D3*
D3*
X1858050Y1794550D3*
X1604050Y1889800D3*
X2080300Y1572300D3*
X2201000Y1905673D3*
X1381800Y1572427D3*
X1111927Y1683423D3*
X4699673Y2889927D3*
X1619923Y1492927D3*
X5842673Y2413670D3*
Y2778800D3*
D3*
Y2413670D3*
X5461677Y2429550D3*
D3*
X3366173Y2318427D3*
X4477427Y1604050D3*
X4540923Y1651673D3*
X5366427Y1810423D3*
X4271050Y2604173D3*
X5620425Y1286550D3*
X5699800D3*
X5779175D3*
X6271300Y2413677D3*
Y2239050D3*
X6191927Y2413677D3*
Y2239050D3*
X6366550Y2747050D3*
X6461800D3*
X6557050D3*
X6652300D3*
X3445550Y2318427D3*
X4175800Y2223173D3*
X4302800D3*
X4429800D3*
X4175800Y2000927D3*
X4318673D3*
X4477427D3*
X3048673Y2223173D3*
X3350300Y2540677D3*
X6398300Y1111923D3*
X2688560Y1744320D3*
X2413670Y1672540D3*
X3409170Y1950360D3*
X3878250Y1730180D3*
X4620300Y1635800D3*
X5237420Y2238080D3*
X7096800Y1270673D3*
Y2715300D3*
X6874550Y2858173D3*
X2572427Y1080173D3*
X6985677Y2715300D3*
Y1270673D3*
X6271300Y2747050D3*
X5287050Y1127800D3*
X3159800Y1143673D3*
X3431490Y1754070D3*
X2688560Y1819560D3*
X2059110Y2001080D3*
X3664790Y1730180D3*
X1626680Y2032170D3*
X6366770Y1305570D3*
X2572430Y1637800D3*
X3683673Y2731173D3*
X3763920Y1635800D3*
X3159800Y1254800D3*
X5144177Y1826300D3*
X5382300Y1937427D3*
X5237420Y2143800D3*
X4207550Y2778800D3*
X3112173Y2715300D3*
X2367540Y2821810D3*
X4556800Y2651800D3*
X4626420Y2430420D3*
X4271050Y1492927D3*
X4334550Y1556427D3*
X4763177Y2381927D3*
X4128177Y1445300D3*
X4096427Y1524673D3*
X4826673Y1492927D3*
X3826550Y2540673D3*
X2810550Y2683550D3*
X4681820Y2485820D3*
X2303420Y2409480D3*
X4985427Y2461300D3*
X2254927Y1969173D3*
X1381800Y2254927D3*
X4854560Y2131450D3*
X2334300Y1969173D3*
X2029460Y2404760D3*
X2083810Y2199210D3*
X4556800Y2778800D3*
X1976950Y2001080D3*
X1540550Y2508927D3*
X1572300Y1969173D3*
X4906050Y2461300D3*
X2524800Y2223173D3*
X3874173Y2699427D3*
X3794800Y2905800D3*
X2394300Y2199210D3*
X2140260Y2327230D3*
X5157380Y2032670D3*
X3667800Y2223173D3*
X3715420Y2398350D3*
X3110170Y2489630D3*
X1317010Y2579210D3*
X1524460Y2589830D3*
X4048800Y1651673D3*
X3812160Y1890670D3*
X5237420Y2313320D3*
X4064677Y2889927D3*
X4128173Y2842300D3*
X5001300Y2635927D3*
X2144670Y1147640D3*
X1477050Y2127927D3*
X2683550Y2413677D3*
X3667800Y2461300D3*
X3260950Y1754050D3*
X3019930Y1544730D3*
X3151110D3*
X4723920Y2015830D3*
X2899950Y1433930D3*
X3334427Y1477050D3*
X3080427Y2000927D3*
X3085283Y1477050D3*
X4048800Y2747050D3*
X2672280Y1894800D3*
X5509300Y1731050D3*
X3937673Y2429550D3*
X2493050Y1286550D3*
X4699673Y1699300D3*
X6318927Y2064427D3*
Y1985050D3*
Y1905673D3*
Y1810427D3*
X6414177Y2064427D3*
X6509423D3*
X6620550D3*
X6414173Y1810427D3*
X6509423D3*
X6636423D3*
X6398300Y1572300D3*
X6525300D3*
X6652300D3*
X1381800Y1445300D3*
X5985550Y1127800D3*
X5842673Y2842300D3*
X1070697Y2874383D2*
D19*
X1332527D1*
X1526970D2*
X2295573D1*
X2439523D2*
X2571927D1*
X3598080D2*
X3710430D1*
X3879173D2*
X3975663D1*
X4788627D2*
X5756747D1*
X5928587D2*
X7138060D1*
X1070697Y2811217D2*
X1269363D1*
X1463807D2*
X2277800D1*
X2457297D2*
X2563723D1*
X3598080D2*
X3724193D1*
X3865410D2*
X3988153D1*
X4735580D2*
X5750457D1*
X5934877D2*
X7138060D1*
X1070697Y2748050D2*
X1206200D1*
X3598080D2*
X3732033D1*
X4764107D2*
X5750457D1*
X5934877D2*
X7138060D1*
X1070697Y2684883D2*
X1143033D1*
X5076007D2*
X5750457D1*
X5934877D2*
X7138060D1*
X5207623Y2621717D2*
X5750457D1*
X5934877D2*
X6328503D1*
X6960267D2*
X7138060D1*
X1404837Y2558550D2*
X1440080D1*
X5271150D2*
X5750457D1*
X1354250Y2495383D2*
X1451200D1*
X1795487D2*
X1823803D1*
X2054250D2*
X2193217D1*
X2906737D2*
X3019910D1*
X5334317D2*
X5403010D1*
X5520343D2*
X5750457D1*
X1338663Y2432217D2*
X1467423D1*
X1805150D2*
X1839480D1*
X2115317D2*
X2216093D1*
X2841660D2*
X3042423D1*
X5070630D2*
X5120093D1*
X5552063D2*
X5733503D1*
X1134863Y2369050D2*
X1467423D1*
X1841150D2*
X1947033D1*
X5056047D2*
X5168127D1*
X5526450D2*
X5689117D1*
X1134863Y2305883D2*
X1308557D1*
X5056047D2*
X5147343D1*
X5468757D2*
X5687020D1*
X5871347D2*
X5909233D1*
X1134863Y2242717D2*
X1292240D1*
X1746997D2*
X1773033D1*
X2724810D2*
X2840443D1*
X4835930D2*
X4914830D1*
X5056047D2*
X5185443D1*
X5468757D2*
X5687020D1*
X5871347D2*
X5909233D1*
X1134863Y2179550D2*
X1338177D1*
X1425437D2*
X1467423D1*
X1773340D2*
X1995703D1*
X2171920D2*
X2253830D1*
X2741400D2*
X2777280D1*
X5056047D2*
X5275130D1*
X5468757D2*
X5687020D1*
X5871347D2*
X5909233D1*
X6379393D2*
X6741213D1*
X1381503Y2116383D2*
X1467423D1*
X1794667D2*
X2062970D1*
X2104573D2*
X2190210D1*
X5039277D2*
X5275130D1*
X5468757D2*
X5687020D1*
X5871347D2*
X5909233D1*
X6371920D2*
X6741213D1*
X1437103Y2053217D2*
X1467423D1*
X2049237D2*
X2127047D1*
X4976203D2*
X5069507D1*
X5474863D2*
X5687020D1*
X5871347D2*
X5909233D1*
X6236477D2*
X6741213D1*
X1460437Y1990050D2*
X1482827D1*
X2422113D2*
X2829323D1*
X3170150D2*
X3718450D1*
X4125083D2*
X4637567D1*
X4810317D2*
X5017553D1*
X5516150D2*
X5687020D1*
X5871347D2*
X5909233D1*
X6236477D2*
X6741213D1*
X1462803Y1926883D2*
X1493307D1*
X1750917D2*
X1931080D1*
X2413363D2*
X2588243D1*
X2756347D2*
X2829323D1*
X2970540D2*
X3005783D1*
X3164770D2*
X3664310D1*
X5313807D2*
X5375210D1*
X5516423D2*
X5687020D1*
X5871347D2*
X5909233D1*
X6236477D2*
X6741213D1*
X1445030Y1863717D2*
X1517737D1*
X1690303D2*
X1803933D1*
X1912247D2*
X1937487D1*
X2280473D2*
X2540390D1*
X2756710D2*
X2829323D1*
X2970540D2*
X3005783D1*
X3164770D2*
X3660663D1*
X5085670D2*
X5150443D1*
X5510863D2*
X5687020D1*
X5871347D2*
X5909233D1*
X6236477D2*
X6741213D1*
X1399640Y1800550D2*
X1441810D1*
X2075943D2*
X2121487D1*
X2280473D2*
X2477227D1*
X2678780D2*
X2829323D1*
X2970540D2*
X3005783D1*
X3164770D2*
X3184520D1*
X3337310D2*
X3660663D1*
X3806620D2*
X3913867D1*
X4108220D2*
X4700093D1*
X5563000D2*
X5673347D1*
X5871347D2*
X5909233D1*
X6236477D2*
X6741213D1*
X1182713Y1737383D2*
X1417020D1*
X2029367D2*
X2121487D1*
X2280473D2*
X2423543D1*
X2615617D2*
X2637043D1*
X2759993D2*
X2829323D1*
X2970540D2*
X3005783D1*
X3349707D2*
X3501160D1*
X3623963D2*
X3675703D1*
X3869783D2*
X3977033D1*
X4171387D2*
X4618333D1*
X5860773D2*
X5909233D1*
X6236477D2*
X6741213D1*
X1201853Y1674217D2*
X1429507D1*
X2278013D2*
X2419897D1*
X2566217D2*
X2591267D1*
X2805930D2*
X2829427D1*
X2970540D2*
X3005783D1*
X3164770D2*
X3228177D1*
X3293650D2*
X3455223D1*
X3669900D2*
X3738593D1*
X3889927D2*
X3961447D1*
X4234550D2*
X4424740D1*
X4786257D2*
X5229740D1*
X5802440D2*
X5909233D1*
X6236477D2*
X6741213D1*
X1161113Y1611050D2*
X1300807D1*
X2228793D2*
X2419897D1*
X2566217D2*
X2588143D1*
X3209160D2*
X3357423D1*
X3673000D2*
X3748713D1*
X3889927D2*
X3962357D1*
X4756907D2*
X5182163D1*
X5739277D2*
X5909233D1*
X6236477D2*
X6741213D1*
X1070697Y1547883D2*
X1295067D1*
X2167090D2*
X2419897D1*
X2566217D2*
X2588143D1*
X3241517D2*
X3282773D1*
X3673000D2*
X3750717D1*
X3932310D2*
X3962357D1*
X4546360D2*
X4610677D1*
X4896633D2*
X5118997D1*
X5676113D2*
X5909233D1*
X6236477D2*
X6741213D1*
X1070697Y1484717D2*
X1529857D1*
X1996280D2*
X2419897D1*
X2566217D2*
X2603463D1*
X3216360D2*
X3244310D1*
X3657687D2*
X3801120D1*
X4384757D2*
X4610677D1*
X4916687D2*
X5061577D1*
X6236477D2*
X6741213D1*
X1070697Y1421550D2*
X1569140D1*
X1765957D2*
X1803203D1*
X1957910D2*
X2419897D1*
X2566217D2*
X2629713D1*
X3626423D2*
X3835300D1*
X4321867D2*
X4610677D1*
X4877493D2*
X5052007D1*
X6236477D2*
X6741213D1*
X1070697Y1358383D2*
X1760640D1*
X2000473D2*
X2419897D1*
X4312297D2*
X4391107D1*
X4436710D2*
X4547150D1*
X5236333D2*
X5258360D1*
X6236477D2*
X7138060D1*
X1070697Y1295217D2*
X1761187D1*
X1999837D2*
X2403033D1*
X4517010D2*
X4547150D1*
X5236333D2*
X5258360D1*
X6236477D2*
X7138060D1*
X1070697Y1232050D2*
X1479820D1*
X1601257D2*
X1679793D1*
X2024447D2*
X2294937D1*
X2807753D2*
X3453307D1*
X4522663D2*
X4547150D1*
X5227127D2*
X5263373D1*
X6231463D2*
X7138060D1*
X1070697Y1168883D2*
X1424037D1*
X2087610D2*
X2231770D1*
X2808937D2*
X3452123D1*
X5170070D2*
X7138060D1*
X1070697Y1105717D2*
X1418750D1*
X1862387D2*
X1895260D1*
X2565303D2*
X2592723D1*
X2804380D2*
X3456680D1*
X5106907D2*
X7138060D1*
X3458470Y1216143D2*
X3459750Y1232457D1*
X3463563Y1248337D1*
X3470267Y1264233D1*
X2790793Y1264220D1*
X2797537Y1248337D1*
X2801350Y1232457D1*
X2802630Y1216173D1*
X2802310Y1128007D1*
X2799753Y1111877D1*
X2794707Y1096343D1*
X2787293Y1081793D1*
X2777693Y1068580D1*
X2766143Y1057030D1*
X2754390Y1048407D1*
X3506520Y1048423D1*
X3494957Y1057030D1*
X3483407Y1068580D1*
X3473807Y1081793D1*
X3466393Y1096343D1*
X3461347Y1111877D1*
X3458790Y1128007D1*
X3458470Y1216057D1*
Y1649043D2*
X3459750Y1665357D1*
X3463563Y1681237D1*
X3469813Y1696327D1*
X3478347Y1710250D1*
X3488953Y1722670D1*
X3501373Y1733277D1*
X3515300Y1741810D1*
X3530387Y1748060D1*
X3546267Y1751873D1*
X3562550Y1753153D1*
X3578833Y1751873D1*
X3594713Y1748060D1*
X3609800Y1741810D1*
X3623727Y1733277D1*
X3636147Y1722670D1*
X3646753Y1710250D1*
X3655287Y1696327D1*
X3661537Y1681237D1*
X3665350Y1665357D1*
X3666630Y1649073D1*
X3666310Y1530907D1*
X3663753Y1514777D1*
X3658707Y1499243D1*
X3651293Y1484693D1*
X3641693Y1471480D1*
X3630143Y1459930D1*
X3616930Y1450330D1*
X3602380Y1442917D1*
X3586847Y1437870D1*
X3575187Y1435843D1*
X3592587Y1433510D1*
X3605397Y1429347D1*
X3617397Y1423233D1*
X3628293Y1415317D1*
X3684350Y1359633D1*
X3841660Y1359680D1*
X3841683Y1450490D1*
X3770470Y1521980D1*
X3764547Y1530133D1*
X3759970Y1539117D1*
X3756853Y1548703D1*
X3755277Y1558660D1*
X3755080Y1664050D1*
X3682450Y1736957D1*
X3676527Y1745110D1*
X3671950Y1754093D1*
X3668833Y1763680D1*
X3667257Y1773637D1*
X3667060Y1905677D1*
X3667850Y1915727D1*
X3670203Y1925527D1*
X3674060Y1934840D1*
X3679330Y1943437D1*
X3685890Y1951113D1*
X3729973Y1994920D1*
X3733950Y1998053D1*
X3718657Y2000187D1*
X3164580D1*
X3163470Y1987773D1*
X3160390Y1974943D1*
X3158420Y1969597D1*
X3158413Y1628413D1*
X3170737Y1626487D1*
X3183287Y1622410D1*
X3195043Y1616420D1*
X3205717Y1608663D1*
X3215043Y1599337D1*
X3222800Y1588663D1*
X3228790Y1576907D1*
X3232867Y1564357D1*
X3234930Y1551327D1*
Y1538133D1*
X3232867Y1525103D1*
X3228790Y1512553D1*
X3222800Y1500797D1*
X3215043Y1490123D1*
X3205717Y1480797D1*
X3195043Y1473040D1*
X3183287Y1467050D1*
X3168083Y1462443D1*
X3165247Y1451067D1*
X3158523Y1435887D1*
X3261140Y1435880D1*
X3254463Y1451067D1*
X3251383Y1463897D1*
X3250347Y1477050D1*
X3251383Y1490203D1*
X3254463Y1503033D1*
X3259510Y1515220D1*
X3266403Y1526470D1*
X3274973Y1536503D1*
X3285007Y1545073D1*
X3296257Y1551967D1*
X3308443Y1557013D1*
X3321273Y1560093D1*
X3334143Y1561120D1*
X3339100Y1577497D1*
X3345303Y1589673D1*
X3353333Y1600727D1*
X3362997Y1610390D1*
X3374050Y1618423D1*
X3386227Y1624627D1*
X3399220Y1628847D1*
X3412717Y1630987D1*
X3426383D1*
X3439880Y1628847D1*
X3452873Y1624627D1*
X3458477Y1622043D1*
X3458470Y1648880D1*
X3549597Y1435880D2*
X3538253Y1437870D1*
X3522720Y1442917D1*
X3508170Y1450330D1*
X3494957Y1459930D1*
X3483407Y1471480D1*
X3477480Y1479197D1*
X3465050Y1469927D1*
X3452873Y1463723D1*
X3439880Y1459500D1*
X3426383Y1457363D1*
X3416160Y1457227D1*
X3412107Y1444873D1*
X3407667Y1435887D1*
X3548980Y1435880D1*
X2642710Y1048407D2*
X2630957Y1057030D1*
X2619407Y1068580D1*
X2609807Y1081793D1*
X2602393Y1096343D1*
X2597347Y1111877D1*
X2594790Y1128007D1*
X2594470Y1136207D1*
X2579250Y1124367D1*
X2564670Y1110160D1*
X2553773Y1102243D1*
X2541773Y1096130D1*
X2528963Y1091967D1*
X2515660Y1089860D1*
X2401647Y1089597D1*
X2360427Y1048417D1*
X2642640Y1048423D1*
X2594470Y1649043D2*
X2595750Y1665357D1*
X2599563Y1681237D1*
X2605813Y1696327D1*
X2614347Y1710250D1*
X2624953Y1722670D1*
X2637373Y1733277D1*
X2651300Y1741810D1*
X2666387Y1748060D1*
X2682267Y1751873D1*
X2698550Y1753153D1*
X2714833Y1751873D1*
X2730713Y1748060D1*
X2745800Y1741810D1*
X2759727Y1733277D1*
X2772147Y1722670D1*
X2782753Y1710250D1*
X2791287Y1696327D1*
X2797537Y1681237D1*
X2801350Y1665357D1*
X2802630Y1649073D1*
Y1622003D1*
X2814640Y1626993D1*
X2827927Y1630183D1*
X2835707Y1631023D1*
X2835710Y2000247D1*
X2412400Y2000187D1*
X2416057Y1988800D1*
X2418120Y1975770D1*
Y1962577D1*
X2416057Y1949547D1*
X2411980Y1936997D1*
X2405990Y1925240D1*
X2398233Y1914567D1*
X2388907Y1905240D1*
X2378233Y1897483D1*
X2366477Y1891493D1*
X2353927Y1887417D1*
X2340897Y1885353D1*
X2327703D1*
X2314673Y1887417D1*
X2302123Y1891493D1*
X2294667Y1895077D1*
X2283643Y1890217D1*
X2280963Y1879690D1*
X2275917Y1867503D1*
X2274140Y1864330D1*
X2273903Y1687263D1*
X2272110Y1675927D1*
X2268563Y1665013D1*
X2263353Y1654790D1*
X2256610Y1645507D1*
X2161387Y1549963D1*
X2155217Y1534130D1*
X2148323Y1522880D1*
X2139753Y1512847D1*
X2129720Y1504277D1*
X2118470Y1497383D1*
X2106283Y1492337D1*
X2093453Y1489257D1*
X2080300Y1488220D1*
X2067147Y1489257D1*
X2054317Y1492337D1*
X2042130Y1497383D1*
X2030880Y1504277D1*
X2020847Y1512847D1*
X2012277Y1522880D1*
X2004790Y1535417D1*
X1997767Y1537027D1*
Y1518573D1*
X1994880Y1500350D1*
X1989180Y1482803D1*
X1980803Y1466363D1*
X1969960Y1451437D1*
X1956913Y1438390D1*
X1942377Y1427807D1*
X1956913Y1417210D1*
X1969960Y1404163D1*
X1980803Y1389237D1*
X1989180Y1372797D1*
X1994880Y1355250D1*
X1997767Y1337027D1*
Y1318573D1*
X1994880Y1300350D1*
X1989180Y1282803D1*
X1981843Y1268220D1*
X2099980Y1150123D1*
X2219463Y1150130D1*
X2310310Y1240693D1*
X2321207Y1248610D1*
X2333207Y1254723D1*
X2346017Y1258887D1*
X2359320Y1260993D1*
X2412810Y1261257D1*
X2410007Y1273397D1*
X2408970Y1286550D1*
X2410007Y1299703D1*
X2413087Y1312533D1*
X2418133Y1324720D1*
X2426257Y1337530D1*
X2426477Y1720810D1*
X2428113Y1731160D1*
X2431353Y1741127D1*
X2436110Y1750463D1*
X2442270Y1758940D1*
X2588973Y1905933D1*
X2592317Y1920783D1*
X2597363Y1932970D1*
X2604257Y1944220D1*
X2612827Y1954253D1*
X2622860Y1962823D1*
X2634110Y1969717D1*
X2646297Y1974763D1*
X2659127Y1977843D1*
X2672280Y1978880D1*
X2685433Y1977843D1*
X2698263Y1974763D1*
X2710450Y1969717D1*
X2721700Y1962823D1*
X2731733Y1954253D1*
X2740303Y1944220D1*
X2747197Y1932970D1*
X2752243Y1920783D1*
X2755323Y1907953D1*
X2756360Y1894800D1*
X2755323Y1881647D1*
X2752243Y1868817D1*
X2747197Y1856630D1*
X2740303Y1845380D1*
X2731733Y1835347D1*
X2721700Y1826777D1*
X2710450Y1819883D1*
X2698263Y1814837D1*
X2683460Y1811523D1*
X2559860Y1687937D1*
X2559830Y1347797D1*
X2627807Y1415317D1*
X2638703Y1423233D1*
X2650703Y1429347D1*
X2663513Y1433510D1*
X2676817Y1435617D1*
X2684917Y1435880D1*
X2666387Y1440087D1*
X2651300Y1446337D1*
X2637373Y1454873D1*
X2624953Y1465480D1*
X2614347Y1477897D1*
X2605813Y1491823D1*
X2599563Y1506913D1*
X2595750Y1522793D1*
X2594470Y1539107D1*
Y1648747D1*
X2783620Y1479197D2*
X2772147Y1465480D1*
X2759727Y1454873D1*
X2745800Y1446337D1*
X2730713Y1440087D1*
X2714833Y1436277D1*
X2730217Y1435880D1*
X2815803D1*
X2818193Y1453557D1*
X2819963Y1459837D1*
X2808227Y1463723D1*
X2796050Y1469927D1*
X2783683Y1479173D1*
X4306580Y1357743D2*
X4319333Y1354547D1*
X4334537Y1348250D1*
X4350363Y1338237D1*
X4364997Y1347567D1*
X4377777Y1353253D1*
X4391203Y1357190D1*
X4405033Y1359303D1*
X4419020Y1359557D1*
X4432917Y1357947D1*
X4446473Y1354500D1*
X4459453Y1349280D1*
X4471623Y1342380D1*
X4482767Y1333923D1*
X4492683Y1324057D1*
X4501200Y1312957D1*
X4508167Y1300823D1*
X4513453Y1287873D1*
X4516970Y1274333D1*
X4518650Y1260443D1*
X4518387Y1245480D1*
X4516220Y1231660D1*
X4512230Y1218250D1*
X4506490Y1205493D1*
X4501923Y1197753D1*
X4553540D1*
X4553520Y1400957D1*
X4617050D1*
X4617020Y1615847D1*
X4608947Y1602253D1*
X4600377Y1592220D1*
X4590343Y1583650D1*
X4579093Y1576757D1*
X4566907Y1571710D1*
X4553640Y1568577D1*
X4545450Y1554630D1*
X4536880Y1544597D1*
X4526847Y1536027D1*
X4515597Y1529133D1*
X4503410Y1524087D1*
X4490580Y1521007D1*
X4477427Y1519970D1*
X4464273Y1521007D1*
X4451443Y1524087D1*
X4439257Y1529133D1*
X4428007Y1536027D1*
X4417817Y1544767D1*
X4414513Y1530443D1*
X4409467Y1518257D1*
X4402573Y1507007D1*
X4394003Y1496973D1*
X4383970Y1488403D1*
X4372720Y1481510D1*
X4360533Y1476463D1*
X4353090Y1474453D1*
X4348730Y1460750D1*
X4342740Y1448993D1*
X4334983Y1438320D1*
X4325657Y1428993D1*
X4314983Y1421237D1*
X4303227Y1415247D1*
X4290677Y1411170D1*
X4277647Y1409107D1*
X4264453D1*
X4255913Y1409927D1*
Y1408377D1*
X4306510Y1357813D1*
X3591707Y2905023D2*
X3592050Y2716040D1*
X3736340Y2715843D1*
X3746297Y2714267D1*
X3755883Y2711150D1*
X3764867Y2706573D1*
X3773037Y2700637D1*
X3779250Y2703500D1*
X3745950Y2737080D1*
X3740027Y2745233D1*
X3735450Y2754217D1*
X3732333Y2763803D1*
X3730757Y2773760D1*
X3730560Y2851627D1*
X3723110Y2861867D1*
X3717120Y2873623D1*
X3713043Y2886173D1*
X3710980Y2899203D1*
X3710300Y2905060D1*
X3591720D1*
X2572997Y2795127D2*
X2569547Y2816203D1*
Y2836643D1*
X2572747Y2856837D1*
X2579063Y2876280D1*
X2588343Y2894493D1*
X2595637Y2905040D1*
X2380693Y2904853D1*
X2393523Y2901773D1*
X2405710Y2896727D1*
X2416960Y2889833D1*
X2426993Y2881263D1*
X2435563Y2871230D1*
X2442457Y2859980D1*
X2447503Y2847793D1*
X2450583Y2834963D1*
X2451620Y2821810D1*
X2450583Y2808657D1*
X2447227Y2795077D1*
X2572883Y2795090D1*
X4750670Y1400957D2*
X4814080D1*
Y1311543D1*
X4821720Y1329823D1*
X4832400Y1347253D1*
X4845677Y1362800D1*
X4861223Y1376077D1*
X4878653Y1386757D1*
X4897540Y1394580D1*
X4917420Y1399353D1*
X4937800Y1400957D1*
X4958180Y1399353D1*
X4978060Y1394580D1*
X4996947Y1386757D1*
X5014377Y1376077D1*
X5029923Y1362800D1*
X5043200Y1347253D1*
X5053880Y1329823D1*
X5058343Y1320047D1*
X5058607Y1452030D1*
X5060713Y1465333D1*
X5064877Y1478143D1*
X5070990Y1490143D1*
X5078907Y1501040D1*
X5182477Y1604983D1*
X5215433Y1637567D1*
X5226330Y1645483D1*
X5238330Y1651597D1*
X5251140Y1655760D1*
X5264443Y1657867D1*
X5411177Y1658130D1*
X5467413D1*
X5458320Y1664257D1*
X5265933Y1664477D1*
X5255583Y1666117D1*
X5245617Y1669353D1*
X5236280Y1674110D1*
X5227803Y1680270D1*
X5211773Y1696010D1*
X4790880Y1696020D1*
X4782717Y1686147D1*
X4779637Y1673317D1*
X4774590Y1661130D1*
X4767697Y1649880D1*
X4759127Y1639847D1*
X4750573Y1632443D1*
X4750580Y1528737D1*
X4758650Y1542347D1*
X4767220Y1552380D1*
X4777253Y1560950D1*
X4788503Y1567843D1*
X4800690Y1572890D1*
X4813520Y1575970D1*
X4826673Y1577007D1*
X4839827Y1575970D1*
X4852657Y1572890D1*
X4864843Y1567843D1*
X4876093Y1560950D1*
X4886127Y1552380D1*
X4894697Y1542347D1*
X4901590Y1531097D1*
X4906637Y1518910D1*
X4909717Y1506080D1*
X4910753Y1492927D1*
X4909717Y1479773D1*
X4906637Y1466943D1*
X4901590Y1454757D1*
X4894697Y1443507D1*
X4886127Y1433473D1*
X4876093Y1424903D1*
X4864843Y1418010D1*
X4852657Y1412963D1*
X4839827Y1409883D1*
X4826673Y1408847D1*
X4813520Y1409883D1*
X4800690Y1412963D1*
X4788503Y1418010D1*
X4777253Y1424903D1*
X4767220Y1433473D1*
X4758650Y1443507D1*
X4750580Y1457307D1*
Y1400953D1*
X1347793Y2480243D2*
X1345117Y2463337D1*
X1339827Y2447057D1*
X1332057Y2431807D1*
X1321997Y2417957D1*
X1309893Y2405853D1*
X1296043Y2395793D1*
X1280793Y2388023D1*
X1264513Y2382733D1*
X1247607Y2380057D1*
X1230493D1*
X1213587Y2382733D1*
X1197307Y2388023D1*
X1182057Y2395793D1*
X1168207Y2405853D1*
X1156103Y2417957D1*
X1146043Y2431807D1*
X1138273Y2447057D1*
X1132983Y2463337D1*
X1130307Y2480243D1*
X1128540Y2462257D1*
X1129080Y2118333D1*
X1142600Y2127367D1*
X1156787Y2135313D1*
X1171553Y2142120D1*
X1186807Y2147747D1*
X1202457Y2152160D1*
X1218407Y2155333D1*
X1234553Y2157243D1*
X1250800Y2157883D1*
X1267047Y2157243D1*
X1283193Y2155333D1*
X1299143Y2152160D1*
X1314793Y2147747D1*
X1330047Y2142120D1*
X1344813Y2135313D1*
X1359000Y2127367D1*
X1372520Y2118333D1*
X1385290Y2108267D1*
X1397230Y2097230D1*
X1408267Y2085290D1*
X1418333Y2072520D1*
X1427367Y2059000D1*
X1435313Y2044813D1*
X1442120Y2030047D1*
X1447747Y2014793D1*
X1452160Y1999143D1*
X1455333Y1983193D1*
X1457243Y1967047D1*
X1457883Y1950800D1*
X1457243Y1934553D1*
X1455333Y1918407D1*
X1452160Y1902457D1*
X1447747Y1886807D1*
X1442120Y1871553D1*
X1435313Y1856787D1*
X1427367Y1842600D1*
X1418333Y1829080D1*
X1408267Y1816310D1*
X1397230Y1804370D1*
X1385290Y1793333D1*
X1372520Y1783267D1*
X1359000Y1774233D1*
X1344813Y1766287D1*
X1330047Y1759480D1*
X1314793Y1753853D1*
X1299143Y1749440D1*
X1283193Y1746267D1*
X1267047Y1744357D1*
X1250800Y1743717D1*
X1234553Y1744357D1*
X1218407Y1746267D1*
X1202457Y1749440D1*
X1186807Y1753853D1*
X1171553Y1759480D1*
X1156787Y1766287D1*
X1142600Y1774233D1*
X1128530Y1783700D1*
X1131553Y1765180D1*
X1144103Y1761103D1*
X1155860Y1755113D1*
X1166533Y1747357D1*
X1175860Y1738030D1*
X1183617Y1727357D1*
X1189607Y1715600D1*
X1193683Y1703050D1*
X1195747Y1690020D1*
Y1676827D1*
X1193683Y1663797D1*
X1189607Y1651247D1*
X1183617Y1639490D1*
X1175860Y1628817D1*
X1166533Y1619490D1*
X1155860Y1611733D1*
X1144103Y1605743D1*
X1131553Y1601667D1*
X1118523Y1599603D1*
X1105330D1*
X1092300Y1601667D1*
X1079750Y1605743D1*
X1067993Y1611733D1*
X1064287Y1614213D1*
X1064300Y1048400D1*
X1453733Y1048423D1*
X1445427Y1058687D1*
X1435787Y1074420D1*
X1428723Y1091467D1*
X1424417Y1109407D1*
X1422970Y1127800D1*
X1424417Y1146193D1*
X1428723Y1164133D1*
X1435787Y1181180D1*
X1445427Y1196913D1*
X1457410Y1210940D1*
X1471437Y1222923D1*
X1487170Y1232563D1*
X1504217Y1239627D1*
X1522157Y1243933D1*
X1540550Y1245380D1*
X1558943Y1243933D1*
X1576883Y1239627D1*
X1593930Y1232563D1*
X1609663Y1222923D1*
X1623690Y1210940D1*
X1635673Y1196913D1*
X1640543Y1189627D1*
X1651140Y1204163D1*
X1664187Y1217210D1*
X1679113Y1228053D1*
X1695553Y1236430D1*
X1713100Y1242130D1*
X1731323Y1245017D1*
X1749777D1*
X1768000Y1242130D1*
X1785547Y1236430D1*
X1796417Y1231173D1*
X1794983Y1241467D1*
X1791140Y1251437D1*
X1780297Y1266363D1*
X1771920Y1282803D1*
X1766220Y1300350D1*
X1763333Y1318573D1*
Y1337027D1*
X1766220Y1355250D1*
X1771920Y1372797D1*
X1780297Y1389237D1*
X1791140Y1404163D1*
X1804187Y1417210D1*
X1818723Y1427793D1*
X1804187Y1438390D1*
X1791140Y1451437D1*
X1789467Y1453563D1*
X1783197Y1443503D1*
X1774627Y1433470D1*
X1764593Y1424900D1*
X1753343Y1418007D1*
X1741157Y1412960D1*
X1728327Y1409880D1*
X1715173Y1408843D1*
X1702020Y1409880D1*
X1689190Y1412960D1*
X1677003Y1418007D1*
X1667617Y1423653D1*
X1658093Y1418010D1*
X1645907Y1412963D1*
X1633077Y1409883D1*
X1619923Y1408847D1*
X1606770Y1409883D1*
X1593940Y1412963D1*
X1581753Y1418010D1*
X1570503Y1424903D1*
X1560470Y1433473D1*
X1551900Y1443507D1*
X1545007Y1454757D1*
X1539960Y1466943D1*
X1536880Y1479773D1*
X1535843Y1492927D1*
X1536880Y1506080D1*
X1539960Y1518910D1*
X1545007Y1531097D1*
X1550627Y1540440D1*
X1532003Y1530727D1*
X1512917Y1511990D1*
X1502827Y1504660D1*
X1491717Y1498997D1*
X1479853Y1495143D1*
X1467537Y1493190D1*
X1409257Y1492947D1*
X1394953Y1489383D1*
X1381800Y1488347D1*
X1368647Y1489383D1*
X1355817Y1492463D1*
X1343630Y1497510D1*
X1332380Y1504403D1*
X1322347Y1512973D1*
X1313777Y1523007D1*
X1306883Y1534257D1*
X1301837Y1546443D1*
X1298757Y1559273D1*
X1297720Y1572427D1*
X1298757Y1585580D1*
X1301837Y1598410D1*
X1306883Y1610597D1*
X1313777Y1621847D1*
X1322347Y1631880D1*
X1332380Y1640450D1*
X1343630Y1647343D1*
X1355817Y1652390D1*
X1368647Y1655470D1*
X1381800Y1656507D1*
X1394953Y1655470D1*
X1409113Y1651900D1*
X1438097Y1661627D1*
X1441327Y1664853D1*
X1435787Y1674420D1*
X1428723Y1691467D1*
X1424417Y1709407D1*
X1422970Y1727800D1*
X1424417Y1746193D1*
X1428723Y1764133D1*
X1435787Y1781180D1*
X1445427Y1796913D1*
X1457410Y1810940D1*
X1471437Y1822923D1*
X1487170Y1832563D1*
X1504217Y1839627D1*
X1522157Y1843933D1*
X1532873Y1845080D1*
X1526370Y1857623D1*
X1522293Y1870173D1*
X1520230Y1883203D1*
Y1896397D1*
X1520960Y1902570D1*
X1508367Y1914567D1*
X1500610Y1925240D1*
X1494620Y1936997D1*
X1490543Y1949547D1*
X1488480Y1962577D1*
Y1975770D1*
X1490477Y1988473D1*
X1483610Y1997780D1*
X1478853Y2007117D1*
X1475613Y2017083D1*
X1473977Y2027433D1*
X1473770Y2312673D1*
Y2457870D1*
X1465633Y2470757D1*
X1460587Y2482943D1*
X1457507Y2495773D1*
X1456470Y2508927D1*
X1457507Y2522080D1*
X1460527Y2535223D1*
X1452770Y2545897D1*
X1446780Y2557653D1*
X1442703Y2570203D1*
X1440640Y2583233D1*
Y2596427D1*
X1442703Y2609457D1*
X1444523Y2615883D1*
X1400837Y2572187D1*
X1398767Y2559583D1*
X1394690Y2547033D1*
X1388700Y2535277D1*
X1380943Y2524603D1*
X1371617Y2515277D1*
X1360943Y2507520D1*
X1347467Y2500897D1*
X1348130Y2488800D1*
X1347793Y2480243D1*
X1949037Y2380227D2*
X1930493Y2380057D1*
X1913587Y2382733D1*
X1897307Y2388023D1*
X1882057Y2395793D1*
X1868207Y2405853D1*
X1856103Y2417957D1*
X1846043Y2431807D1*
X1838273Y2447057D1*
X1832983Y2463337D1*
X1830307Y2480243D1*
Y2497357D1*
X1831360Y2506093D1*
X1799843Y2506080D1*
X1743893Y2450093D1*
X1760080Y2449093D1*
X1772910Y2446013D1*
X1785097Y2440967D1*
X1796347Y2434073D1*
X1806380Y2425503D1*
X1814950Y2415470D1*
X1821843Y2404220D1*
X1826890Y2392033D1*
X1829970Y2379203D1*
X1830690Y2373133D1*
X1884707Y2319117D1*
X2056657Y2319167D1*
X2056263Y2325090D1*
X2042613Y2321717D1*
X2029460Y2320680D1*
X2016307Y2321717D1*
X2003477Y2324797D1*
X1991290Y2329843D1*
X1980040Y2336737D1*
X1970007Y2345307D1*
X1961437Y2355340D1*
X1954543Y2366590D1*
X1949097Y2380193D1*
X2046740Y2506093D2*
X2048130Y2488800D1*
X2048050Y2486760D1*
X2061637Y2482440D1*
X2073393Y2476450D1*
X2084067Y2468693D1*
X2093393Y2459367D1*
X2101150Y2448693D1*
X2107140Y2436937D1*
X2111217Y2424387D1*
X2113280Y2411357D1*
X2113457Y2406900D1*
X2127107Y2410273D1*
X2140260Y2411310D1*
X2153413Y2410273D1*
X2166243Y2407193D1*
X2178430Y2402147D1*
X2189680Y2395253D1*
X2199713Y2386683D1*
X2208283Y2376650D1*
X2215177Y2365400D1*
X2220223Y2353213D1*
X2223303Y2340383D1*
X2224340Y2327230D1*
X2223907Y2319173D1*
X2244427Y2319400D1*
X2260843Y2335533D1*
X2259487Y2337790D1*
X2248813Y2345547D1*
X2239487Y2354873D1*
X2231730Y2365547D1*
X2225740Y2377303D1*
X2221663Y2389853D1*
X2219600Y2402883D1*
Y2416077D1*
X2221663Y2429107D1*
X2225740Y2441657D1*
X2231730Y2453413D1*
X2235700Y2459287D1*
X2188883Y2506110D1*
X2046667Y2506080D1*
X1857767Y1118573D2*
X1854880Y1100350D1*
X1849180Y1082803D1*
X1840803Y1066363D1*
X1829960Y1051437D1*
X1827193Y1048447D1*
X1958867Y1048423D1*
X1855690Y1151650D1*
X1857767Y1137027D1*
Y1118573D1*
X1625870Y1808583D2*
X1635673Y1796913D1*
X1640543Y1789627D1*
X1651140Y1804163D1*
X1664187Y1817210D1*
X1679113Y1828053D1*
X1695553Y1836430D1*
X1713100Y1842130D1*
X1731323Y1845017D1*
X1749777D1*
X1768000Y1842130D1*
X1785240Y1836543D1*
X1794117Y1849157D1*
X1803443Y1858483D1*
X1814117Y1866240D1*
X1825873Y1872230D1*
X1838423Y1876307D1*
X1851453Y1878370D1*
X1864647D1*
X1877677Y1876307D1*
X1890227Y1872230D1*
X1901983Y1866240D1*
X1909030Y1861343D1*
X1941450Y1861330D1*
X2000517Y1920337D1*
X1983547Y1917260D1*
X1970353D1*
X1957323Y1919323D1*
X1944773Y1923400D1*
X1935650Y1927917D1*
X1745393Y1927810D1*
X1685097Y1867427D1*
X1678967Y1851630D1*
X1672073Y1840380D1*
X1663503Y1830347D1*
X1653470Y1821777D1*
X1642220Y1814883D1*
X1630033Y1809837D1*
X1625887Y1808667D1*
X2287853Y2795077D2*
X2284497Y2808657D1*
X2283460Y2821810D1*
X2284497Y2834963D1*
X2287577Y2847793D1*
X2292623Y2859980D1*
X2299517Y2871230D1*
X2308087Y2881263D1*
X2318120Y2889833D1*
X2329370Y2896727D1*
X2341557Y2901773D1*
X2356103Y2905057D1*
X1551330Y2905060D1*
X1309143Y2662917D1*
X1354080Y2707130D1*
X1426930Y2779700D1*
X1435083Y2785623D1*
X1444067Y2790200D1*
X1453653Y2793317D1*
X1463610Y2794893D1*
X1771983Y2795090D1*
X2287777D1*
X4255917Y1586013D2*
X4262860Y1600360D1*
X4270617Y1611033D1*
X4279943Y1620360D1*
X4290617Y1628117D1*
X4302373Y1634107D1*
X4314923Y1638183D1*
X4327953Y1640247D1*
X4341147D1*
X4354177Y1638183D1*
X4366727Y1634107D1*
X4378483Y1628117D1*
X4389157Y1620360D1*
X4394160Y1615710D1*
X4397463Y1630033D1*
X4402510Y1642220D1*
X4409403Y1653470D1*
X4417973Y1663503D1*
X4428007Y1672073D1*
X4439257Y1678967D1*
X4451443Y1684013D1*
X4464710Y1687147D1*
X4472900Y1701093D1*
X4481470Y1711127D1*
X4491503Y1719697D1*
X4502753Y1726590D1*
X4514940Y1731637D1*
X4527770Y1734717D1*
X4540923Y1735753D1*
X4554077Y1734717D1*
X4566907Y1731637D1*
X4579093Y1726590D1*
X4590343Y1719697D1*
X4600377Y1711127D1*
X4608947Y1701093D1*
X4616217Y1689027D1*
X4615853Y1705897D1*
X4617917Y1718927D1*
X4621993Y1731477D1*
X4627983Y1743233D1*
X4635740Y1753907D1*
X4645067Y1763233D1*
X4655740Y1770990D1*
X4667497Y1776980D1*
X4680047Y1781057D1*
X4688493Y1782577D1*
X4719803Y1813580D1*
X4728280Y1819740D1*
X4737617Y1824497D1*
X4747583Y1827737D1*
X4757933Y1829373D1*
X5043173Y1829580D1*
X5156833D1*
X5156770Y1937447D1*
X5153307Y1937747D1*
X5072103Y1856823D1*
X5063950Y1850900D1*
X5054967Y1846323D1*
X5045380Y1843207D1*
X5035423Y1841630D1*
X4727050Y1841433D1*
X4107260Y1841630D1*
X4097303Y1843207D1*
X4087717Y1846323D1*
X4078733Y1850900D1*
X4070580Y1856823D1*
X4045283Y1881840D1*
X4020587Y1881830D1*
X4240523Y1661647D1*
X4246447Y1653493D1*
X4251023Y1644510D1*
X4254140Y1634923D1*
X4255717Y1624967D1*
X4255913Y1586110D1*
X2798550Y2600370D2*
X2784567Y2603587D1*
X2772380Y2608633D1*
X2761130Y2615527D1*
X2748977Y2626387D1*
X2725270Y2602950D1*
X2717117Y2597027D1*
X2708133Y2592450D1*
X2698547Y2589333D1*
X2688590Y2587757D1*
X2380217Y2587560D1*
X2314317D1*
X2335690Y2566150D1*
X2764467Y2566180D1*
X2798587Y2600380D1*
X5069377Y2458027D2*
X5068470Y2448147D1*
X5065390Y2435317D1*
X5060343Y2423130D1*
X5053450Y2411880D1*
X5049663Y2407080D1*
X5049470Y2154633D1*
X5047893Y2144677D1*
X5044777Y2135090D1*
X5040200Y2126107D1*
X5034277Y2117953D1*
X4935603Y2019003D1*
X4927940Y2012457D1*
X4919343Y2007187D1*
X4910030Y2003330D1*
X4900230Y2000977D1*
X4890160Y2000187D1*
X4806600D1*
X4801600Y1983653D1*
X4794277Y1969903D1*
X5003797Y1969913D1*
X5073577Y2039717D1*
X5075623Y2052297D1*
X5079700Y2064847D1*
X5085690Y2076603D1*
X5093447Y2087277D1*
X5102773Y2096603D1*
X5113447Y2104360D1*
X5125203Y2110350D1*
X5137753Y2114427D1*
X5150783Y2116490D1*
X5163977D1*
X5177007Y2114427D1*
X5189557Y2110350D1*
X5201313Y2104360D1*
X5211987Y2096603D1*
X5221313Y2087277D1*
X5229070Y2076603D1*
X5235060Y2064847D1*
X5239137Y2052297D1*
X5239937Y2048277D1*
X5281447Y2089767D1*
X5281353Y2241630D1*
X5269597Y2235640D1*
X5257047Y2231563D1*
X5244017Y2229500D1*
X5230823D1*
X5217793Y2231563D1*
X5205243Y2235640D1*
X5193487Y2241630D1*
X5182813Y2249387D1*
X5173487Y2258713D1*
X5165730Y2269387D1*
X5159740Y2281143D1*
X5155663Y2293693D1*
X5153600Y2306723D1*
Y2319917D1*
X5155663Y2332947D1*
X5159740Y2345497D1*
X5165730Y2357253D1*
X5173487Y2367927D1*
X5182077Y2376573D1*
X5100623Y2458033D1*
X5069510Y2458020D1*
X1465620Y2248330D2*
X1463557Y2235300D1*
X1459480Y2222750D1*
X1453490Y2210993D1*
X1445733Y2200320D1*
X1436407Y2190993D1*
X1425733Y2183237D1*
X1413977Y2177247D1*
X1401427Y2173170D1*
X1388397Y2171107D1*
X1375203D1*
X1362173Y2173170D1*
X1349623Y2177247D1*
X1337867Y2183237D1*
X1327193Y2190993D1*
X1317867Y2200320D1*
X1310110Y2210993D1*
X1304120Y2222750D1*
X1300043Y2235300D1*
X1297980Y2248330D1*
Y2261523D1*
X1300043Y2274553D1*
X1304120Y2287103D1*
X1310110Y2298860D1*
X1317867Y2309533D1*
X1327193Y2318860D1*
X1337867Y2326617D1*
X1349623Y2332607D1*
X1362173Y2336683D1*
X1375203Y2338747D1*
X1388397D1*
X1401427Y2336683D1*
X1413977Y2332607D1*
X1425733Y2326617D1*
X1436407Y2318860D1*
X1445733Y2309533D1*
X1453490Y2298860D1*
X1459480Y2287103D1*
X1463557Y2274553D1*
X1465620Y2261523D1*
Y2248330D1*
X4858347Y2215380D2*
X4874187Y2213207D1*
X4886737Y2209130D1*
X4898493Y2203140D1*
X4909167Y2195383D1*
X4919597Y2184657D1*
X4921187Y2206340D1*
Y2334400D1*
X4822423Y2235897D1*
X4813947Y2229737D1*
X4804590Y2224973D1*
X4808050Y2223913D1*
X4831377Y2223717D1*
X4841333Y2222140D1*
X4850920Y2219023D1*
X4855517Y2216903D1*
X2167403Y2190693D2*
X2165567Y2179583D1*
X2161490Y2167033D1*
X2155500Y2155277D1*
X2147743Y2144603D1*
X2138417Y2135277D1*
X2127743Y2127520D1*
X2115987Y2121530D1*
X2103437Y2117453D1*
X2090407Y2115390D1*
X2077213D1*
X2064183Y2117453D1*
X2051633Y2121530D1*
X2039877Y2127520D1*
X2029203Y2135277D1*
X2019877Y2144603D1*
X2012120Y2155277D1*
X2006130Y2167033D1*
X2002053Y2179583D1*
X2000217Y2190693D1*
X1853010Y2190883D1*
X1843053Y2192460D1*
X1833467Y2195577D1*
X1824483Y2200153D1*
X1816330Y2206077D1*
X1740633Y2281493D1*
X1740680Y2205833D1*
X1770783Y2175420D1*
X1777527Y2166137D1*
X1782737Y2155913D1*
X1786283Y2145000D1*
X1788077Y2133663D1*
X1788303Y2074060D1*
X1935430Y2074187D1*
X1950967Y2081043D1*
X1963797Y2084123D1*
X1976950Y2085160D1*
X1990103Y2084123D1*
X2002933Y2081043D1*
X2015120Y2075997D1*
X2026370Y2069103D1*
X2036403Y2060533D1*
X2044973Y2050500D1*
X2051867Y2039250D1*
X2056913Y2027063D1*
X2059993Y2014233D1*
X2061030Y2001080D1*
X2059993Y1987927D1*
X2057553Y1977357D1*
X2259180Y2178707D1*
X2267657Y2184867D1*
X2276993Y2189623D1*
X2280853Y2191477D1*
X2270783Y2190687D1*
X2167537D1*
X3881257Y2783190D2*
X3893800Y2781183D1*
X3906350Y2777107D1*
X3918107Y2771117D1*
X3928780Y2763360D1*
X3938107Y2754033D1*
X3945877Y2743337D1*
X3959377Y2747000D1*
X3964407Y2747593D1*
X3967043Y2766677D1*
X3971120Y2779227D1*
X3977110Y2790983D1*
X3984867Y2801657D1*
X3994193Y2810983D1*
X4004867Y2818740D1*
X4013463Y2823273D1*
X4005223Y2830473D1*
X3996653Y2840507D1*
X3989760Y2851757D1*
X3984713Y2863943D1*
X3981633Y2876773D1*
X3980597Y2889927D1*
X3982030Y2905077D1*
X3878830Y2905060D1*
X3877843Y2892647D1*
X3874763Y2879817D1*
X3869717Y2867630D1*
X3862823Y2856380D1*
X3859037Y2851580D1*
X3859040Y2805450D1*
X3881280Y2783170D1*
X2310397Y2194700D2*
X2310420Y2204337D1*
X2299967Y2197687D1*
X2290637Y2193827D1*
X2302570Y2194707D1*
X3093957Y2407193D2*
X3084187Y2409667D1*
X3072000Y2414713D1*
X3060750Y2421607D1*
X3050717Y2430177D1*
X3042147Y2440210D1*
X3035253Y2451460D1*
X3030207Y2463647D1*
X3027127Y2476477D1*
X3026090Y2489630D1*
X3027127Y2502783D1*
X3030207Y2515613D1*
X3035253Y2527800D1*
X3037080Y2531063D1*
X2936067Y2531043D1*
X2842170Y2437440D1*
X2832887Y2430697D1*
X2822663Y2425487D1*
X2811750Y2421940D1*
X2800413Y2420147D1*
X2656957Y2419920D1*
X2669730Y2407220D1*
X3093683Y2407190D1*
X3968687Y1626213D2*
X3965757Y1638520D1*
X3964720Y1651673D1*
X3965757Y1664827D1*
X3968837Y1677657D1*
X3973883Y1689843D1*
X3980777Y1701093D1*
X3989347Y1711127D1*
X4000387Y1720370D1*
X3894313Y1826437D1*
X3866333Y1826430D1*
X3856093Y1818980D1*
X3844337Y1812990D1*
X3831787Y1808913D1*
X3818757Y1806850D1*
X3805563D1*
X3795543Y1808313D1*
X3809723Y1791103D1*
X3868170Y1732377D1*
X3874093Y1724223D1*
X3878670Y1715240D1*
X3881787Y1705653D1*
X3883363Y1695697D1*
X3883560Y1590307D1*
X3954773Y1518817D1*
X3960697Y1510663D1*
X3965273Y1501680D1*
X3968393Y1492073D1*
X3968683Y1626220D1*
X4947080Y2700163D2*
X4957367Y2707617D1*
X4969123Y2713607D1*
X4981673Y2717683D1*
X4994703Y2719747D1*
X5007897D1*
X5020927Y2717683D1*
X5033477Y2713607D1*
X5045233Y2707617D1*
X5055907Y2699860D1*
X5065233Y2690533D1*
X5072990Y2679860D1*
X5078980Y2668103D1*
X5083057Y2655553D1*
X5085120Y2642523D1*
X5085350Y2636673D1*
X5165090Y2636467D1*
X5175047Y2634890D1*
X5184633Y2631773D1*
X5193617Y2627197D1*
X5201770Y2621273D1*
X5378910Y2444413D1*
X5381713Y2455533D1*
X5386760Y2467720D1*
X5393653Y2478970D1*
X5402223Y2489003D1*
X5412257Y2497573D1*
X5423507Y2504467D1*
X5435693Y2509513D1*
X5448523Y2512593D1*
X5461677Y2513630D1*
X5474830Y2512593D1*
X5487660Y2509513D1*
X5499847Y2504467D1*
X5511097Y2497573D1*
X5521130Y2489003D1*
X5529700Y2478970D1*
X5536593Y2467720D1*
X5541640Y2455533D1*
X5544720Y2442703D1*
X5545757Y2429550D1*
X5544720Y2416397D1*
X5541640Y2403567D1*
X5536593Y2391380D1*
X5529700Y2380130D1*
X5521130Y2370097D1*
X5511097Y2361527D1*
X5499847Y2354633D1*
X5487660Y2349587D1*
X5474830Y2346507D1*
X5461443Y2345480D1*
X5462413Y2334280D1*
Y2059313D1*
X5494650Y2026767D1*
X5500573Y2018613D1*
X5505150Y2009630D1*
X5508267Y2000043D1*
X5509843Y1990087D1*
Y1884757D1*
X5508267Y1874800D1*
X5505150Y1865213D1*
X5500573Y1856230D1*
X5494650Y1848077D1*
X5450170Y1803317D1*
X5458297Y1797830D1*
X5471130Y1805967D1*
X5483317Y1811013D1*
X5496147Y1814093D1*
X5509300Y1815130D1*
X5522453Y1814093D1*
X5535283Y1811013D1*
X5547470Y1805967D1*
X5558720Y1799073D1*
X5568753Y1790503D1*
X5577323Y1780470D1*
X5584217Y1769220D1*
X5589263Y1757033D1*
X5592343Y1744203D1*
X5593380Y1731050D1*
X5592343Y1717897D1*
X5591183Y1712053D1*
X5693407Y1814290D1*
X5693607Y2356903D1*
X5695713Y2370207D1*
X5699877Y2383017D1*
X5705990Y2395017D1*
X5713907Y2405913D1*
X5756830Y2449210D1*
X5757107Y2849033D1*
X5759213Y2862337D1*
X5763377Y2875147D1*
X5769490Y2887147D1*
X5777407Y2898043D1*
X5786930Y2907567D1*
X5797827Y2915483D1*
X5809827Y2921597D1*
X5822637Y2925760D1*
X5835940Y2927867D1*
X5849407D1*
X5862710Y2925760D1*
X5875520Y2921597D1*
X5887520Y2915483D1*
X5898417Y2907567D1*
X5907940Y2898043D1*
X5915857Y2887147D1*
X5921970Y2875147D1*
X5926133Y2862337D1*
X5928240Y2849033D1*
X5928503Y2708800D1*
X5928550Y2575797D1*
X5937887Y2584423D1*
X5948977Y2590637D1*
X5961213Y2594087D1*
X5969690Y2594753D1*
X6323170Y2594587D1*
X6331567Y2593253D1*
X6334800Y2604927D1*
X6335190Y2625017D1*
X6337217Y2632200D1*
X6340863Y2638713D1*
X6345930Y2644193D1*
X6352137Y2648340D1*
X6359137Y2650923D1*
X6366550Y2651800D1*
X6927143Y2651410D1*
X6934327Y2649383D1*
X6940840Y2645737D1*
X6946320Y2640670D1*
X6950467Y2634463D1*
X6953050Y2627463D1*
X6953927Y2620050D1*
Y2604100D1*
X7144480Y2604177D1*
X7144423Y2937493D1*
X4768920Y2937550D1*
X4774590Y2928097D1*
X4779637Y2915910D1*
X4782717Y2903080D1*
X4783753Y2889927D1*
X4782717Y2876773D1*
X4779637Y2863943D1*
X4774590Y2851757D1*
X4767697Y2840507D1*
X4759127Y2830473D1*
X4749093Y2821903D1*
X4737843Y2815010D1*
X4725657Y2809963D1*
X4712827Y2806883D1*
X4699957Y2805857D1*
X4805710Y2700110D1*
X4947030Y2700167D1*
X3344770Y1747453D2*
X3342707Y1734423D1*
X3338630Y1721873D1*
X3332640Y1710117D1*
X3324883Y1699443D1*
X3315557Y1690117D1*
X3304883Y1682360D1*
X3293127Y1676370D1*
X3280577Y1672293D1*
X3267547Y1670230D1*
X3254353D1*
X3241323Y1672293D1*
X3228773Y1676370D1*
X3217017Y1682360D1*
X3206343Y1690117D1*
X3197017Y1699443D1*
X3189260Y1710117D1*
X3183270Y1721873D1*
X3179193Y1734423D1*
X3177130Y1747453D1*
Y1760647D1*
X3179193Y1773677D1*
X3183270Y1786227D1*
X3189260Y1797983D1*
X3197017Y1808657D1*
X3206343Y1817983D1*
X3217017Y1825740D1*
X3228773Y1831730D1*
X3241323Y1835807D1*
X3254353Y1837870D1*
X3267547D1*
X3280577Y1835807D1*
X3293127Y1831730D1*
X3304883Y1825740D1*
X3315557Y1817983D1*
X3324883Y1808657D1*
X3332640Y1797983D1*
X3338630Y1786227D1*
X3342707Y1773677D1*
X3344770Y1760647D1*
Y1747453D1*
X2964207Y1607633D2*
X2975997Y1616420D1*
X2987753Y1622410D1*
X3000303Y1626487D1*
X3012130Y1628410D1*
X3012153Y1951830D1*
X3005510Y1962757D1*
X3000463Y1974943D1*
X2997383Y1987773D1*
X2996377Y2000180D1*
X2980103Y2000187D1*
X2964243Y1984393D1*
X2964190Y1607630D1*
X4653563Y1969903D2*
X4646240Y1983653D1*
X4642163Y1996203D1*
X4641373Y2000173D1*
X4106483Y2000187D1*
X4117340Y1991480D1*
X4138920Y1969903D1*
X4653433Y1969913D1*
X5264720Y1254890D2*
Y1444473D1*
X5229973Y1409713D1*
X5229740Y1263940D1*
X5227633Y1250637D1*
X5223470Y1237827D1*
X5217357Y1225827D1*
X5209440Y1214930D1*
X5105870Y1110987D1*
X5046097Y1051213D1*
X5045883Y1048423D1*
X7144333D1*
X7144423Y1381713D1*
X6776810Y1381897D1*
X6769490Y1383353D1*
X6762710Y1386480D1*
X6756850Y1391100D1*
X6752230Y1396960D1*
X6749103Y1403740D1*
X6747647Y1411060D1*
X6747550Y2223200D1*
X6373020Y2223177D1*
X6372840Y2139557D1*
X6370360Y2127087D1*
X6365037Y2115543D1*
X6357167Y2105560D1*
X6347183Y2097690D1*
X6335640Y2092367D1*
X6323170Y2089887D1*
X6230060Y2089720D1*
X6229963Y1250557D1*
X6227483Y1238087D1*
X6222160Y1226543D1*
X6214290Y1216560D1*
X6204307Y1208690D1*
X6192763Y1203367D1*
X6180293Y1200887D1*
X5639383Y1200720D1*
X5314557Y1200887D1*
X5302087Y1203367D1*
X5290543Y1208690D1*
X5280560Y1216560D1*
X5272690Y1226543D1*
X5267367Y1238087D1*
X5264887Y1250557D1*
X5264720Y1254817D1*
X5915593Y1531100D2*
Y2368367D1*
X5907940Y2357927D1*
X5865017Y2314630D1*
X5864740Y1771940D1*
X5862633Y1758637D1*
X5858470Y1745827D1*
X5852357Y1733827D1*
X5844440Y1722930D1*
X5740870Y1618987D1*
X5653023Y1531143D1*
X5915533Y1531130D1*
X2735620Y2184830D2*
X2734910Y2178810D1*
X2782927Y2178830D1*
X2882753Y2278697D1*
X2655370Y2278710D1*
X2664953Y2274470D1*
X2677783Y2271390D1*
X2689970Y2266343D1*
X2701220Y2259450D1*
X2711253Y2250880D1*
X2719823Y2240847D1*
X2726717Y2229597D1*
X2731763Y2217410D1*
X2734843Y2204580D1*
X2735880Y2191427D1*
X2735620Y2184830D1*
X2127870Y1858807D2*
X2012527Y1743757D1*
X2015467Y1740980D1*
X2026580Y1735317D1*
X2036670Y1727987D1*
X2084753Y1680247D1*
X2127907Y1723327D1*
X2127870Y1858793D1*
X4215817Y2540770D2*
X4171363Y2496317D1*
X4328233Y2496330D1*
X4335427Y2509960D1*
X4325840Y2513077D1*
X4316857Y2517653D1*
X4308703Y2523577D1*
X4304827Y2527177D1*
X4290677Y2522417D1*
X4277647Y2520353D1*
X4264453D1*
X4251423Y2522417D1*
X4238873Y2526493D1*
X4227117Y2532483D1*
X4215857Y2540780D1*
X1064313Y2599787D2*
X1402030Y2937503D1*
X1064390Y2937550D1*
X1064300Y2599703D1*
X5378960Y2444347D2*
X5381713Y2455533D1*
X5386760Y2467720D1*
X5393653Y2478970D1*
X5402223Y2489003D1*
X5412257Y2497573D1*
X5423507Y2504467D1*
X5435693Y2509513D1*
X5448523Y2512593D1*
X5461677Y2513630D1*
X5474830Y2512593D1*
X5487660Y2509513D1*
X5499847Y2504467D1*
X5511097Y2497573D1*
X5521130Y2489003D1*
X5529700Y2478970D1*
X5536593Y2467720D1*
X5541640Y2455533D1*
X5544720Y2442703D1*
X5545757Y2429550D1*
X5544720Y2416397D1*
X5541640Y2403567D1*
X5536593Y2391380D1*
X5529700Y2380130D1*
X5521130Y2370097D1*
X5511097Y2361527D1*
X5499847Y2354633D1*
X5487660Y2349587D1*
X5474830Y2346507D1*
X5461443Y2345480D1*
X5359350Y1894197D2*
X5381520Y1916367D1*
X5381560Y1958430D1*
X5360233Y1979763D1*
X5290323Y1909757D1*
X5290330Y1846190D1*
X5298403Y1859843D1*
X5306973Y1869877D1*
X5317007Y1878447D1*
X5328257Y1885340D1*
X5340443Y1890387D1*
X5353273Y1893467D1*
X5359343Y1894187D1*
X4340393Y2508977D2*
X4335427Y2509960D1*
X4413923Y1359590D2*
D15*
Y1254800D1*
X4518713D1*
X6007818Y2445757D2*
D19*
X6280860D1*
X6007818Y2382590D2*
X6280860D1*
X6007818Y2319423D2*
X6280860D1*
X6007818Y2256257D2*
X6280860D1*
X6007818Y2193090D2*
X6280860D1*
X6007818Y2129923D2*
X6137943D1*
X6007818Y2066757D2*
X6137943D1*
X6007818Y2003590D2*
X6137943D1*
X6007818Y1940423D2*
X6137943D1*
X6007818Y1877257D2*
X6137943D1*
X6007818Y1814090D2*
X6137943D1*
X6007818Y1750923D2*
X6137943D1*
X6007818Y1687757D2*
X6137943D1*
X6007818Y1624590D2*
X6137943D1*
X6007818Y1561423D2*
X6137943D1*
X6007818Y1498257D2*
X6137943D1*
X5356946Y1435090D2*
X6137943D1*
X5356946Y1371923D2*
X6137943D1*
X5356946Y1308757D2*
X5533009D1*
X5866633D2*
X6137943D1*
X5536346Y1286576D2*
X5537380Y1299703D1*
X5540460Y1312532D1*
X5545509Y1324722D1*
X5552403Y1335971D1*
X5560971Y1346004D1*
X5571004Y1354572D1*
X5582253Y1361466D1*
X5594443Y1366515D1*
X5607272Y1369595D1*
X5620425Y1370630D1*
X5633578Y1369595D1*
X5646407Y1366515D1*
X5660059Y1360647D1*
X5673818Y1366515D1*
X5686647Y1369595D1*
X5699800Y1370630D1*
X5712953Y1369595D1*
X5725782Y1366515D1*
X5739434Y1360647D1*
X5753193Y1366515D1*
X5766022Y1369595D1*
X5779175Y1370630D1*
X5792328Y1369595D1*
X5805157Y1366515D1*
X5817347Y1361466D1*
X5828596Y1354572D1*
X5838629Y1346004D1*
X5847197Y1335971D1*
X5854091Y1324722D1*
X5859140Y1312532D1*
X5862220Y1299703D1*
X5863254Y1286576D1*
X6144308Y1286550D1*
X6144691Y2148767D1*
X6146716Y2155950D1*
X6150363Y2162462D1*
X6155430Y2167943D1*
X6161636Y2172090D1*
X6168638Y2174673D1*
X6176050Y2175550D1*
X6287157D1*
X6287177Y2508839D1*
X6001466Y2508923D1*
X6001032Y1472083D1*
X5999007Y1464900D1*
X5995360Y1458388D1*
X5990293Y1452907D1*
X5984088Y1448760D1*
X5977085Y1446177D1*
X5969673Y1445300D1*
X5350520D1*
X5350550Y1286464D1*
X5536365Y1286550D1*
D45*
X3562550Y1176174D3*
D47*
Y1594074D3*
D45*
X2698550Y1176174D3*
D47*
Y1594074D3*
D48*
X3778923Y1254800D3*
D50*
X3905923D3*
X4032923D3*
X4159923D3*
X4286923D3*
X4413923D3*
D51*
X3461427Y2826423D3*
D52*
X3207427D3*
X2953427D3*
X2699427D3*
D51*
X4683800Y1270677D3*
D52*
X4937800D3*
D60*
X1540550Y1127800D3*
X1740550D3*
X1880550Y1327800D3*
X1540550Y1727800D3*
X1740550D3*
X1880550Y1527800D3*
M02*
