G04 DipTrace 3.3.1.3*
G04 TNC3L_B005_BottomMask.gbr*
%MOMM*%
G04 #@! TF.FileFunction,Soldermask,Bot*
G04 #@! TF.Part,Single*
%ADD45O,1.0X1.8*%
%ADD47O,1.0X2.1*%
%ADD61R,0.7112X1.4986*%
%ADD62R,1.4986X0.7112*%
%ADD63R,0.2794X0.6858*%
%ADD64R,0.7112X1.0414*%
%ADD70R,0.4572X1.524*%
%ADD71R,0.3556X1.4097*%
%ADD78C,0.66*%
%ADD79C,1.1*%
%ADD80C,2.5*%
%ADD112C,1.474*%
%ADD114R,1.304X1.204*%
%ADD116R,0.804X1.304*%
%ADD124C,1.728*%
%ADD126R,1.728X1.728*%
%ADD128C,1.22*%
%ADD132R,1.22X1.22*%
%ADD144R,1.204X1.154*%
%ADD150R,0.704X1.054*%
%ADD162R,1.504X1.704*%
%ADD166R,1.104X0.904*%
%ADD168R,0.904X1.104*%
%FSLAX35Y35*%
G04*
G71*
G90*
G75*
G01*
G04 BotMask*
%LPD*%
D166*
X3382050Y1254800D3*
X3252050D3*
D168*
X6253927Y1240427D3*
Y1110427D3*
D166*
X4017050Y2667677D3*
X4147050D3*
X1143673Y2889927D3*
X1273673D3*
X1842173Y2778800D3*
X1972173D3*
X1842173Y2889927D3*
X1972173D3*
X1842173Y2667673D3*
X1972173D3*
X2874050Y2302550D3*
X3004050D3*
X2810550Y1937427D3*
X2940550D3*
D168*
X2381927Y2556550D3*
Y2686550D3*
D166*
X2874050Y2493050D3*
X3004050D3*
X2874050Y2397800D3*
X3004050D3*
D168*
X2223173Y2413677D3*
Y2283677D3*
X1111927Y1572300D3*
Y1442300D3*
X1113423Y1158050D3*
Y1288050D3*
D166*
X1858050Y2318427D3*
X1988050D3*
D168*
X4032927Y1826300D3*
Y1956300D3*
D162*
X2350173Y1286550D3*
X2160173D3*
D166*
X2318427Y1461173D3*
X2188427D3*
X2318427Y1572300D3*
X2188427D3*
X2318427Y1667550D3*
X2188427D3*
D150*
X1921550Y1873923D3*
X1791537D3*
X1856543Y2083923D3*
D168*
X4413927Y2842300D3*
Y2712300D3*
D144*
X2493050Y1381800D3*
Y1541800D3*
D45*
X3562550Y1176174D3*
D47*
Y1594074D3*
D45*
X2698550Y1176174D3*
D47*
Y1594074D3*
D78*
X2841550Y1544174D3*
X3419550D3*
D132*
X3778923Y1254800D3*
D128*
X3905923D3*
X4032923D3*
X4159923D3*
X4286923D3*
X4413923D3*
D126*
X3461427Y2826423D3*
D124*
X3207427D3*
X2953427D3*
X2699427D3*
D126*
X4683800Y1270677D3*
D124*
X4937800D3*
D79*
X1239050Y2488800D3*
X1939050D3*
D166*
X3255050Y1143673D3*
X3385050D3*
X2937550Y1826300D3*
X2807550D3*
X1143673Y2667673D3*
X1273673D3*
X1143673Y2778800D3*
X1273673D3*
X3429673Y2413677D3*
X3559673D3*
X3429673Y2524800D3*
X3559673D3*
X3477300Y2032673D3*
X3607300D3*
X1540550Y2889927D3*
X1670550D3*
X3477300Y2143800D3*
X3607300D3*
X2937550Y2175550D3*
X2807550D3*
X2810550Y2048550D3*
X2940550D3*
D168*
X2493050Y2683550D3*
Y2553550D3*
D166*
X2620050Y2588300D3*
X2750050D3*
D168*
X2191427Y2683550D3*
Y2553550D3*
D166*
X2874050Y2588300D3*
X3004050D3*
D168*
X2286673Y2556550D3*
Y2686550D3*
D166*
X4017050Y2080300D3*
X3887050D3*
X4017050Y2207300D3*
X3887050D3*
X1858050D3*
X1988050D3*
D114*
X2239050Y1794550D3*
X2409050D3*
D61*
X7096763Y1425743D3*
X6986780D3*
D62*
X5001643Y1670853D3*
Y1780837D3*
Y1890817D3*
Y2000800D3*
Y2110783D3*
Y2220763D3*
Y2330747D3*
D61*
X6986780Y2575857D3*
X7096763D3*
X6256787Y1425743D3*
X6366767D3*
X6146803Y2575857D3*
Y1425743D3*
X6036820Y2575857D3*
Y1425743D3*
X5926840D3*
X5816857D3*
Y2575857D3*
X5926840D3*
X5706877Y1425743D3*
X5596893D3*
Y2575857D3*
X5706877D3*
X5486910Y1425743D3*
X5376930D3*
Y2575857D3*
X5486910D3*
X5156967Y1425743D3*
X5266947D3*
Y2575857D3*
X5156967D3*
D63*
X3175677Y2302550D3*
X3240677D3*
X3305677D3*
Y2094270D3*
X3240677D3*
X3175677D3*
D64*
X3188607Y2198410D3*
X3292747D3*
D112*
X1540550Y1127800D3*
X1740550D3*
X1880550Y1327800D3*
X1540550Y1727800D3*
X1740550D3*
X1880550Y1527800D3*
D70*
X1651673Y2302550D3*
X1586673D3*
X1521673D3*
X1456673D3*
Y2711270D3*
X1521673D3*
X1586673D3*
X1651673D3*
X2604173Y1969173D3*
X2539173D3*
X2474173D3*
X2409173D3*
Y2377893D3*
X2474173D3*
X2539173D3*
X2604173D3*
D116*
X1477050Y1302427D3*
X1382050D3*
X1287050D3*
Y1572427D3*
X1477050D3*
D71*
X4191673Y2429550D3*
X4256670D3*
X4321670D3*
X4386667D3*
Y1839003D3*
X4321670D3*
X4256670D3*
X4191673D3*
D80*
X1250800Y1950800D3*
M02*
